  0
SECTION
  2
HEADER
  9
$ACADVER
  1
AC1009
  9
$MEASUREMENT
 70
     1
  0
ENDSEC
  0
SECTION
  2
ENTITIES
  0
LWPOLYLINE
  8
0
 62
7
 90
9
 70
1
 10
25.140111
 20
13.549724
 10
24.168944
 20
12.578557
 10
24.873841
 20
11.873659
 10
26.816175
 20
13.815993
 10
26.111278
 20
14.520891
 10
24.168944
 20
12.578557
 10
24.873841
 20
11.873659
 10
26.816175
 20
13.815993
 10
26.111278
 20
14.520891
  0
LWPOLYLINE
  8
0
 62
7
 90
9
 70
1
 10
28.180670
 20
16.590283
 10
27.209503
 20
15.619116
 10
27.914400
 20
14.914219
 10
29.856734
 20
16.856553
 10
29.151837
 20
17.561450
 10
27.209503
 20
15.619116
 10
27.914400
 20
14.914219
 10
29.856734
 20
16.856553
 10
29.151837
 20
17.561450
  0
LWPOLYLINE
  8
0
 62
7
 90
9
 70
1
 10
23.725898
 20
14.963936
 10
22.754731
 20
13.992769
 10
23.459628
 20
13.287872
 10
25.401962
 20
15.230206
 10
24.697065
 20
15.935103
 10
22.754731
 20
13.992769
 10
23.459628
 20
13.287872
 10
25.401962
 20
15.230206
 10
24.697065
 20
15.935103
  0
LWPOLYLINE
  8
0
 62
7
 90
9
 70
1
 10
26.766458
 20
18.004495
 10
25.795291
 20
17.033328
 10
26.500188
 20
16.328431
 10
28.442522
 20
18.270765
 10
27.737625
 20
18.975662
 10
25.795291
 20
17.033328
 10
26.500188
 20
16.328431
 10
28.442522
 20
18.270765
 10
27.737625
 20
18.975662
  0
LWPOLYLINE
  8
0
 62
7
 90
9
 70
1
 10
22.311683
 20
16.378152
 10
21.340516
 20
15.406985
 10
22.045413
 20
14.702088
 10
23.987747
 20
16.644422
 10
23.282850
 20
17.349319
 10
21.340516
 20
15.406985
 10
22.045413
 20
14.702088
 10
23.987747
 20
16.644422
 10
23.282850
 20
17.349319
  0
LWPOLYLINE
  8
0
 62
7
 90
9
 70
1
 10
25.352242
 20
19.418711
 10
24.381075
 20
18.447544
 10
25.085972
 20
17.742647
 10
27.028306
 20
19.684981
 10
26.323409
 20
20.389878
 10
24.381075
 20
18.447544
 10
25.085972
 20
17.742647
 10
27.028306
 20
19.684981
 10
26.323409
 20
20.389878
  0
LWPOLYLINE
  8
0
 62
7
 90
9
 70
1
 10
20.897470
 20
17.792364
 10
19.926303
 20
16.821197
 10
20.631200
 20
16.116300
 10
22.573534
 20
18.058634
 10
21.868637
 20
18.763531
 10
19.926303
 20
16.821197
 10
20.631200
 20
16.116300
 10
22.573534
 20
18.058634
 10
21.868637
 20
18.763531
  0
LWPOLYLINE
  8
0
 62
7
 90
9
 70
1
 10
23.938030
 20
20.832924
 10
22.966863
 20
19.861757
 10
23.671760
 20
19.156859
 10
25.614094
 20
21.099193
 10
24.909197
 20
21.804091
 10
22.966863
 20
19.861757
 10
23.671760
 20
19.156859
 10
25.614094
 20
21.099193
 10
24.909197
 20
21.804091
  0
LWPOLYLINE
  8
0
 62
7
 90
9
 70
1
 10
20.188155
 20
18.501680
 10
21.159322
 20
19.472847
 10
20.454425
 20
20.177744
 10
18.512091
 20
18.235410
 10
19.216988
 20
17.530513
 10
21.159322
 20
19.472847
 10
20.454425
 20
20.177744
 10
18.512091
 20
18.235410
 10
19.216988
 20
17.530513
  0
LWPOLYLINE
  8
0
 62
7
 90
9
 70
1
 10
23.228714
 20
21.542239
 10
24.199881
 20
22.513406
 10
23.494984
 20
23.218303
 10
21.552650
 20
21.275969
 10
22.257547
 20
20.571072
 10
24.199881
 20
22.513406
 10
23.494984
 20
23.218303
 10
21.552650
 20
21.275969
 10
22.257547
 20
20.571072
  0
LWPOLYLINE
  8
0
 62
7
 90
9
 70
1
 10
18.069042
 20
20.620792
 10
17.097875
 20
19.649625
 10
17.802772
 20
18.944728
 10
19.745106
 20
20.887062
 10
19.040209
 20
21.591959
 10
17.097875
 20
19.649625
 10
17.802772
 20
18.944728
 10
19.745106
 20
20.887062
 10
19.040209
 20
21.591959
  0
LWPOLYLINE
  8
0
 62
7
 90
9
 70
1
 10
21.109601
 20
23.661352
 10
20.138434
 20
22.690185
 10
20.843332
 20
21.985288
 10
22.785666
 20
23.927622
 10
22.080768
 20
24.632519
 10
20.138434
 20
22.690185
 10
20.843332
 20
21.985288
 10
22.785666
 20
23.927622
 10
22.080768
 20
24.632519
  0
LWPOLYLINE
  8
0
 62
7
 90
9
 70
1
 10
16.654830
 20
22.035005
 10
15.683663
 20
21.063838
 10
16.388560
 20
20.358941
 10
18.330894
 20
22.301275
 10
17.625997
 20
23.006172
 10
15.683663
 20
21.063838
 10
16.388560
 20
20.358941
 10
18.330894
 20
22.301275
 10
17.625997
 20
23.006172
  0
LWPOLYLINE
  8
0
 62
7
 90
9
 70
1
 10
19.695389
 20
25.075564
 10
18.724222
 20
24.104397
 10
19.429119
 20
23.399500
 10
21.371453
 20
25.341834
 10
20.666556
 20
26.046731
 10
18.724222
 20
24.104397
 10
19.429119
 20
23.399500
 10
21.371453
 20
25.341834
 10
20.666556
 20
26.046731
  0
ENDSEC
  0
EOF
