  0
SECTION
  2
HEADER
  9
$ACADVER
  1
AC1009
  9
$FILLMODE
 70
1
  9
$EXTMIN
 10
3.5560
 20
8.5296
 30
0.0000
  9
$EXTMAX
 10
40.8940
 20
29.7803
 30
0.0000
  0
ENDSEC
  0
SECTION
  2
TABLES
  0
TABLE
  2
LTYPE
 70
1
  0
LTYPE
  2
CONTINUOUS
 70
64
  3
Solid line
 72
65
 73
0
 40
0
  0
ENDTAB
  0
TABLE
  2
LAYER
 70
255
  0
LAYER
  2
31
 70
64
 62
253
  6
CONTINUOUS
  0
ENDTAB
  0
ENDSEC
  0
SECTION
  2
BLOCKS
  0
BLOCK
  8
0
  2
RECT
 70
64
 10
0.0000
 20
0.0000
 30
0.0000
  3
RECT
  0
SOLID
  8
0
 10
-0.5000
 20
-0.5000
 30
0.0000
 11
0.5000
 21
-0.5000
 31
0.0000
 12
-0.5000
 22
0.5000
 32
0.0000
 13
0.5000
 23
0.5000
 33
0.0000
  0
ENDBLK
  8
0
  0
BLOCK
  8
0
  2
PIE
 70
64
 10
0.0000
 20
0.0000
 30
0.0000
  3
PIE
  0
POLYLINE
  8
0
 66
1
 10
0.0000
 20
0.0000
 30
0.0000
 40
0.5000
 41
0.5000
 70
0
  0
VERTEX
  8
0
 10
0.0000
 20
-0.2500
 30
0.0000
 42
1.0000
  0
VERTEX
  8
0
 10
0.0000
 20
0.2500
 30
0.0000
 42
1.0000
  0
VERTEX
  8
0
 10
0.0000
 20
-0.2500
 30
0.0000
  0
SEQEND
  8
0
  0
ENDBLK
  8
0
  0
BLOCK
  8
0
  2
OCTAGONP
 70
64
 10
0.0000
 20
0.0000
 30
0.0000
  3
OCTAGONP
  0
POLYLINE
  8
0
 66
1
 10
0.0000
 20
0.0000
 30
0.0000
 40
0.5000
 41
0.5000
 70
0
  0
VERTEX
  8
0
 10
-0.2500
 20
-0.1036
 30
0.0000
  0
VERTEX
  8
0
 10
-0.2500
 20
0.1036
 30
0.0000
  0
VERTEX
  8
0
 10
-0.1036
 20
0.2500
 30
0.0000
  0
VERTEX
  8
0
 10
0.1036
 20
0.2500
 30
0.0000
  0
VERTEX
  8
0
 10
0.2500
 20
0.1036
 30
0.0000
  0
VERTEX
  8
0
 10
0.2500
 20
-0.1036
 30
0.0000
  0
VERTEX
  8
0
 10
0.1036
 20
-0.2500
 30
0.0000
  0
VERTEX
  8
0
 10
-0.1036
 20
-0.2500
 30
0.0000
  0
VERTEX
  8
0
 10
-0.2500
 20
-0.1036
 30
0.0000
  0
VERTEX
  8
0
 10
-0.2500
 20
0.1036
 30
0.0000
  0
SEQEND
  8
0
  0
ENDBLK
  8
0
  0
BLOCK
  8
0
  2
SQUAREP
 70
64
 10
0.0000
 20
0.0000
 30
0.0000
  3
SQUAREP
  0
SOLID
  8
0
 10
-0.5000
 20
-0.5000
 30
0.0000
 11
0.5000
 21
-0.5000
 31
0.0000
 12
-0.5000
 22
0.5000
 32
0.0000
 13
0.5000
 23
0.5000
 33
0.0000
  0
ENDBLK
  8
0
  0
BLOCK
  8
0
  2
ROUNDP
 70
64
 10
0.0000
 20
0.0000
 30
0.0000
  3
ROUNDP
  0
POLYLINE
  8
0
 66
1
 10
0.0000
 20
0.0000
 30
0.0000
 40
0.5000
 41
0.5000
 70
0
  0
VERTEX
  8
0
 10
0.0000
 20
-0.2500
 30
0.0000
 42
1.0000
  0
VERTEX
  8
0
 10
0.0000
 20
0.2500
 30
0.0000
 42
1.0000
  0
VERTEX
  8
0
 10
0.0000
 20
-0.2500
 30
0.0000
  0
SEQEND
  8
0
  0
ENDBLK
  8
0
  0
BLOCK
  8
0
  2
ANNULUSP
 70
64
 10
0.0000
 20
0.0000
 30
0.0000
  3
ANNULUSP
  0
POLYLINE
  8
0
 66
1
 10
0.0000
 20
0.0000
 30
0.0000
 40
0.5000
 41
0.5000
 70
0
  0
VERTEX
  8
0
 10
0.0000
 20
-0.2500
 30
0.0000
 42
1.0000
  0
VERTEX
  8
0
 10
0.0000
 20
0.2500
 30
0.0000
 42
1.0000
  0
VERTEX
  8
0
 10
0.0000
 20
-0.2500
 30
0.0000
  0
SEQEND
  8
0
  0
ENDBLK
  8
0
  0
BLOCK
  8
0
  2
THERMALP
 70
64
 10
0.0000
 20
0.0000
 30
0.0000
  3
THERMALP
  0
POLYLINE
  8
0
 66
1
 10
0.0000
 20
0.0000
 30
0.0000
 40
0.1000
 41
0.1000
 70
0
  0
VERTEX
  8
0
 10
-0.2379
 20
0.4500
 30
0.0000
  0
VERTEX
  8
0
 10
0.2379
 20
0.4500
 30
0.0000
  0
SEQEND
  8
0
  0
POLYLINE
  8
0
 66
1
 10
0.0000
 20
0.0000
 30
0.0000
 40
0.0500
 41
0.0500
 70
0
  0
VERTEX
  8
0
 10
0.2379
 20
0.4250
 30
0.0000
 42
1.0000
  0
VERTEX
  8
0
 10
0.2379
 20
0.4750
 30
0.0000
  0
SEQEND
  8
0
  0
POLYLINE
  8
0
 66
1
 10
0.0000
 20
0.0000
 30
0.0000
 40
0.0500
 41
0.0500
 70
0
  0
VERTEX
  8
0
 10
-0.2379
 20
0.4750
 30
0.0000
 42
1.0000
  0
VERTEX
  8
0
 10
-0.2379
 20
0.4250
 30
0.0000
  0
SEQEND
  8
0
  0
POLYLINE
  8
0
 66
1
 10
0.0000
 20
0.0000
 30
0.0000
 40
0.1000
 41
0.1000
 70
0
  0
VERTEX
  8
0
 10
0.4500
 20
0.2379
 30
0.0000
  0
VERTEX
  8
0
 10
0.4500
 20
-0.2379
 30
0.0000
  0
SEQEND
  8
0
  0
POLYLINE
  8
0
 66
1
 10
0.0000
 20
0.0000
 30
0.0000
 40
0.0500
 41
0.0500
 70
0
  0
VERTEX
  8
0
 10
0.4250
 20
-0.2379
 30
0.0000
 42
1.0000
  0
VERTEX
  8
0
 10
0.4750
 20
-0.2379
 30
0.0000
  0
SEQEND
  8
0
  0
POLYLINE
  8
0
 66
1
 10
0.0000
 20
0.0000
 30
0.0000
 40
0.0500
 41
0.0500
 70
0
  0
VERTEX
  8
0
 10
0.4750
 20
0.2379
 30
0.0000
 42
1.0000
  0
VERTEX
  8
0
 10
0.4250
 20
0.2379
 30
0.0000
  0
SEQEND
  8
0
  0
POLYLINE
  8
0
 66
1
 10
0.0000
 20
0.0000
 30
0.0000
 40
0.1000
 41
0.1000
 70
0
  0
VERTEX
  8
0
 10
0.2379
 20
-0.4500
 30
0.0000
  0
VERTEX
  8
0
 10
-0.2379
 20
-0.4500
 30
0.0000
  0
SEQEND
  8
0
  0
POLYLINE
  8
0
 66
1
 10
0.0000
 20
0.0000
 30
0.0000
 40
0.0500
 41
0.0500
 70
0
  0
VERTEX
  8
0
 10
-0.2379
 20
-0.4250
 30
0.0000
 42
1.0000
  0
VERTEX
  8
0
 10
-0.2379
 20
-0.4750
 30
0.0000
  0
SEQEND
  8
0
  0
POLYLINE
  8
0
 66
1
 10
0.0000
 20
0.0000
 30
0.0000
 40
0.0500
 41
0.0500
 70
0
  0
VERTEX
  8
0
 10
0.2379
 20
-0.4750
 30
0.0000
 42
1.0000
  0
VERTEX
  8
0
 10
0.2379
 20
-0.4250
 30
0.0000
  0
SEQEND
  8
0
  0
POLYLINE
  8
0
 66
1
 10
0.0000
 20
0.0000
 30
0.0000
 40
0.1000
 41
0.1000
 70
0
  0
VERTEX
  8
0
 10
-0.4500
 20
-0.2379
 30
0.0000
  0
VERTEX
  8
0
 10
-0.4500
 20
0.2379
 30
0.0000
  0
SEQEND
  8
0
  0
POLYLINE
  8
0
 66
1
 10
0.0000
 20
0.0000
 30
0.0000
 40
0.0500
 41
0.0500
 70
0
  0
VERTEX
  8
0
 10
-0.4250
 20
0.2379
 30
0.0000
 42
1.0000
  0
VERTEX
  8
0
 10
-0.4750
 20
0.2379
 30
0.0000
  0
SEQEND
  8
0
  0
POLYLINE
  8
0
 66
1
 10
0.0000
 20
0.0000
 30
0.0000
 40
0.0500
 41
0.0500
 70
0
  0
VERTEX
  8
0
 10
-0.4750
 20
-0.2379
 30
0.0000
 42
1.0000
  0
VERTEX
  8
0
 10
-0.4250
 20
-0.2379
 30
0.0000
  0
SEQEND
  8
0
  0
ENDBLK
  8
0
  0
BLOCK
  8
0
  2
OCTAGONV
 70
64
 10
0.0000
 20
0.0000
 30
0.0000
  3
OCTAGONV
  0
POLYLINE
  8
0
 66
1
 10
0.0000
 20
0.0000
 30
0.0000
 40
0.5000
 41
0.5000
 70
0
  0
VERTEX
  8
0
 10
-0.2500
 20
-0.1036
 30
0.0000
  0
VERTEX
  8
0
 10
-0.2500
 20
0.1036
 30
0.0000
  0
VERTEX
  8
0
 10
-0.1036
 20
0.2500
 30
0.0000
  0
VERTEX
  8
0
 10
0.1036
 20
0.2500
 30
0.0000
  0
VERTEX
  8
0
 10
0.2500
 20
0.1036
 30
0.0000
  0
VERTEX
  8
0
 10
0.2500
 20
-0.1036
 30
0.0000
  0
VERTEX
  8
0
 10
0.1036
 20
-0.2500
 30
0.0000
  0
VERTEX
  8
0
 10
-0.1036
 20
-0.2500
 30
0.0000
  0
VERTEX
  8
0
 10
-0.2500
 20
-0.1036
 30
0.0000
  0
VERTEX
  8
0
 10
-0.2500
 20
0.1036
 30
0.0000
  0
SEQEND
  8
0
  0
ENDBLK
  8
0
  0
BLOCK
  8
0
  2
SQUAREV
 70
64
 10
0.0000
 20
0.0000
 30
0.0000
  3
SQUAREV
  0
SOLID
  8
0
 10
-0.5000
 20
-0.5000
 30
0.0000
 11
0.5000
 21
-0.5000
 31
0.0000
 12
-0.5000
 22
0.5000
 32
0.0000
 13
0.5000
 23
0.5000
 33
0.0000
  0
ENDBLK
  8
0
  0
BLOCK
  8
0
  2
ROUNDV
 70
64
 10
0.0000
 20
0.0000
 30
0.0000
  3
ROUNDV
  0
POLYLINE
  8
0
 66
1
 10
0.0000
 20
0.0000
 30
0.0000
 40
0.5000
 41
0.5000
 70
0
  0
VERTEX
  8
0
 10
0.0000
 20
-0.2500
 30
0.0000
 42
1.0000
  0
VERTEX
  8
0
 10
0.0000
 20
0.2500
 30
0.0000
 42
1.0000
  0
VERTEX
  8
0
 10
0.0000
 20
-0.2500
 30
0.0000
  0
SEQEND
  8
0
  0
ENDBLK
  8
0
  0
BLOCK
  8
0
  2
ANNULUSV
 70
64
 10
0.0000
 20
0.0000
 30
0.0000
  3
ANNULUSV
  0
POLYLINE
  8
0
 66
1
 10
0.0000
 20
0.0000
 30
0.0000
 40
0.5000
 41
0.5000
 70
0
  0
VERTEX
  8
0
 10
0.0000
 20
-0.2500
 30
0.0000
 42
1.0000
  0
VERTEX
  8
0
 10
0.0000
 20
0.2500
 30
0.0000
 42
1.0000
  0
VERTEX
  8
0
 10
0.0000
 20
-0.2500
 30
0.0000
  0
SEQEND
  8
0
  0
ENDBLK
  8
0
  0
BLOCK
  8
0
  2
THERMALV
 70
64
 10
0.0000
 20
0.0000
 30
0.0000
  3
THERMALV
  0
POLYLINE
  8
0
 66
1
 10
0.0000
 20
0.0000
 30
0.0000
 40
0.1000
 41
0.1000
 70
0
  0
VERTEX
  8
0
 10
-0.2379
 20
0.4500
 30
0.0000
  0
VERTEX
  8
0
 10
0.2379
 20
0.4500
 30
0.0000
  0
SEQEND
  8
0
  0
POLYLINE
  8
0
 66
1
 10
0.0000
 20
0.0000
 30
0.0000
 40
0.0500
 41
0.0500
 70
0
  0
VERTEX
  8
0
 10
0.2379
 20
0.4250
 30
0.0000
 42
1.0000
  0
VERTEX
  8
0
 10
0.2379
 20
0.4750
 30
0.0000
  0
SEQEND
  8
0
  0
POLYLINE
  8
0
 66
1
 10
0.0000
 20
0.0000
 30
0.0000
 40
0.0500
 41
0.0500
 70
0
  0
VERTEX
  8
0
 10
-0.2379
 20
0.4750
 30
0.0000
 42
1.0000
  0
VERTEX
  8
0
 10
-0.2379
 20
0.4250
 30
0.0000
  0
SEQEND
  8
0
  0
POLYLINE
  8
0
 66
1
 10
0.0000
 20
0.0000
 30
0.0000
 40
0.1000
 41
0.1000
 70
0
  0
VERTEX
  8
0
 10
0.4500
 20
0.2379
 30
0.0000
  0
VERTEX
  8
0
 10
0.4500
 20
-0.2379
 30
0.0000
  0
SEQEND
  8
0
  0
POLYLINE
  8
0
 66
1
 10
0.0000
 20
0.0000
 30
0.0000
 40
0.0500
 41
0.0500
 70
0
  0
VERTEX
  8
0
 10
0.4250
 20
-0.2379
 30
0.0000
 42
1.0000
  0
VERTEX
  8
0
 10
0.4750
 20
-0.2379
 30
0.0000
  0
SEQEND
  8
0
  0
POLYLINE
  8
0
 66
1
 10
0.0000
 20
0.0000
 30
0.0000
 40
0.0500
 41
0.0500
 70
0
  0
VERTEX
  8
0
 10
0.4750
 20
0.2379
 30
0.0000
 42
1.0000
  0
VERTEX
  8
0
 10
0.4250
 20
0.2379
 30
0.0000
  0
SEQEND
  8
0
  0
POLYLINE
  8
0
 66
1
 10
0.0000
 20
0.0000
 30
0.0000
 40
0.1000
 41
0.1000
 70
0
  0
VERTEX
  8
0
 10
0.2379
 20
-0.4500
 30
0.0000
  0
VERTEX
  8
0
 10
-0.2379
 20
-0.4500
 30
0.0000
  0
SEQEND
  8
0
  0
POLYLINE
  8
0
 66
1
 10
0.0000
 20
0.0000
 30
0.0000
 40
0.0500
 41
0.0500
 70
0
  0
VERTEX
  8
0
 10
-0.2379
 20
-0.4250
 30
0.0000
 42
1.0000
  0
VERTEX
  8
0
 10
-0.2379
 20
-0.4750
 30
0.0000
  0
SEQEND
  8
0
  0
POLYLINE
  8
0
 66
1
 10
0.0000
 20
0.0000
 30
0.0000
 40
0.0500
 41
0.0500
 70
0
  0
VERTEX
  8
0
 10
0.2379
 20
-0.4750
 30
0.0000
 42
1.0000
  0
VERTEX
  8
0
 10
0.2379
 20
-0.4250
 30
0.0000
  0
SEQEND
  8
0
  0
POLYLINE
  8
0
 66
1
 10
0.0000
 20
0.0000
 30
0.0000
 40
0.1000
 41
0.1000
 70
0
  0
VERTEX
  8
0
 10
-0.4500
 20
-0.2379
 30
0.0000
  0
VERTEX
  8
0
 10
-0.4500
 20
0.2379
 30
0.0000
  0
SEQEND
  8
0
  0
POLYLINE
  8
0
 66
1
 10
0.0000
 20
0.0000
 30
0.0000
 40
0.0500
 41
0.0500
 70
0
  0
VERTEX
  8
0
 10
-0.4250
 20
0.2379
 30
0.0000
 42
1.0000
  0
VERTEX
  8
0
 10
-0.4750
 20
0.2379
 30
0.0000
  0
SEQEND
  8
0
  0
POLYLINE
  8
0
 66
1
 10
0.0000
 20
0.0000
 30
0.0000
 40
0.0500
 41
0.0500
 70
0
  0
VERTEX
  8
0
 10
-0.4750
 20
-0.2379
 30
0.0000
 42
1.0000
  0
VERTEX
  8
0
 10
-0.4250
 20
-0.2379
 30
0.0000
  0
SEQEND
  8
0
  0
ENDBLK
  8
0
  0
ENDSEC
  0
SECTION
  2
ENTITIES
  0
INSERT
  8
31
  2
RECT
 10
15.9140
 20
14.9860
 30
0.0000
 41
1.0000
 42
1.0000
 43
1.0000
 50
0.0000
  0
INSERT
  8
31
  2
RECT
 10
17.6140
 20
14.9860
 30
0.0000
 41
1.0000
 42
1.0000
 43
1.0000
 50
0.0000
  0
INSERT
  8
31
  2
RECT
 10
19.5580
 20
11.2150
 30
0.0000
 41
1.0000
 42
1.0000
 43
1.0000
 50
90.0000
  0
INSERT
  8
31
  2
RECT
 10
19.5580
 20
12.9150
 30
0.0000
 41
1.0000
 42
1.0000
 43
1.0000
 50
90.0000
  0
INSERT
  8
31
  2
RECT
 10
21.2090
 20
11.4150
 30
0.0000
 41
0.7000
 42
0.9000
 43
1.0000
 50
90.0000
  0
INSERT
  8
31
  2
RECT
 10
21.2090
 20
12.7150
 30
0.0000
 41
0.7000
 42
0.9000
 43
1.0000
 50
90.0000
  0
INSERT
  8
31
  2
RECT
 10
14.0820
 20
22.4790
 30
0.0000
 41
0.7000
 42
0.9000
 43
1.0000
 50
0.0000
  0
INSERT
  8
31
  2
RECT
 10
15.3820
 20
22.4790
 30
0.0000
 41
0.7000
 42
0.9000
 43
1.0000
 50
0.0000
  0
INSERT
  8
31
  2
RECT
 10
16.8760
 20
17.9070
 30
0.0000
 41
0.7000
 42
0.9000
 43
1.0000
 50
0.0000
  0
INSERT
  8
31
  2
RECT
 10
18.1760
 20
17.9070
 30
0.0000
 41
0.7000
 42
0.9000
 43
1.0000
 50
0.0000
  0
INSERT
  8
31
  2
RECT
 10
29.8290
 20
24.7040
 30
0.0000
 41
0.8000
 42
0.9000
 43
1.0000
 50
90.0000
  0
INSERT
  8
31
  2
RECT
 10
29.8290
 20
26.6040
 30
0.0000
 41
0.8000
 42
0.9000
 43
1.0000
 50
90.0000
  0
INSERT
  8
31
  2
RECT
 10
27.7290
 20
25.6540
 30
0.0000
 41
0.8000
 42
0.9000
 43
1.0000
 50
90.0000
  0
INSERT
  8
31
  2
RECT
 10
29.8290
 20
20.6400
 30
0.0000
 41
0.8000
 42
0.9000
 43
1.0000
 50
90.0000
  0
INSERT
  8
31
  2
RECT
 10
29.8290
 20
22.5400
 30
0.0000
 41
0.8000
 42
0.9000
 43
1.0000
 50
90.0000
  0
INSERT
  8
31
  2
RECT
 10
27.7290
 20
21.5900
 30
0.0000
 41
0.8000
 42
0.9000
 43
1.0000
 50
90.0000
  0
INSERT
  8
31
  2
RECT
 10
12.4620
 20
13.6500
 30
0.0000
 41
0.8000
 42
0.9000
 43
1.0000
 50
270.0000
  0
INSERT
  8
31
  2
RECT
 10
12.4620
 20
11.7500
 30
0.0000
 41
0.8000
 42
0.9000
 43
1.0000
 50
270.0000
  0
INSERT
  8
31
  2
RECT
 10
14.5620
 20
12.7000
 30
0.0000
 41
0.8000
 42
0.9000
 43
1.0000
 50
270.0000
  0
INSERT
  8
31
  2
RECT
 10
12.4620
 20
16.6980
 30
0.0000
 41
0.8000
 42
0.9000
 43
1.0000
 50
270.0000
  0
INSERT
  8
31
  2
RECT
 10
12.4620
 20
14.7980
 30
0.0000
 41
0.8000
 42
0.9000
 43
1.0000
 50
270.0000
  0
INSERT
  8
31
  2
RECT
 10
14.5620
 20
15.7480
 30
0.0000
 41
0.8000
 42
0.9000
 43
1.0000
 50
270.0000
  0
INSERT
  8
31
  2
RECT
 10
31.2420
 20
22.2400
 30
0.0000
 41
0.7000
 42
0.9000
 43
1.0000
 50
270.0000
  0
INSERT
  8
31
  2
RECT
 10
31.2420
 20
20.9400
 30
0.0000
 41
0.7000
 42
0.9000
 43
1.0000
 50
270.0000
  0
INSERT
  8
31
  2
RECT
 10
31.2420
 20
25.0040
 30
0.0000
 41
0.7000
 42
0.9000
 43
1.0000
 50
90.0000
  0
INSERT
  8
31
  2
RECT
 10
31.2420
 20
26.3040
 30
0.0000
 41
0.7000
 42
0.9000
 43
1.0000
 50
90.0000
  0
INSERT
  8
31
  2
RECT
 10
22.4790
 20
12.7150
 30
0.0000
 41
0.7000
 42
0.9000
 43
1.0000
 50
270.0000
  0
INSERT
  8
31
  2
RECT
 10
22.4790
 20
11.4150
 30
0.0000
 41
0.7000
 42
0.9000
 43
1.0000
 50
270.0000
  0
INSERT
  8
31
  2
RECT
 10
18.0340
 20
20.7160
 30
0.0000
 41
0.7000
 42
0.9000
 43
1.0000
 50
270.0000
  0
INSERT
  8
31
  2
RECT
 10
18.0340
 20
19.4160
 30
0.0000
 41
0.7000
 42
0.9000
 43
1.0000
 50
270.0000
  0
INSERT
  8
31
  2
RECT
 10
19.1770
 20
20.7160
 30
0.0000
 41
0.7000
 42
0.9000
 43
1.0000
 50
270.0000
  0
INSERT
  8
31
  2
RECT
 10
19.1770
 20
19.4160
 30
0.0000
 41
0.7000
 42
0.9000
 43
1.0000
 50
270.0000
  0
INSERT
  8
31
  2
RECT
 10
12.5730
 20
24.1450
 30
0.0000
 41
0.7000
 42
0.9000
 43
1.0000
 50
270.0000
  0
INSERT
  8
31
  2
RECT
 10
12.5730
 20
22.8450
 30
0.0000
 41
0.7000
 42
0.9000
 43
1.0000
 50
270.0000
  0
INSERT
  8
31
  2
RECT
 10
15.1280
 20
17.9070
 30
0.0000
 41
0.7000
 42
0.9000
 43
1.0000
 50
180.0000
  0
INSERT
  8
31
  2
RECT
 10
13.8280
 20
17.9070
 30
0.0000
 41
0.7000
 42
0.9000
 43
1.0000
 50
180.0000
  0
INSERT
  8
31
  2
RECT
 10
12.8270
 20
20.7160
 30
0.0000
 41
0.7000
 42
0.9000
 43
1.0000
 50
270.0000
  0
INSERT
  8
31
  2
RECT
 10
12.8270
 20
19.4160
 30
0.0000
 41
0.7000
 42
0.9000
 43
1.0000
 50
270.0000
  0
INSERT
  8
31
  2
RECT
 10
13.9700
 20
20.7160
 30
0.0000
 41
0.7000
 42
0.9000
 43
1.0000
 50
270.0000
  0
INSERT
  8
31
  2
RECT
 10
13.9700
 20
19.4160
 30
0.0000
 41
0.7000
 42
0.9000
 43
1.0000
 50
270.0000
  0
INSERT
  8
31
  2
RECT
 10
24.5500
 20
26.6700
 30
0.0000
 41
1.0000
 42
1.0000
 43
1.0000
 50
0.0000
  0
INSERT
  8
31
  2
RECT
 10
26.2500
 20
26.6700
 30
0.0000
 41
1.0000
 42
1.0000
 43
1.0000
 50
0.0000
  0
INSERT
  8
31
  2
RECT
 10
24.5500
 20
24.6380
 30
0.0000
 41
1.0000
 42
1.0000
 43
1.0000
 50
0.0000
  0
INSERT
  8
31
  2
RECT
 10
26.2500
 20
24.6380
 30
0.0000
 41
1.0000
 42
1.0000
 43
1.0000
 50
0.0000
  0
INSERT
  8
31
  2
RECT
 10
24.5500
 20
20.5740
 30
0.0000
 41
1.0000
 42
1.0000
 43
1.0000
 50
0.0000
  0
INSERT
  8
31
  2
RECT
 10
26.2500
 20
20.5740
 30
0.0000
 41
1.0000
 42
1.0000
 43
1.0000
 50
0.0000
  0
INSERT
  8
31
  2
RECT
 10
24.5500
 20
22.6060
 30
0.0000
 41
1.0000
 42
1.0000
 43
1.0000
 50
0.0000
  0
INSERT
  8
31
  2
RECT
 10
26.2500
 20
22.6060
 30
0.0000
 41
1.0000
 42
1.0000
 43
1.0000
 50
0.0000
  0
INSERT
  8
31
  2
RECT
 10
17.0120
 20
26.5430
 30
0.0000
 41
0.6000
 42
1.2000
 43
1.0000
 50
270.0000
  0
INSERT
  8
31
  2
RECT
 10
17.0120
 20
25.2730
 30
0.0000
 41
0.6000
 42
1.2000
 43
1.0000
 50
270.0000
  0
INSERT
  8
31
  2
RECT
 10
17.0120
 20
24.0030
 30
0.0000
 41
0.6000
 42
1.2000
 43
1.0000
 50
270.0000
  0
INSERT
  8
31
  2
RECT
 10
17.0120
 20
22.7330
 30
0.0000
 41
0.6000
 42
1.2000
 43
1.0000
 50
270.0000
  0
INSERT
  8
31
  2
RECT
 10
22.6120
 20
22.7330
 30
0.0000
 41
0.6000
 42
1.2000
 43
1.0000
 50
270.0000
  0
INSERT
  8
31
  2
RECT
 10
22.6120
 20
24.0030
 30
0.0000
 41
0.6000
 42
1.2000
 43
1.0000
 50
270.0000
  0
INSERT
  8
31
  2
RECT
 10
22.6120
 20
25.2730
 30
0.0000
 41
0.6000
 42
1.2000
 43
1.0000
 50
270.0000
  0
INSERT
  8
31
  2
RECT
 10
22.6120
 20
26.5430
 30
0.0000
 41
0.6000
 42
1.2000
 43
1.0000
 50
270.0000
  0
INSERT
  8
31
  2
RECT
 10
23.7490
 20
11.2220
 30
0.0000
 41
0.5000
 42
1.0000
 43
1.0000
 50
0.0000
  0
INSERT
  8
31
  2
RECT
 10
25.0190
 20
11.2220
 30
0.0000
 41
0.5000
 42
1.0000
 43
1.0000
 50
0.0000
  0
INSERT
  8
31
  2
RECT
 10
26.2890
 20
11.2220
 30
0.0000
 41
0.5000
 42
1.0000
 43
1.0000
 50
0.0000
  0
INSERT
  8
31
  2
RECT
 10
27.5590
 20
11.2220
 30
0.0000
 41
0.5000
 42
1.0000
 43
1.0000
 50
0.0000
  0
INSERT
  8
31
  2
RECT
 10
28.8290
 20
11.2220
 30
0.0000
 41
0.5000
 42
1.0000
 43
1.0000
 50
0.0000
  0
INSERT
  8
31
  2
RECT
 10
30.0990
 20
11.2220
 30
0.0000
 41
0.5000
 42
1.0000
 43
1.0000
 50
0.0000
  0
INSERT
  8
31
  2
RECT
 10
31.3690
 20
11.2220
 30
0.0000
 41
0.5000
 42
1.0000
 43
1.0000
 50
0.0000
  0
INSERT
  8
31
  2
RECT
 10
31.3690
 20
16.9720
 30
0.0000
 41
0.5000
 42
1.0000
 43
1.0000
 50
0.0000
  0
INSERT
  8
31
  2
RECT
 10
30.0990
 20
16.9720
 30
0.0000
 41
0.5000
 42
1.0000
 43
1.0000
 50
0.0000
  0
INSERT
  8
31
  2
RECT
 10
28.8290
 20
16.9720
 30
0.0000
 41
0.5000
 42
1.0000
 43
1.0000
 50
0.0000
  0
INSERT
  8
31
  2
RECT
 10
27.5590
 20
16.9720
 30
0.0000
 41
0.5000
 42
1.0000
 43
1.0000
 50
0.0000
  0
INSERT
  8
31
  2
RECT
 10
26.2890
 20
16.9720
 30
0.0000
 41
0.5000
 42
1.0000
 43
1.0000
 50
0.0000
  0
INSERT
  8
31
  2
RECT
 10
25.0190
 20
16.9720
 30
0.0000
 41
0.5000
 42
1.0000
 43
1.0000
 50
0.0000
  0
INSERT
  8
31
  2
RECT
 10
23.7490
 20
16.9720
 30
0.0000
 41
0.5000
 42
1.0000
 43
1.0000
 50
0.0000
  0
INSERT
  8
31
  2
RECT
 10
16.3370
 20
19.0330
 30
0.0000
 41
0.5100
 42
0.1900
 43
1.0000
 50
180.0000
  0
INSERT
  8
31
  2
RECT
 10
16.3370
 20
19.3830
 30
0.0000
 41
0.5100
 42
0.1900
 43
1.0000
 50
180.0000
  0
INSERT
  8
31
  2
RECT
 10
16.3370
 20
19.7330
 30
0.0000
 41
0.5100
 42
0.1900
 43
1.0000
 50
180.0000
  0
INSERT
  8
31
  2
RECT
 10
16.3370
 20
20.0830
 30
0.0000
 41
0.5100
 42
0.1900
 43
1.0000
 50
180.0000
  0
INSERT
  8
31
  2
RECT
 10
15.6670
 20
20.0830
 30
0.0000
 41
0.5100
 42
0.1900
 43
1.0000
 50
180.0000
  0
INSERT
  8
31
  2
RECT
 10
15.6670
 20
19.7330
 30
0.0000
 41
0.5100
 42
0.1900
 43
1.0000
 50
180.0000
  0
INSERT
  8
31
  2
RECT
 10
15.6670
 20
19.3830
 30
0.0000
 41
0.5100
 42
0.1900
 43
1.0000
 50
180.0000
  0
INSERT
  8
31
  2
RECT
 10
15.6670
 20
19.0330
 30
0.0000
 41
0.5100
 42
0.1900
 43
1.0000
 50
180.0000
  0
INSERT
  8
31
  2
RECT
 10
15.0670
 20
23.6050
 30
0.0000
 41
0.5100
 42
0.1900
 43
1.0000
 50
180.0000
  0
INSERT
  8
31
  2
RECT
 10
15.0670
 20
23.9550
 30
0.0000
 41
0.5100
 42
0.1900
 43
1.0000
 50
180.0000
  0
INSERT
  8
31
  2
RECT
 10
15.0670
 20
24.3050
 30
0.0000
 41
0.5100
 42
0.1900
 43
1.0000
 50
180.0000
  0
INSERT
  8
31
  2
RECT
 10
15.0670
 20
24.6550
 30
0.0000
 41
0.5100
 42
0.1900
 43
1.0000
 50
180.0000
  0
INSERT
  8
31
  2
RECT
 10
14.3970
 20
24.6550
 30
0.0000
 41
0.5100
 42
0.1900
 43
1.0000
 50
180.0000
  0
INSERT
  8
31
  2
RECT
 10
14.3970
 20
24.3050
 30
0.0000
 41
0.5100
 42
0.1900
 43
1.0000
 50
180.0000
  0
INSERT
  8
31
  2
RECT
 10
14.3970
 20
23.9550
 30
0.0000
 41
0.5100
 42
0.1900
 43
1.0000
 50
180.0000
  0
INSERT
  8
31
  2
RECT
 10
14.3970
 20
23.6050
 30
0.0000
 41
0.5100
 42
0.1900
 43
1.0000
 50
180.0000
  0
INSERT
  8
31
  2
RECT
 10
21.5240
 20
14.4630
 30
0.0000
 41
0.3500
 42
0.8000
 43
1.0000
 50
90.0000
  0
INSERT
  8
31
  2
RECT
 10
21.5240
 20
15.1130
 30
0.0000
 41
0.3500
 42
0.8000
 43
1.0000
 50
90.0000
  0
INSERT
  8
31
  2
RECT
 10
21.5240
 20
15.7630
 30
0.0000
 41
0.3500
 42
0.8000
 43
1.0000
 50
90.0000
  0
INSERT
  8
31
  2
RECT
 10
19.6240
 20
15.7630
 30
0.0000
 41
0.3500
 42
0.8000
 43
1.0000
 50
90.0000
  0
INSERT
  8
31
  2
RECT
 10
19.6240
 20
14.4630
 30
0.0000
 41
0.3500
 42
0.8000
 43
1.0000
 50
90.0000
  0
INSERT
  8
31
  2
RECT
 10
17.7140
 20
13.4150
 30
0.0000
 41
0.5500
 42
1.0000
 43
1.0000
 50
180.0000
  0
INSERT
  8
31
  2
RECT
 10
16.7640
 20
13.4150
 30
0.0000
 41
0.5500
 42
1.0000
 43
1.0000
 50
180.0000
  0
INSERT
  8
31
  2
RECT
 10
15.8140
 20
13.4150
 30
0.0000
 41
0.5500
 42
1.0000
 43
1.0000
 50
180.0000
  0
INSERT
  8
31
  2
RECT
 10
15.8140
 20
10.7150
 30
0.0000
 41
0.5500
 42
1.0000
 43
1.0000
 50
180.0000
  0
INSERT
  8
31
  2
RECT
 10
17.7140
 20
10.7150
 30
0.0000
 41
0.5500
 42
1.0000
 43
1.0000
 50
180.0000
  0
ENDSEC
  0
EOF
