  0
SECTION
  2
HEADER
  9
$ACADVER
  1
AC1009
  9
$MEASUREMENT
 70
     1
  0
ENDSEC
  0
SECTION
  2
ENTITIES
  0
LWPOLYLINE
  8
0
 62
7
 90
9
 70
1
 10
16.412437
 20
14.986000
 10
16.412437
 20
15.484438
 10
15.415563
 20
15.484438
 10
15.415563
 20
14.487563
 10
16.412437
 20
14.487563
 10
16.412437
 20
15.484438
 10
15.415563
 20
15.484438
 10
15.415563
 20
14.487563
 10
16.412437
 20
14.487563
  0
LWPOLYLINE
  8
0
 62
7
 90
9
 70
1
 10
18.112438
 20
14.986000
 10
18.112438
 20
15.484438
 10
17.115562
 20
15.484438
 10
17.115562
 20
14.487563
 10
18.112438
 20
14.487563
 10
18.112438
 20
15.484438
 10
17.115562
 20
15.484438
 10
17.115562
 20
14.487563
 10
18.112438
 20
14.487563
  0
LWPOLYLINE
  8
0
 62
7
 90
9
 70
1
 10
19.558000
 20
11.713437
 10
19.059562
 20
11.713437
 10
19.059562
 20
10.716563
 10
20.056438
 20
10.716563
 10
20.056438
 20
11.713437
 10
19.059562
 20
11.713437
 10
19.059562
 20
10.716563
 10
20.056438
 20
10.716563
 10
20.056438
 20
11.713437
  0
LWPOLYLINE
  8
0
 62
7
 90
9
 70
1
 10
19.558000
 20
13.413437
 10
19.059562
 20
13.413437
 10
19.059562
 20
12.416562
 10
20.056438
 20
12.416562
 10
20.056438
 20
13.413437
 10
19.059562
 20
13.413437
 10
19.059562
 20
12.416562
 10
20.056438
 20
12.416562
 10
20.056438
 20
13.413437
  0
LWPOLYLINE
  8
0
 62
7
 90
9
 70
1
 10
21.209000
 20
11.763437
 10
20.760562
 20
11.763437
 10
20.760562
 20
11.066562
 10
21.657438
 20
11.066562
 10
21.657438
 20
11.763437
 10
20.760562
 20
11.763437
 10
20.760562
 20
11.066562
 10
21.657438
 20
11.066562
 10
21.657438
 20
11.763437
  0
LWPOLYLINE
  8
0
 62
7
 90
9
 70
1
 10
21.209000
 20
13.063437
 10
20.760562
 20
13.063437
 10
20.760562
 20
12.366563
 10
21.657438
 20
12.366563
 10
21.657438
 20
13.063437
 10
20.760562
 20
13.063437
 10
20.760562
 20
12.366563
 10
21.657438
 20
12.366563
 10
21.657438
 20
13.063437
  0
LWPOLYLINE
  8
0
 62
7
 90
9
 70
1
 10
14.430438
 20
22.479000
 10
14.430438
 20
22.927437
 10
13.733563
 20
22.927437
 10
13.733563
 20
22.030562
 10
14.430438
 20
22.030562
 10
14.430438
 20
22.927437
 10
13.733563
 20
22.927437
 10
13.733563
 20
22.030562
 10
14.430438
 20
22.030562
  0
LWPOLYLINE
  8
0
 62
7
 90
9
 70
1
 10
15.730437
 20
22.479000
 10
15.730437
 20
22.927437
 10
15.033563
 20
22.927437
 10
15.033563
 20
22.030562
 10
15.730437
 20
22.030562
 10
15.730437
 20
22.927437
 10
15.033563
 20
22.927437
 10
15.033563
 20
22.030562
 10
15.730437
 20
22.030562
  0
LWPOLYLINE
  8
0
 62
7
 90
9
 70
1
 10
17.224438
 20
17.907000
 10
17.224438
 20
18.355438
 10
16.527563
 20
18.355438
 10
16.527563
 20
17.458562
 10
17.224438
 20
17.458562
 10
17.224438
 20
18.355438
 10
16.527563
 20
18.355438
 10
16.527563
 20
17.458562
 10
17.224438
 20
17.458562
  0
LWPOLYLINE
  8
0
 62
7
 90
9
 70
1
 10
18.524437
 20
17.907000
 10
18.524437
 20
18.355438
 10
17.827562
 20
18.355438
 10
17.827562
 20
17.458562
 10
18.524437
 20
17.458562
 10
18.524437
 20
18.355438
 10
17.827562
 20
18.355438
 10
17.827562
 20
17.458562
 10
18.524437
 20
17.458562
  0
LWPOLYLINE
  8
0
 62
7
 90
9
 70
1
 10
29.829000
 20
25.102438
 10
29.380562
 20
25.102438
 10
29.380562
 20
24.305563
 10
30.277438
 20
24.305563
 10
30.277438
 20
25.102438
 10
29.380562
 20
25.102438
 10
29.380562
 20
24.305563
 10
30.277438
 20
24.305563
 10
30.277438
 20
25.102438
  0
LWPOLYLINE
  8
0
 62
7
 90
9
 70
1
 10
29.829000
 20
27.002437
 10
29.380562
 20
27.002437
 10
29.380562
 20
26.205562
 10
30.277438
 20
26.205562
 10
30.277438
 20
27.002437
 10
29.380562
 20
27.002437
 10
29.380562
 20
26.205562
 10
30.277438
 20
26.205562
 10
30.277438
 20
27.002437
  0
LWPOLYLINE
  8
0
 62
7
 90
9
 70
1
 10
27.729000
 20
26.052437
 10
27.280562
 20
26.052437
 10
27.280562
 20
25.255562
 10
28.177437
 20
25.255562
 10
28.177437
 20
26.052437
 10
27.280562
 20
26.052437
 10
27.280562
 20
25.255562
 10
28.177437
 20
25.255562
 10
28.177437
 20
26.052437
  0
LWPOLYLINE
  8
0
 62
7
 90
9
 70
1
 10
29.829000
 20
21.038438
 10
29.380562
 20
21.038438
 10
29.380562
 20
20.241563
 10
30.277438
 20
20.241563
 10
30.277438
 20
21.038438
 10
29.380562
 20
21.038438
 10
29.380562
 20
20.241563
 10
30.277438
 20
20.241563
 10
30.277438
 20
21.038438
  0
LWPOLYLINE
  8
0
 62
7
 90
9
 70
1
 10
29.829000
 20
22.938437
 10
29.380562
 20
22.938437
 10
29.380562
 20
22.141562
 10
30.277438
 20
22.141562
 10
30.277438
 20
22.938437
 10
29.380562
 20
22.938437
 10
29.380562
 20
22.141562
 10
30.277438
 20
22.141562
 10
30.277438
 20
22.938437
  0
LWPOLYLINE
  8
0
 62
7
 90
9
 70
1
 10
27.729000
 20
21.988437
 10
27.280562
 20
21.988437
 10
27.280562
 20
21.191562
 10
28.177437
 20
21.191562
 10
28.177437
 20
21.988437
 10
27.280562
 20
21.988437
 10
27.280562
 20
21.191562
 10
28.177437
 20
21.191562
 10
28.177437
 20
21.988437
  0
LWPOLYLINE
  8
0
 62
7
 90
9
 70
1
 10
12.462000
 20
13.251563
 10
12.910438
 20
13.251563
 10
12.910438
 20
14.048438
 10
12.013562
 20
14.048438
 10
12.013562
 20
13.251563
 10
12.910438
 20
13.251563
 10
12.910438
 20
14.048438
 10
12.013562
 20
14.048438
 10
12.013562
 20
13.251563
  0
LWPOLYLINE
  8
0
 62
7
 90
9
 70
1
 10
12.462000
 20
11.351563
 10
12.910438
 20
11.351563
 10
12.910438
 20
12.148438
 10
12.013562
 20
12.148438
 10
12.013562
 20
11.351563
 10
12.910438
 20
11.351563
 10
12.910438
 20
12.148438
 10
12.013562
 20
12.148438
 10
12.013562
 20
11.351563
  0
LWPOLYLINE
  8
0
 62
7
 90
9
 70
1
 10
14.562000
 20
12.301562
 10
15.010438
 20
12.301562
 10
15.010438
 20
13.098437
 10
14.113562
 20
13.098437
 10
14.113562
 20
12.301562
 10
15.010438
 20
12.301562
 10
15.010438
 20
13.098437
 10
14.113562
 20
13.098437
 10
14.113562
 20
12.301562
  0
LWPOLYLINE
  8
0
 62
7
 90
9
 70
1
 10
12.462000
 20
16.299563
 10
12.910438
 20
16.299563
 10
12.910438
 20
17.096438
 10
12.013562
 20
17.096438
 10
12.013562
 20
16.299563
 10
12.910438
 20
16.299563
 10
12.910438
 20
17.096438
 10
12.013562
 20
17.096438
 10
12.013562
 20
16.299563
  0
LWPOLYLINE
  8
0
 62
7
 90
9
 70
1
 10
12.462000
 20
14.399563
 10
12.910438
 20
14.399563
 10
12.910438
 20
15.196438
 10
12.013562
 20
15.196438
 10
12.013562
 20
14.399563
 10
12.910438
 20
14.399563
 10
12.910438
 20
15.196438
 10
12.013562
 20
15.196438
 10
12.013562
 20
14.399563
  0
LWPOLYLINE
  8
0
 62
7
 90
9
 70
1
 10
14.562000
 20
15.349562
 10
15.010438
 20
15.349562
 10
15.010438
 20
16.146437
 10
14.113562
 20
16.146437
 10
14.113562
 20
15.349562
 10
15.010438
 20
15.349562
 10
15.010438
 20
16.146437
 10
14.113562
 20
16.146437
 10
14.113562
 20
15.349562
  0
LWPOLYLINE
  8
0
 62
7
 90
9
 70
1
 10
31.242000
 20
21.891562
 10
31.690438
 20
21.891562
 10
31.690438
 20
22.588437
 10
30.793563
 20
22.588437
 10
30.793563
 20
21.891562
 10
31.690438
 20
21.891562
 10
31.690438
 20
22.588437
 10
30.793563
 20
22.588437
 10
30.793563
 20
21.891562
  0
LWPOLYLINE
  8
0
 62
7
 90
9
 70
1
 10
31.242000
 20
20.591563
 10
31.690438
 20
20.591563
 10
31.690438
 20
21.288438
 10
30.793563
 20
21.288438
 10
30.793563
 20
20.591563
 10
31.690438
 20
20.591563
 10
31.690438
 20
21.288438
 10
30.793563
 20
21.288438
 10
30.793563
 20
20.591563
  0
LWPOLYLINE
  8
0
 62
7
 90
9
 70
1
 10
31.242000
 20
25.352438
 10
30.793563
 20
25.352438
 10
30.793563
 20
24.655563
 10
31.690438
 20
24.655563
 10
31.690438
 20
25.352438
 10
30.793563
 20
25.352438
 10
30.793563
 20
24.655563
 10
31.690438
 20
24.655563
 10
31.690438
 20
25.352438
  0
LWPOLYLINE
  8
0
 62
7
 90
9
 70
1
 10
31.242000
 20
26.652437
 10
30.793563
 20
26.652437
 10
30.793563
 20
25.955562
 10
31.690438
 20
25.955562
 10
31.690438
 20
26.652437
 10
30.793563
 20
26.652437
 10
30.793563
 20
25.955562
 10
31.690438
 20
25.955562
 10
31.690438
 20
26.652437
  0
LWPOLYLINE
  8
0
 62
7
 90
9
 70
1
 10
22.479000
 20
12.366563
 10
22.927437
 20
12.366563
 10
22.927437
 20
13.063437
 10
22.030562
 20
13.063437
 10
22.030562
 20
12.366563
 10
22.927437
 20
12.366563
 10
22.927437
 20
13.063437
 10
22.030562
 20
13.063437
 10
22.030562
 20
12.366563
  0
LWPOLYLINE
  8
0
 62
7
 90
9
 70
1
 10
22.479000
 20
11.066562
 10
22.927437
 20
11.066562
 10
22.927437
 20
11.763437
 10
22.030562
 20
11.763437
 10
22.030562
 20
11.066562
 10
22.927437
 20
11.066562
 10
22.927437
 20
11.763437
 10
22.030562
 20
11.763437
 10
22.030562
 20
11.066562
  0
LWPOLYLINE
  8
0
 62
7
 90
9
 70
1
 10
18.034000
 20
20.367563
 10
18.482437
 20
20.367563
 10
18.482437
 20
21.064438
 10
17.585562
 20
21.064438
 10
17.585562
 20
20.367563
 10
18.482437
 20
20.367563
 10
18.482437
 20
21.064438
 10
17.585562
 20
21.064438
 10
17.585562
 20
20.367563
  0
LWPOLYLINE
  8
0
 62
7
 90
9
 70
1
 10
18.034000
 20
19.067563
 10
18.482437
 20
19.067563
 10
18.482437
 20
19.764437
 10
17.585562
 20
19.764437
 10
17.585562
 20
19.067563
 10
18.482437
 20
19.067563
 10
18.482437
 20
19.764437
 10
17.585562
 20
19.764437
 10
17.585562
 20
19.067563
  0
LWPOLYLINE
  8
0
 62
7
 90
9
 70
1
 10
19.177000
 20
20.367563
 10
19.625438
 20
20.367563
 10
19.625438
 20
21.064438
 10
18.728562
 20
21.064438
 10
18.728562
 20
20.367563
 10
19.625438
 20
20.367563
 10
19.625438
 20
21.064438
 10
18.728562
 20
21.064438
 10
18.728562
 20
20.367563
  0
LWPOLYLINE
  8
0
 62
7
 90
9
 70
1
 10
19.177000
 20
19.067563
 10
19.625438
 20
19.067563
 10
19.625438
 20
19.764437
 10
18.728562
 20
19.764437
 10
18.728562
 20
19.067563
 10
19.625438
 20
19.067563
 10
19.625438
 20
19.764437
 10
18.728562
 20
19.764437
 10
18.728562
 20
19.067563
  0
LWPOLYLINE
  8
0
 62
7
 90
9
 70
1
 10
12.573000
 20
23.796563
 10
13.021438
 20
23.796563
 10
13.021438
 20
24.493437
 10
12.124562
 20
24.493437
 10
12.124562
 20
23.796563
 10
13.021438
 20
23.796563
 10
13.021438
 20
24.493437
 10
12.124562
 20
24.493437
 10
12.124562
 20
23.796563
  0
LWPOLYLINE
  8
0
 62
7
 90
9
 70
1
 10
12.573000
 20
22.496562
 10
13.021438
 20
22.496562
 10
13.021438
 20
23.193437
 10
12.124562
 20
23.193437
 10
12.124562
 20
22.496562
 10
13.021438
 20
22.496562
 10
13.021438
 20
23.193437
 10
12.124562
 20
23.193437
 10
12.124562
 20
22.496562
  0
LWPOLYLINE
  8
0
 62
7
 90
9
 70
1
 10
14.779563
 20
17.907000
 10
14.779563
 20
17.458562
 10
15.476437
 20
17.458562
 10
15.476437
 20
18.355438
 10
14.779563
 20
18.355438
 10
14.779563
 20
17.458562
 10
15.476437
 20
17.458562
 10
15.476437
 20
18.355438
 10
14.779563
 20
18.355438
  0
LWPOLYLINE
  8
0
 62
7
 90
9
 70
1
 10
13.479563
 20
17.907000
 10
13.479563
 20
17.458562
 10
14.176437
 20
17.458562
 10
14.176437
 20
18.355438
 10
13.479563
 20
18.355438
 10
13.479563
 20
17.458562
 10
14.176437
 20
17.458562
 10
14.176437
 20
18.355438
 10
13.479563
 20
18.355438
  0
LWPOLYLINE
  8
0
 62
7
 90
9
 70
1
 10
12.827000
 20
20.367563
 10
13.275438
 20
20.367563
 10
13.275438
 20
21.064438
 10
12.378562
 20
21.064438
 10
12.378562
 20
20.367563
 10
13.275438
 20
20.367563
 10
13.275438
 20
21.064438
 10
12.378562
 20
21.064438
 10
12.378562
 20
20.367563
  0
LWPOLYLINE
  8
0
 62
7
 90
9
 70
1
 10
12.827000
 20
19.067563
 10
13.275438
 20
19.067563
 10
13.275438
 20
19.764437
 10
12.378562
 20
19.764437
 10
12.378562
 20
19.067563
 10
13.275438
 20
19.067563
 10
13.275438
 20
19.764437
 10
12.378562
 20
19.764437
 10
12.378562
 20
19.067563
  0
LWPOLYLINE
  8
0
 62
7
 90
9
 70
1
 10
13.970000
 20
20.367563
 10
14.418438
 20
20.367563
 10
14.418438
 20
21.064438
 10
13.521562
 20
21.064438
 10
13.521562
 20
20.367563
 10
14.418438
 20
20.367563
 10
14.418438
 20
21.064438
 10
13.521562
 20
21.064438
 10
13.521562
 20
20.367563
  0
LWPOLYLINE
  8
0
 62
7
 90
9
 70
1
 10
13.970000
 20
19.067563
 10
14.418438
 20
19.067563
 10
14.418438
 20
19.764437
 10
13.521562
 20
19.764437
 10
13.521562
 20
19.067563
 10
14.418438
 20
19.067563
 10
14.418438
 20
19.764437
 10
13.521562
 20
19.764437
 10
13.521562
 20
19.067563
  0
LWPOLYLINE
  8
0
 62
7
 90
9
 70
1
 10
25.048438
 20
26.670000
 10
25.048438
 20
27.168438
 10
24.051562
 20
27.168438
 10
24.051562
 20
26.171563
 10
25.048438
 20
26.171563
 10
25.048438
 20
27.168438
 10
24.051562
 20
27.168438
 10
24.051562
 20
26.171563
 10
25.048438
 20
26.171563
  0
LWPOLYLINE
  8
0
 62
7
 90
9
 70
1
 10
26.748438
 20
26.670000
 10
26.748438
 20
27.168438
 10
25.751562
 20
27.168438
 10
25.751562
 20
26.171563
 10
26.748438
 20
26.171563
 10
26.748438
 20
27.168438
 10
25.751562
 20
27.168438
 10
25.751562
 20
26.171563
 10
26.748438
 20
26.171563
  0
LWPOLYLINE
  8
0
 62
7
 90
9
 70
1
 10
25.048438
 20
24.638000
 10
25.048438
 20
25.136438
 10
24.051562
 20
25.136438
 10
24.051562
 20
24.139563
 10
25.048438
 20
24.139563
 10
25.048438
 20
25.136438
 10
24.051562
 20
25.136438
 10
24.051562
 20
24.139563
 10
25.048438
 20
24.139563
  0
LWPOLYLINE
  8
0
 62
7
 90
9
 70
1
 10
26.748438
 20
24.638000
 10
26.748438
 20
25.136438
 10
25.751562
 20
25.136438
 10
25.751562
 20
24.139563
 10
26.748438
 20
24.139563
 10
26.748438
 20
25.136438
 10
25.751562
 20
25.136438
 10
25.751562
 20
24.139563
 10
26.748438
 20
24.139563
  0
LWPOLYLINE
  8
0
 62
7
 90
9
 70
1
 10
25.048438
 20
20.574000
 10
25.048438
 20
21.072438
 10
24.051562
 20
21.072438
 10
24.051562
 20
20.075563
 10
25.048438
 20
20.075563
 10
25.048438
 20
21.072438
 10
24.051562
 20
21.072438
 10
24.051562
 20
20.075563
 10
25.048438
 20
20.075563
  0
LWPOLYLINE
  8
0
 62
7
 90
9
 70
1
 10
26.748438
 20
20.574000
 10
26.748438
 20
21.072438
 10
25.751562
 20
21.072438
 10
25.751562
 20
20.075563
 10
26.748438
 20
20.075563
 10
26.748438
 20
21.072438
 10
25.751562
 20
21.072438
 10
25.751562
 20
20.075563
 10
26.748438
 20
20.075563
  0
LWPOLYLINE
  8
0
 62
7
 90
9
 70
1
 10
25.048438
 20
22.606000
 10
25.048438
 20
23.104438
 10
24.051562
 20
23.104438
 10
24.051562
 20
22.107563
 10
25.048438
 20
22.107563
 10
25.048438
 20
23.104438
 10
24.051562
 20
23.104438
 10
24.051562
 20
22.107563
 10
25.048438
 20
22.107563
  0
LWPOLYLINE
  8
0
 62
7
 90
9
 70
1
 10
26.748438
 20
22.606000
 10
26.748438
 20
23.104438
 10
25.751562
 20
23.104438
 10
25.751562
 20
22.107563
 10
26.748438
 20
22.107563
 10
26.748438
 20
23.104438
 10
25.751562
 20
23.104438
 10
25.751562
 20
22.107563
 10
26.748438
 20
22.107563
  0
LWPOLYLINE
  8
0
 62
7
 90
9
 70
1
 10
17.012000
 20
26.244563
 10
17.610437
 20
26.244563
 10
17.610437
 20
26.841437
 10
16.413563
 20
26.841437
 10
16.413563
 20
26.244563
 10
17.610437
 20
26.244563
 10
17.610437
 20
26.841437
 10
16.413563
 20
26.841437
 10
16.413563
 20
26.244563
  0
LWPOLYLINE
  8
0
 62
7
 90
9
 70
1
 10
17.012000
 20
24.974563
 10
17.610437
 20
24.974563
 10
17.610437
 20
25.571437
 10
16.413563
 20
25.571437
 10
16.413563
 20
24.974563
 10
17.610437
 20
24.974563
 10
17.610437
 20
25.571437
 10
16.413563
 20
25.571437
 10
16.413563
 20
24.974563
  0
LWPOLYLINE
  8
0
 62
7
 90
9
 70
1
 10
17.012000
 20
23.704563
 10
17.610437
 20
23.704563
 10
17.610437
 20
24.301437
 10
16.413563
 20
24.301437
 10
16.413563
 20
23.704563
 10
17.610437
 20
23.704563
 10
17.610437
 20
24.301437
 10
16.413563
 20
24.301437
 10
16.413563
 20
23.704563
  0
LWPOLYLINE
  8
0
 62
7
 90
9
 70
1
 10
17.012000
 20
22.434563
 10
17.610437
 20
22.434563
 10
17.610437
 20
23.031437
 10
16.413563
 20
23.031437
 10
16.413563
 20
22.434563
 10
17.610437
 20
22.434563
 10
17.610437
 20
23.031437
 10
16.413563
 20
23.031437
 10
16.413563
 20
22.434563
  0
LWPOLYLINE
  8
0
 62
7
 90
9
 70
1
 10
22.612000
 20
22.434563
 10
23.210437
 20
22.434563
 10
23.210437
 20
23.031437
 10
22.013562
 20
23.031437
 10
22.013562
 20
22.434563
 10
23.210437
 20
22.434563
 10
23.210437
 20
23.031437
 10
22.013562
 20
23.031437
 10
22.013562
 20
22.434563
  0
LWPOLYLINE
  8
0
 62
7
 90
9
 70
1
 10
22.612000
 20
23.704563
 10
23.210437
 20
23.704563
 10
23.210437
 20
24.301437
 10
22.013562
 20
24.301437
 10
22.013562
 20
23.704563
 10
23.210437
 20
23.704563
 10
23.210437
 20
24.301437
 10
22.013562
 20
24.301437
 10
22.013562
 20
23.704563
  0
LWPOLYLINE
  8
0
 62
7
 90
9
 70
1
 10
22.612000
 20
24.974563
 10
23.210437
 20
24.974563
 10
23.210437
 20
25.571437
 10
22.013562
 20
25.571437
 10
22.013562
 20
24.974563
 10
23.210437
 20
24.974563
 10
23.210437
 20
25.571437
 10
22.013562
 20
25.571437
 10
22.013562
 20
24.974563
  0
LWPOLYLINE
  8
0
 62
7
 90
9
 70
1
 10
22.612000
 20
26.244563
 10
23.210437
 20
26.244563
 10
23.210437
 20
26.841437
 10
22.013562
 20
26.841437
 10
22.013562
 20
26.244563
 10
23.210437
 20
26.244563
 10
23.210437
 20
26.841437
 10
22.013562
 20
26.841437
 10
22.013562
 20
26.244563
  0
LWPOLYLINE
  8
0
 62
7
 90
9
 70
1
 10
23.997438
 20
11.222000
 10
23.997438
 20
11.720437
 10
23.500562
 20
11.720437
 10
23.500562
 20
10.723562
 10
23.997438
 20
10.723562
 10
23.997438
 20
11.720437
 10
23.500562
 20
11.720437
 10
23.500562
 20
10.723562
 10
23.997438
 20
10.723562
  0
LWPOLYLINE
  8
0
 62
7
 90
9
 70
1
 10
25.267437
 20
11.222000
 10
25.267437
 20
11.720437
 10
24.770562
 20
11.720437
 10
24.770562
 20
10.723562
 10
25.267437
 20
10.723562
 10
25.267437
 20
11.720437
 10
24.770562
 20
11.720437
 10
24.770562
 20
10.723562
 10
25.267437
 20
10.723562
  0
LWPOLYLINE
  8
0
 62
7
 90
9
 70
1
 10
26.537438
 20
11.222000
 10
26.537438
 20
11.720437
 10
26.040563
 20
11.720437
 10
26.040563
 20
10.723562
 10
26.537438
 20
10.723562
 10
26.537438
 20
11.720437
 10
26.040563
 20
11.720437
 10
26.040563
 20
10.723562
 10
26.537438
 20
10.723562
  0
LWPOLYLINE
  8
0
 62
7
 90
9
 70
1
 10
27.807438
 20
11.222000
 10
27.807438
 20
11.720437
 10
27.310562
 20
11.720437
 10
27.310562
 20
10.723562
 10
27.807438
 20
10.723562
 10
27.807438
 20
11.720437
 10
27.310562
 20
11.720437
 10
27.310562
 20
10.723562
 10
27.807438
 20
10.723562
  0
LWPOLYLINE
  8
0
 62
7
 90
9
 70
1
 10
29.077438
 20
11.222000
 10
29.077438
 20
11.720437
 10
28.580562
 20
11.720437
 10
28.580562
 20
10.723562
 10
29.077438
 20
10.723562
 10
29.077438
 20
11.720437
 10
28.580562
 20
11.720437
 10
28.580562
 20
10.723562
 10
29.077438
 20
10.723562
  0
LWPOLYLINE
  8
0
 62
7
 90
9
 70
1
 10
30.347438
 20
11.222000
 10
30.347438
 20
11.720437
 10
29.850562
 20
11.720437
 10
29.850562
 20
10.723562
 10
30.347438
 20
10.723562
 10
30.347438
 20
11.720437
 10
29.850562
 20
11.720437
 10
29.850562
 20
10.723562
 10
30.347438
 20
10.723562
  0
LWPOLYLINE
  8
0
 62
7
 90
9
 70
1
 10
31.617438
 20
11.222000
 10
31.617438
 20
11.720437
 10
31.120562
 20
11.720437
 10
31.120562
 20
10.723562
 10
31.617438
 20
10.723562
 10
31.617438
 20
11.720437
 10
31.120562
 20
11.720437
 10
31.120562
 20
10.723562
 10
31.617438
 20
10.723562
  0
LWPOLYLINE
  8
0
 62
7
 90
9
 70
1
 10
31.617438
 20
16.972000
 10
31.617438
 20
17.470438
 10
31.120562
 20
17.470438
 10
31.120562
 20
16.473562
 10
31.617438
 20
16.473562
 10
31.617438
 20
17.470438
 10
31.120562
 20
17.470438
 10
31.120562
 20
16.473562
 10
31.617438
 20
16.473562
  0
LWPOLYLINE
  8
0
 62
7
 90
9
 70
1
 10
30.347438
 20
16.972000
 10
30.347438
 20
17.470438
 10
29.850562
 20
17.470438
 10
29.850562
 20
16.473562
 10
30.347438
 20
16.473562
 10
30.347438
 20
17.470438
 10
29.850562
 20
17.470438
 10
29.850562
 20
16.473562
 10
30.347438
 20
16.473562
  0
LWPOLYLINE
  8
0
 62
7
 90
9
 70
1
 10
29.077438
 20
16.972000
 10
29.077438
 20
17.470438
 10
28.580562
 20
17.470438
 10
28.580562
 20
16.473562
 10
29.077438
 20
16.473562
 10
29.077438
 20
17.470438
 10
28.580562
 20
17.470438
 10
28.580562
 20
16.473562
 10
29.077438
 20
16.473562
  0
LWPOLYLINE
  8
0
 62
7
 90
9
 70
1
 10
27.807438
 20
16.972000
 10
27.807438
 20
17.470438
 10
27.310562
 20
17.470438
 10
27.310562
 20
16.473562
 10
27.807438
 20
16.473562
 10
27.807438
 20
17.470438
 10
27.310562
 20
17.470438
 10
27.310562
 20
16.473562
 10
27.807438
 20
16.473562
  0
LWPOLYLINE
  8
0
 62
7
 90
9
 70
1
 10
26.537438
 20
16.972000
 10
26.537438
 20
17.470438
 10
26.040563
 20
17.470438
 10
26.040563
 20
16.473562
 10
26.537438
 20
16.473562
 10
26.537438
 20
17.470438
 10
26.040563
 20
17.470438
 10
26.040563
 20
16.473562
 10
26.537438
 20
16.473562
  0
LWPOLYLINE
  8
0
 62
7
 90
9
 70
1
 10
25.267437
 20
16.972000
 10
25.267437
 20
17.470438
 10
24.770562
 20
17.470438
 10
24.770562
 20
16.473562
 10
25.267437
 20
16.473562
 10
25.267437
 20
17.470438
 10
24.770562
 20
17.470438
 10
24.770562
 20
16.473562
 10
25.267437
 20
16.473562
  0
LWPOLYLINE
  8
0
 62
7
 90
9
 70
1
 10
23.997438
 20
16.972000
 10
23.997438
 20
17.470438
 10
23.500562
 20
17.470438
 10
23.500562
 20
16.473562
 10
23.997438
 20
16.473562
 10
23.997438
 20
17.470438
 10
23.500562
 20
17.470438
 10
23.500562
 20
16.473562
 10
23.997438
 20
16.473562
  0
LWPOLYLINE
  8
0
 62
7
 90
9
 70
1
 10
16.083562
 20
19.033000
 10
16.083562
 20
18.939563
 10
16.590438
 20
18.939563
 10
16.590438
 20
19.126438
 10
16.083562
 20
19.126438
 10
16.083562
 20
18.939563
 10
16.590438
 20
18.939563
 10
16.590438
 20
19.126438
 10
16.083562
 20
19.126438
  0
LWPOLYLINE
  8
0
 62
7
 90
9
 70
1
 10
16.083562
 20
19.383000
 10
16.083562
 20
19.289562
 10
16.590438
 20
19.289562
 10
16.590438
 20
19.476437
 10
16.083562
 20
19.476437
 10
16.083562
 20
19.289562
 10
16.590438
 20
19.289562
 10
16.590438
 20
19.476437
 10
16.083562
 20
19.476437
  0
LWPOLYLINE
  8
0
 62
7
 90
9
 70
1
 10
16.083562
 20
19.733000
 10
16.083562
 20
19.639563
 10
16.590438
 20
19.639563
 10
16.590438
 20
19.826438
 10
16.083562
 20
19.826438
 10
16.083562
 20
19.639563
 10
16.590438
 20
19.639563
 10
16.590438
 20
19.826438
 10
16.083562
 20
19.826438
  0
LWPOLYLINE
  8
0
 62
7
 90
9
 70
1
 10
16.083562
 20
20.083000
 10
16.083562
 20
19.989562
 10
16.590438
 20
19.989562
 10
16.590438
 20
20.176437
 10
16.083562
 20
20.176437
 10
16.083562
 20
19.989562
 10
16.590438
 20
19.989562
 10
16.590438
 20
20.176437
 10
16.083562
 20
20.176437
  0
LWPOLYLINE
  8
0
 62
7
 90
9
 70
1
 10
15.413562
 20
20.083000
 10
15.413562
 20
19.989562
 10
15.920438
 20
19.989562
 10
15.920438
 20
20.176437
 10
15.413562
 20
20.176437
 10
15.413562
 20
19.989562
 10
15.920438
 20
19.989562
 10
15.920438
 20
20.176437
 10
15.413562
 20
20.176437
  0
LWPOLYLINE
  8
0
 62
7
 90
9
 70
1
 10
15.413562
 20
19.733000
 10
15.413562
 20
19.639563
 10
15.920438
 20
19.639563
 10
15.920438
 20
19.826438
 10
15.413562
 20
19.826438
 10
15.413562
 20
19.639563
 10
15.920438
 20
19.639563
 10
15.920438
 20
19.826438
 10
15.413562
 20
19.826438
  0
LWPOLYLINE
  8
0
 62
7
 90
9
 70
1
 10
15.413562
 20
19.383000
 10
15.413562
 20
19.289562
 10
15.920438
 20
19.289562
 10
15.920438
 20
19.476437
 10
15.413562
 20
19.476437
 10
15.413562
 20
19.289562
 10
15.920438
 20
19.289562
 10
15.920438
 20
19.476437
 10
15.413562
 20
19.476437
  0
LWPOLYLINE
  8
0
 62
7
 90
9
 70
1
 10
15.413562
 20
19.033000
 10
15.413562
 20
18.939563
 10
15.920438
 20
18.939563
 10
15.920438
 20
19.126438
 10
15.413562
 20
19.126438
 10
15.413562
 20
18.939563
 10
15.920438
 20
18.939563
 10
15.920438
 20
19.126438
 10
15.413562
 20
19.126438
  0
LWPOLYLINE
  8
0
 62
7
 90
9
 70
1
 10
14.813562
 20
23.605000
 10
14.813562
 20
23.511563
 10
15.320438
 20
23.511563
 10
15.320438
 20
23.698438
 10
14.813562
 20
23.698438
 10
14.813562
 20
23.511563
 10
15.320438
 20
23.511563
 10
15.320438
 20
23.698438
 10
14.813562
 20
23.698438
  0
LWPOLYLINE
  8
0
 62
7
 90
9
 70
1
 10
14.813562
 20
23.955000
 10
14.813562
 20
23.861562
 10
15.320438
 20
23.861562
 10
15.320438
 20
24.048437
 10
14.813562
 20
24.048437
 10
14.813562
 20
23.861562
 10
15.320438
 20
23.861562
 10
15.320438
 20
24.048437
 10
14.813562
 20
24.048437
  0
LWPOLYLINE
  8
0
 62
7
 90
9
 70
1
 10
14.813562
 20
24.305000
 10
14.813562
 20
24.211562
 10
15.320438
 20
24.211562
 10
15.320438
 20
24.398438
 10
14.813562
 20
24.398438
 10
14.813562
 20
24.211562
 10
15.320438
 20
24.211562
 10
15.320438
 20
24.398438
 10
14.813562
 20
24.398438
  0
LWPOLYLINE
  8
0
 62
7
 90
9
 70
1
 10
14.813562
 20
24.655000
 10
14.813562
 20
24.561563
 10
15.320438
 20
24.561563
 10
15.320438
 20
24.748438
 10
14.813562
 20
24.748438
 10
14.813562
 20
24.561563
 10
15.320438
 20
24.561563
 10
15.320438
 20
24.748438
 10
14.813562
 20
24.748438
  0
LWPOLYLINE
  8
0
 62
7
 90
9
 70
1
 10
14.143562
 20
24.655000
 10
14.143562
 20
24.561563
 10
14.650438
 20
24.561563
 10
14.650438
 20
24.748438
 10
14.143562
 20
24.748438
 10
14.143562
 20
24.561563
 10
14.650438
 20
24.561563
 10
14.650438
 20
24.748438
 10
14.143562
 20
24.748438
  0
LWPOLYLINE
  8
0
 62
7
 90
9
 70
1
 10
14.143562
 20
24.305000
 10
14.143562
 20
24.211562
 10
14.650438
 20
24.211562
 10
14.650438
 20
24.398438
 10
14.143562
 20
24.398438
 10
14.143562
 20
24.211562
 10
14.650438
 20
24.211562
 10
14.650438
 20
24.398438
 10
14.143562
 20
24.398438
  0
LWPOLYLINE
  8
0
 62
7
 90
9
 70
1
 10
14.143562
 20
23.955000
 10
14.143562
 20
23.861562
 10
14.650438
 20
23.861562
 10
14.650438
 20
24.048437
 10
14.143562
 20
24.048437
 10
14.143562
 20
23.861562
 10
14.650438
 20
23.861562
 10
14.650438
 20
24.048437
 10
14.143562
 20
24.048437
  0
LWPOLYLINE
  8
0
 62
7
 90
9
 70
1
 10
14.143562
 20
23.605000
 10
14.143562
 20
23.511563
 10
14.650438
 20
23.511563
 10
14.650438
 20
23.698438
 10
14.143562
 20
23.698438
 10
14.143562
 20
23.511563
 10
14.650438
 20
23.511563
 10
14.650438
 20
23.698438
 10
14.143562
 20
23.698438
  0
LWPOLYLINE
  8
0
 62
7
 90
9
 70
1
 10
21.524000
 20
14.636437
 10
21.125563
 20
14.636437
 10
21.125563
 20
14.289562
 10
21.922438
 20
14.289562
 10
21.922438
 20
14.636437
 10
21.125563
 20
14.636437
 10
21.125563
 20
14.289562
 10
21.922438
 20
14.289562
 10
21.922438
 20
14.636437
  0
LWPOLYLINE
  8
0
 62
7
 90
9
 70
1
 10
21.524000
 20
15.286437
 10
21.125563
 20
15.286437
 10
21.125563
 20
14.939562
 10
21.922438
 20
14.939562
 10
21.922438
 20
15.286437
 10
21.125563
 20
15.286437
 10
21.125563
 20
14.939562
 10
21.922438
 20
14.939562
 10
21.922438
 20
15.286437
  0
LWPOLYLINE
  8
0
 62
7
 90
9
 70
1
 10
21.524000
 20
15.936438
 10
21.125563
 20
15.936438
 10
21.125563
 20
15.589562
 10
21.922438
 20
15.589562
 10
21.922438
 20
15.936438
 10
21.125563
 20
15.936438
 10
21.125563
 20
15.589562
 10
21.922438
 20
15.589562
 10
21.922438
 20
15.936438
  0
LWPOLYLINE
  8
0
 62
7
 90
9
 70
1
 10
19.624000
 20
15.936438
 10
19.225562
 20
15.936438
 10
19.225562
 20
15.589562
 10
20.022437
 20
15.589562
 10
20.022437
 20
15.936438
 10
19.225562
 20
15.936438
 10
19.225562
 20
15.589562
 10
20.022437
 20
15.589562
 10
20.022437
 20
15.936438
  0
LWPOLYLINE
  8
0
 62
7
 90
9
 70
1
 10
19.624000
 20
14.636437
 10
19.225562
 20
14.636437
 10
19.225562
 20
14.289562
 10
20.022437
 20
14.289562
 10
20.022437
 20
14.636437
 10
19.225562
 20
14.636437
 10
19.225562
 20
14.289562
 10
20.022437
 20
14.289562
 10
20.022437
 20
14.636437
  0
LWPOLYLINE
  8
0
 62
7
 90
9
 70
1
 10
17.440562
 20
13.415000
 10
17.440562
 20
12.916562
 10
17.987437
 20
12.916562
 10
17.987437
 20
13.913437
 10
17.440562
 20
13.913437
 10
17.440562
 20
12.916562
 10
17.987437
 20
12.916562
 10
17.987437
 20
13.913437
 10
17.440562
 20
13.913437
  0
LWPOLYLINE
  8
0
 62
7
 90
9
 70
1
 10
16.490562
 20
13.415000
 10
16.490562
 20
12.916562
 10
17.037437
 20
12.916562
 10
17.037437
 20
13.913437
 10
16.490562
 20
13.913437
 10
16.490562
 20
12.916562
 10
17.037437
 20
12.916562
 10
17.037437
 20
13.913437
 10
16.490562
 20
13.913437
  0
LWPOLYLINE
  8
0
 62
7
 90
9
 70
1
 10
15.540563
 20
13.415000
 10
15.540563
 20
12.916562
 10
16.087438
 20
12.916562
 10
16.087438
 20
13.913437
 10
15.540563
 20
13.913437
 10
15.540563
 20
12.916562
 10
16.087438
 20
12.916562
 10
16.087438
 20
13.913437
 10
15.540563
 20
13.913437
  0
LWPOLYLINE
  8
0
 62
7
 90
9
 70
1
 10
15.540563
 20
10.715000
 10
15.540563
 20
10.216563
 10
16.087438
 20
10.216563
 10
16.087438
 20
11.213437
 10
15.540563
 20
11.213437
 10
15.540563
 20
10.216563
 10
16.087438
 20
10.216563
 10
16.087438
 20
11.213437
 10
15.540563
 20
11.213437
  0
LWPOLYLINE
  8
0
 62
7
 90
9
 70
1
 10
17.440562
 20
10.715000
 10
17.440562
 20
10.216563
 10
17.987437
 20
10.216563
 10
17.987437
 20
11.213437
 10
17.440562
 20
11.213437
 10
17.440562
 20
10.216563
 10
17.987437
 20
10.216563
 10
17.987437
 20
11.213437
 10
17.440562
 20
11.213437
  0
ENDSEC
  0
EOF
