M48
;GenerationSoftware,Autodesk,EAGLE,9.0.1*%
;CreationDate,2018-09-06T19:24:28Z*%
FMAT,2
ICI,OFF
METRIC,TZ,000.000
T5C0.300
T4C0.350
T3C0.450
T2C1.000
T1C1.016
%
G90
M71
T1
X36195Y24446
X8255Y19366
X8255Y21906
X8255Y24446
X8255Y16826
X8255Y14286
X8255Y11746
X36195Y11746
X36195Y14286
X36195Y16826
X36195Y19366
X36195Y21906
T2
X26306Y15425
X19235Y22496
T3
X14605Y14605
T4
X16764Y10795
X30861Y14478
X21295Y18837
X22860Y20447
X20193Y21590
X29210Y19558
X20728Y21055
X22479Y13519
X21209Y13519
X15875Y26289
X15913Y23472
T5
X18796Y16838
X19685Y15113
X30734Y18669
X28829Y25654
X28829Y21590
X29210Y15240
X18543Y15621
X12700Y17653
M30