G04 EAGLE Gerber X2 export*
%TF.Part,Single*%
%TF.FileFunction,Profile,NP*%
%TF.FilePolarity,Positive*%
%TF.GenerationSoftware,Autodesk,EAGLE,9.0.1*%
%TF.CreationDate,2018-09-06T19:24:28Z*%
G75*
%MOMM*%
%FSLAX34Y34*%
%LPD*%
%AMOC8*
5,1,8,0,0,1.08239X$1,22.5*%
G01*
%ADD10C,0.254000*%


D10*
X46990Y110490D02*
X47038Y109383D01*
X47183Y108285D01*
X47423Y107203D01*
X47756Y106146D01*
X48180Y105123D01*
X48691Y104140D01*
X49287Y103206D01*
X49961Y102327D01*
X50710Y101510D01*
X51527Y100761D01*
X52406Y100087D01*
X53340Y99491D01*
X54323Y98980D01*
X55346Y98556D01*
X56403Y98223D01*
X57485Y97983D01*
X58583Y97838D01*
X59690Y97790D01*
X384610Y97790D01*
X385717Y97838D01*
X386815Y97983D01*
X387897Y98223D01*
X388954Y98556D01*
X389977Y98980D01*
X390960Y99491D01*
X391894Y100087D01*
X392773Y100761D01*
X393590Y101510D01*
X394339Y102327D01*
X395013Y103206D01*
X395609Y104140D01*
X396120Y105123D01*
X396544Y106146D01*
X396877Y107203D01*
X397117Y108285D01*
X397262Y109383D01*
X397310Y110490D01*
X397310Y264670D01*
X397262Y265777D01*
X397117Y266875D01*
X396877Y267957D01*
X396544Y269014D01*
X396120Y270037D01*
X395609Y271020D01*
X395013Y271954D01*
X394339Y272833D01*
X393590Y273650D01*
X392773Y274399D01*
X391894Y275073D01*
X390960Y275669D01*
X389977Y276180D01*
X388954Y276604D01*
X387897Y276937D01*
X386815Y277177D01*
X385717Y277322D01*
X384610Y277370D01*
X59690Y277370D01*
X58583Y277322D01*
X57485Y277177D01*
X56403Y276937D01*
X55346Y276604D01*
X54323Y276180D01*
X53340Y275669D01*
X52406Y275073D01*
X51527Y274399D01*
X50710Y273650D01*
X49961Y272833D01*
X49287Y271954D01*
X48691Y271020D01*
X48180Y270037D01*
X47756Y269014D01*
X47423Y267957D01*
X47183Y266875D01*
X47038Y265777D01*
X46990Y264670D01*
X46990Y110490D01*
X259323Y157584D02*
X258973Y157145D01*
X258674Y156669D01*
X258431Y156163D01*
X258245Y155633D01*
X258120Y155085D01*
X258057Y154527D01*
X258057Y153966D01*
X258120Y153408D01*
X258245Y152860D01*
X258431Y152330D01*
X258674Y151824D01*
X258973Y151349D01*
X259323Y150910D01*
X259720Y150513D01*
X260159Y150162D01*
X260635Y149864D01*
X261141Y149620D01*
X261671Y149434D01*
X262218Y149310D01*
X262777Y149247D01*
X263338Y149247D01*
X263896Y149310D01*
X264444Y149434D01*
X264974Y149620D01*
X265480Y149864D01*
X265955Y150162D01*
X266394Y150513D01*
X266791Y150910D01*
X267142Y151349D01*
X267440Y151824D01*
X267684Y152330D01*
X267869Y152860D01*
X267994Y153408D01*
X268057Y153966D01*
X268057Y154527D01*
X267994Y155085D01*
X267869Y155633D01*
X267684Y156163D01*
X267440Y156669D01*
X267142Y157145D01*
X266791Y157584D01*
X266394Y157981D01*
X265955Y158331D01*
X265480Y158630D01*
X264974Y158873D01*
X264444Y159059D01*
X263896Y159184D01*
X263338Y159247D01*
X262777Y159247D01*
X262218Y159184D01*
X261671Y159059D01*
X261141Y158873D01*
X260635Y158630D01*
X260159Y158331D01*
X259720Y157981D01*
X259323Y157584D01*
X188613Y228294D02*
X188262Y227855D01*
X187964Y227380D01*
X187720Y226874D01*
X187535Y226344D01*
X187410Y225796D01*
X187347Y225238D01*
X187347Y224676D01*
X187410Y224118D01*
X187535Y223571D01*
X187720Y223041D01*
X187964Y222535D01*
X188262Y222059D01*
X188613Y221620D01*
X189010Y221223D01*
X189449Y220873D01*
X189924Y220574D01*
X190430Y220331D01*
X190960Y220145D01*
X191508Y220020D01*
X192066Y219957D01*
X192627Y219957D01*
X193186Y220020D01*
X193733Y220145D01*
X194263Y220331D01*
X194769Y220574D01*
X195245Y220873D01*
X195684Y221223D01*
X196081Y221620D01*
X196431Y222059D01*
X196730Y222535D01*
X196973Y223041D01*
X197159Y223571D01*
X197284Y224118D01*
X197347Y224676D01*
X197347Y225238D01*
X197284Y225796D01*
X197159Y226344D01*
X196973Y226874D01*
X196730Y227380D01*
X196431Y227855D01*
X196081Y228294D01*
X195684Y228691D01*
X195245Y229042D01*
X194769Y229340D01*
X194263Y229584D01*
X193733Y229769D01*
X193186Y229894D01*
X192627Y229957D01*
X192066Y229957D01*
X191508Y229894D01*
X190960Y229769D01*
X190430Y229584D01*
X189924Y229340D01*
X189449Y229042D01*
X189010Y228691D01*
X188613Y228294D01*
M02*
