G04 EAGLE Gerber X2 export*
%TF.Part,Single*%
%TF.FileFunction,Paste,Top*%
%TF.FilePolarity,Positive*%
%TF.GenerationSoftware,Autodesk,EAGLE,9.0.1*%
%TF.CreationDate,2018-09-06T19:24:28Z*%
G75*
%MOMM*%
%FSLAX34Y34*%
%LPD*%
%AMOC8*
5,1,8,0,0,1.08239X$1,22.5*%
G01*
%ADD10R,1.000000X1.000000*%
%ADD11R,0.900000X0.700000*%
%ADD12R,1.200000X0.600000*%
%ADD13R,0.500000X1.000000*%
%ADD14R,0.900000X0.800000*%
%ADD15R,0.800000X0.350000*%
%ADD16R,0.550000X1.000000*%
%ADD17R,0.510000X0.190000*%
%ADD18R,0.700000X0.900000*%


D10*
X159140Y149860D03*
X176140Y149860D03*
X195580Y112150D03*
X195580Y129150D03*
D11*
X212090Y114150D03*
X212090Y127150D03*
X312420Y222400D03*
X312420Y209400D03*
X312420Y250040D03*
X312420Y263040D03*
X224790Y127150D03*
X224790Y114150D03*
D12*
X170120Y265430D03*
X170120Y252730D03*
X170120Y240030D03*
X170120Y227330D03*
X226120Y227330D03*
X226120Y240030D03*
X226120Y252730D03*
X226120Y265430D03*
D13*
X275590Y169720D03*
X288290Y169720D03*
X300990Y169720D03*
X313690Y169720D03*
X262890Y169720D03*
X250190Y169720D03*
X237490Y169720D03*
X237490Y112220D03*
X250190Y112220D03*
X262890Y112220D03*
X275590Y112220D03*
X288290Y112220D03*
X300990Y112220D03*
X313690Y112220D03*
D11*
X180340Y207160D03*
X180340Y194160D03*
X191770Y207160D03*
X191770Y194160D03*
D14*
X124620Y166980D03*
X124620Y147980D03*
X145620Y157480D03*
D15*
X196240Y157630D03*
X196240Y144630D03*
X215240Y144630D03*
X215240Y151130D03*
X215240Y157630D03*
D16*
X177140Y107150D03*
X158140Y107150D03*
X158140Y134150D03*
X167640Y134150D03*
X177140Y134150D03*
D17*
X156670Y190330D03*
X156670Y193830D03*
X156670Y197330D03*
X156670Y200830D03*
X163370Y200830D03*
X163370Y197330D03*
X163370Y193830D03*
X163370Y190330D03*
X143970Y236050D03*
X143970Y239550D03*
X143970Y243050D03*
X143970Y246550D03*
X150670Y246550D03*
X150670Y243050D03*
X150670Y239550D03*
X150670Y236050D03*
D11*
X125730Y241450D03*
X125730Y228450D03*
D18*
X151280Y179070D03*
X138280Y179070D03*
D11*
X128270Y207160D03*
X128270Y194160D03*
X139700Y207160D03*
X139700Y194160D03*
D18*
X140820Y224790D03*
X153820Y224790D03*
X168760Y179070D03*
X181760Y179070D03*
D14*
X124620Y136500D03*
X124620Y117500D03*
X145620Y127000D03*
X298290Y247040D03*
X298290Y266040D03*
X277290Y256540D03*
X298290Y206400D03*
X298290Y225400D03*
X277290Y215900D03*
D10*
X245500Y266700D03*
X262500Y266700D03*
X245500Y246380D03*
X262500Y246380D03*
X245500Y205740D03*
X262500Y205740D03*
X245500Y226060D03*
X262500Y226060D03*
M02*
