G04 EAGLE Gerber X2 export*
%TF.Part,Single*%
%TF.FileFunction,Soldermask,Bot,1*%
%TF.FilePolarity,Negative*%
%TF.GenerationSoftware,Autodesk,EAGLE,9.0.1*%
%TF.CreationDate,2018-09-06T19:24:28Z*%
G75*
%MOMM*%
%FSLAX34Y34*%
%LPD*%
%AMOC8*
5,1,8,0,0,1.08239X$1,22.5*%
G01*
%ADD10C,1.651000*%
%ADD11R,1.127000X2.877000*%
%ADD12C,1.127000*%
%ADD13C,0.731000*%
%ADD14C,0.681000*%
%ADD15C,0.831000*%


D10*
X82550Y244458D03*
X82550Y219058D03*
X82550Y193658D03*
X82550Y168258D03*
X82550Y142858D03*
X82550Y117458D03*
X361950Y117458D03*
X361950Y142858D03*
X361950Y168258D03*
X361950Y193658D03*
X361950Y219058D03*
X361950Y244458D03*
D11*
G36*
X291518Y176534D02*
X299487Y168565D01*
X279144Y148222D01*
X271175Y156191D01*
X291518Y176534D01*
G37*
G36*
X277376Y190676D02*
X285345Y182707D01*
X265002Y162364D01*
X257033Y170333D01*
X277376Y190676D01*
G37*
G36*
X261113Y146129D02*
X269082Y138160D01*
X248739Y117817D01*
X240770Y125786D01*
X261113Y146129D01*
G37*
G36*
X246970Y160271D02*
X254939Y152302D01*
X234596Y131959D01*
X226627Y139928D01*
X246970Y160271D01*
G37*
G36*
X232828Y174413D02*
X240797Y166444D01*
X220454Y146101D01*
X212485Y154070D01*
X232828Y174413D01*
G37*
G36*
X263234Y204819D02*
X271203Y196850D01*
X250860Y176507D01*
X242891Y184476D01*
X263234Y204819D01*
G37*
G36*
X218686Y188555D02*
X226655Y180586D01*
X206312Y160243D01*
X198343Y168212D01*
X218686Y188555D01*
G37*
G36*
X249092Y218961D02*
X257061Y210992D01*
X236718Y190649D01*
X228749Y198618D01*
X249092Y218961D01*
G37*
G36*
X192170Y174385D02*
X184201Y182354D01*
X204544Y202697D01*
X212513Y194728D01*
X192170Y174385D01*
G37*
G36*
X222576Y204791D02*
X214607Y212760D01*
X234950Y233103D01*
X242919Y225134D01*
X222576Y204791D01*
G37*
G36*
X190402Y216839D02*
X198371Y208870D01*
X178028Y188527D01*
X170059Y196496D01*
X190402Y216839D01*
G37*
G36*
X220808Y247245D02*
X228777Y239276D01*
X208434Y218933D01*
X200465Y226902D01*
X220808Y247245D01*
G37*
G36*
X176260Y230982D02*
X184229Y223013D01*
X163886Y202670D01*
X155917Y210639D01*
X176260Y230982D01*
G37*
G36*
X206665Y261387D02*
X214634Y253418D01*
X194291Y233075D01*
X186322Y241044D01*
X206665Y261387D01*
G37*
D12*
X263057Y154247D03*
X192347Y224957D03*
D13*
X212952Y188368D03*
X228600Y204470D03*
D14*
X292100Y152400D03*
X288290Y215900D03*
X288290Y256540D03*
D13*
X201930Y215900D03*
X292100Y195580D03*
X207279Y210551D03*
X224790Y135194D03*
D14*
X307340Y186690D03*
D13*
X212090Y135194D03*
D14*
X196850Y151130D03*
D13*
X158750Y262890D03*
X159126Y234724D03*
X167640Y107950D03*
D14*
X187960Y168378D03*
D13*
X308610Y144780D03*
D14*
X127000Y176530D03*
X185434Y156210D03*
D15*
X146050Y146050D03*
M02*
