<?xml version="1.0" encoding="UTF-8"?>
<svg xmlns="http://www.w3.org/2000/svg" xmlns:xlink="http://www.w3.org/1999/xlink" width="47pt" height="52pt" viewBox="0 0 47 52" version="1.1">
<g id="surface33688">
<path style=" stroke:none;fill-rule:evenodd;fill:rgb(75.686275%,0%,87.843137%);fill-opacity:1;" d="M 41.753906 29.566406 L 43.757813 31.574219 L 38.246094 37.085938 L 36.238281 35.082031 Z "/>
<path style=" stroke:none;fill-rule:evenodd;fill:rgb(75.686275%,0%,87.843137%);fill-opacity:1;" d="M 37.742188 25.558594 L 39.746094 27.5625 L 34.234375 33.074219 L 32.230469 31.070313 Z "/>
<path style=" stroke:none;fill-rule:evenodd;fill:rgb(75.686275%,0%,87.843137%);fill-opacity:1;" d="M 33.132813 38.1875 L 35.136719 40.191406 L 29.625 45.703125 L 27.621094 43.699219 Z "/>
<path style=" stroke:none;fill-rule:evenodd;fill:rgb(75.686275%,0%,87.843137%);fill-opacity:1;" d="M 29.125 34.179688 L 31.128906 36.183594 L 25.617188 41.695313 L 23.613281 39.691406 Z "/>
<path style=" stroke:none;fill-rule:evenodd;fill:rgb(75.686275%,0%,87.843137%);fill-opacity:1;" d="M 25.117188 30.167969 L 27.121094 32.171875 L 21.609375 37.6875 L 19.601563 35.679688 Z "/>
<path style=" stroke:none;fill-rule:evenodd;fill:rgb(75.686275%,0%,87.843137%);fill-opacity:1;" d="M 33.734375 21.550781 L 35.738281 23.554688 L 30.226563 29.066406 L 28.222656 27.0625 Z "/>
<path style=" stroke:none;fill-rule:evenodd;fill:rgb(75.686275%,0%,87.843137%);fill-opacity:1;" d="M 21.105469 26.160156 L 23.109375 28.164063 L 17.597656 33.675781 L 15.59375 31.671875 Z "/>
<path style=" stroke:none;fill-rule:evenodd;fill:rgb(75.686275%,0%,87.843137%);fill-opacity:1;" d="M 29.726563 17.542969 L 31.730469 19.546875 L 26.21875 25.058594 L 24.214844 23.054688 Z "/>
<path style=" stroke:none;fill-rule:evenodd;fill:rgb(75.686275%,0%,87.843137%);fill-opacity:1;" d="M 13.589844 29.667969 L 11.585938 27.664063 L 17.097656 22.152344 L 19.101563 24.15625 Z "/>
<path style=" stroke:none;fill-rule:evenodd;fill:rgb(75.686275%,0%,87.843137%);fill-opacity:1;" d="M 22.210938 21.050781 L 20.203125 19.042969 L 25.71875 13.53125 L 27.722656 15.539063 Z "/>
<path style=" stroke:none;fill-rule:evenodd;fill:rgb(75.686275%,0%,87.843137%);fill-opacity:1;" d="M 13.089844 18.144531 L 15.09375 20.148438 L 9.582031 25.660156 L 7.578125 23.65625 Z "/>
<path style=" stroke:none;fill-rule:evenodd;fill:rgb(75.686275%,0%,87.843137%);fill-opacity:1;" d="M 21.707031 9.523438 L 23.710938 11.527344 L 18.199219 17.039063 L 16.195313 15.035156 Z "/>
<path style=" stroke:none;fill-rule:evenodd;fill:rgb(75.686275%,0%,87.843137%);fill-opacity:1;" d="M 9.082031 14.132813 L 11.085938 16.136719 L 5.574219 21.648438 L 3.570313 19.644531 Z "/>
<path style=" stroke:none;fill-rule:evenodd;fill:rgb(75.686275%,0%,87.843137%);fill-opacity:1;" d="M 17.699219 5.515625 L 19.703125 7.519531 L 14.191406 13.03125 L 12.1875 11.027344 Z "/>
</g>
</svg>
