G04 EAGLE Gerber X2 export*
%TF.Part,Single*%
%TF.FileFunction,Copper,L1,Top,Mixed*%
%TF.FilePolarity,Positive*%
%TF.GenerationSoftware,Autodesk,EAGLE,9.0.1*%
%TF.CreationDate,2018-09-06T19:24:28Z*%
G75*
%MOMM*%
%FSLAX34Y34*%
%LPD*%
%AMOC8*
5,1,8,0,0,1.08239X$1,22.5*%
G01*
%ADD10R,1.000000X1.000000*%
%ADD11R,0.900000X0.700000*%
%ADD12R,1.200000X0.600000*%
%ADD13R,0.500000X1.000000*%
%ADD14C,1.524000*%
%ADD15R,0.900000X0.800000*%
%ADD16R,0.800000X0.350000*%
%ADD17R,0.550000X1.000000*%
%ADD18R,0.510000X0.190000*%
%ADD19R,0.700000X0.900000*%
%ADD20C,0.152400*%
%ADD21C,0.254000*%
%ADD22C,0.604000*%
%ADD23C,0.304800*%
%ADD24C,0.406400*%
%ADD25C,0.554000*%
%ADD26C,0.200000*%
%ADD27C,0.609600*%
%ADD28C,0.704000*%


D10*
X159140Y149860D03*
X176140Y149860D03*
X195580Y112150D03*
X195580Y129150D03*
D11*
X212090Y114150D03*
X212090Y127150D03*
X312420Y222400D03*
X312420Y209400D03*
X312420Y250040D03*
X312420Y263040D03*
X224790Y127150D03*
X224790Y114150D03*
D12*
X170120Y265430D03*
X170120Y252730D03*
X170120Y240030D03*
X170120Y227330D03*
X226120Y227330D03*
X226120Y240030D03*
X226120Y252730D03*
X226120Y265430D03*
D13*
X275590Y169720D03*
X288290Y169720D03*
X300990Y169720D03*
X313690Y169720D03*
X262890Y169720D03*
X250190Y169720D03*
X237490Y169720D03*
X237490Y112220D03*
X250190Y112220D03*
X262890Y112220D03*
X275590Y112220D03*
X288290Y112220D03*
X300990Y112220D03*
X313690Y112220D03*
D14*
X82550Y244458D03*
X82550Y219058D03*
X82550Y193658D03*
X82550Y168258D03*
X82550Y142858D03*
X82550Y117458D03*
X361950Y117458D03*
X361950Y142858D03*
X361950Y168258D03*
X361950Y193658D03*
X361950Y219058D03*
X361950Y244458D03*
D11*
X180340Y207160D03*
X180340Y194160D03*
X191770Y207160D03*
X191770Y194160D03*
D15*
X124620Y166980D03*
X124620Y147980D03*
X145620Y157480D03*
D16*
X196240Y157630D03*
X196240Y144630D03*
X215240Y144630D03*
X215240Y151130D03*
X215240Y157630D03*
D17*
X177140Y107150D03*
X158140Y107150D03*
X158140Y134150D03*
X167640Y134150D03*
X177140Y134150D03*
D18*
X156670Y190330D03*
X156670Y193830D03*
X156670Y197330D03*
X156670Y200830D03*
X163370Y200830D03*
X163370Y197330D03*
X163370Y193830D03*
X163370Y190330D03*
X143970Y236050D03*
X143970Y239550D03*
X143970Y243050D03*
X143970Y246550D03*
X150670Y246550D03*
X150670Y243050D03*
X150670Y239550D03*
X150670Y236050D03*
D11*
X125730Y241450D03*
X125730Y228450D03*
D19*
X151280Y179070D03*
X138280Y179070D03*
D11*
X128270Y207160D03*
X128270Y194160D03*
X139700Y207160D03*
X139700Y194160D03*
D19*
X140820Y224790D03*
X153820Y224790D03*
X168760Y179070D03*
X181760Y179070D03*
D15*
X124620Y136500D03*
X124620Y117500D03*
X145620Y127000D03*
X298290Y247040D03*
X298290Y266040D03*
X277290Y256540D03*
X298290Y206400D03*
X298290Y225400D03*
X277290Y215900D03*
D10*
X245500Y266700D03*
X262500Y266700D03*
X245500Y246380D03*
X262500Y246380D03*
X245500Y205740D03*
X262500Y205740D03*
X245500Y226060D03*
X262500Y226060D03*
D20*
X157000Y243050D02*
X150670Y243050D01*
X157000Y243050D02*
X160020Y240030D01*
X170120Y240030D01*
D21*
X197995Y240030D01*
X232410Y181610D02*
X252730Y181610D01*
X262890Y171450D01*
X262890Y169720D01*
D22*
X212952Y188368D03*
D21*
X208788Y223730D02*
X208788Y229237D01*
X197995Y240030D01*
X208788Y223730D02*
X217665Y214854D01*
X220980Y193040D02*
X232410Y181610D01*
X220980Y193040D02*
X217665Y196355D01*
X217665Y214854D01*
X216308Y188368D02*
X212952Y188368D01*
X216308Y188368D02*
X220980Y193040D01*
D20*
X155110Y246550D02*
X150670Y246550D01*
X155110Y246550D02*
X161290Y252730D01*
X170120Y252730D01*
D21*
X258794Y186516D02*
X275590Y169720D01*
X184577Y252730D02*
X170120Y252730D01*
D22*
X228600Y204470D03*
D21*
X193213Y244094D02*
X184577Y252730D01*
X193213Y244094D02*
X199679Y244094D01*
X212852Y230921D01*
X212852Y225414D01*
X222250Y216016D02*
X222250Y199390D01*
X222250Y216016D02*
X212852Y225414D01*
X235124Y186516D02*
X258794Y186516D01*
X224790Y196850D02*
X222250Y199390D01*
X224790Y196850D02*
X235124Y186516D01*
X228600Y200660D02*
X228600Y204470D01*
X228600Y200660D02*
X224790Y196850D01*
D23*
X215240Y151130D02*
X205740Y151130D01*
D24*
X161950Y117500D02*
X124620Y117500D01*
X161950Y117500D02*
X167640Y123190D01*
X189620Y123190D01*
X195580Y129150D01*
X167640Y134150D02*
X167640Y123190D01*
X167640Y134150D02*
X167640Y141360D01*
X159140Y149860D01*
D21*
X162560Y227330D02*
X170120Y227330D01*
X162560Y227330D02*
X160020Y224790D01*
X153820Y224790D01*
D24*
X204470Y127150D02*
X212090Y127150D01*
X204470Y127150D02*
X197580Y127150D01*
X195580Y129150D01*
D23*
X205740Y135890D02*
X205740Y151130D01*
X205740Y135890D02*
X204470Y134620D01*
X204470Y127150D01*
X196627Y235291D02*
X188066Y235291D01*
X180105Y227330D02*
X170120Y227330D01*
X180105Y227330D02*
X188066Y235291D01*
X196627Y235291D02*
X204470Y227449D01*
X204470Y221942D01*
X213347Y213065D02*
X213347Y203426D01*
X213347Y213065D02*
X204470Y221942D01*
X203288Y153582D02*
X205740Y151130D01*
X203288Y153582D02*
X203288Y160643D01*
X201371Y162560D01*
X184150Y162560D01*
X181760Y164950D01*
X181760Y179070D01*
X201371Y191450D02*
X213347Y203426D01*
X201371Y191450D02*
X201371Y162560D01*
D25*
X292100Y152400D03*
D23*
X237490Y151130D02*
X215240Y151130D01*
X237490Y151130D02*
X245209Y151130D01*
X252427Y143913D01*
X283613Y143913D01*
X292100Y152400D01*
X237490Y151130D02*
X237490Y169720D01*
D24*
X277290Y215900D02*
X288290Y215900D01*
D25*
X288290Y215900D03*
D24*
X288290Y256540D02*
X277290Y256540D01*
D25*
X288290Y256540D03*
D20*
X181760Y179070D02*
X170500Y190330D01*
X163370Y190330D01*
X153820Y224790D02*
X153820Y229720D01*
X150670Y232870D02*
X150670Y236050D01*
X150670Y232870D02*
X153820Y229720D01*
D22*
X201930Y215900D03*
X292100Y195580D03*
D21*
X300990Y190500D02*
X300990Y169720D01*
X300990Y190500D02*
X295910Y195580D01*
X292100Y195580D01*
X180340Y207160D02*
X180340Y212090D01*
X181704Y213454D01*
X199484Y213454D02*
X201930Y215900D01*
X199484Y213454D02*
X181704Y213454D01*
D20*
X180340Y207160D02*
X174140Y207160D01*
X167810Y200830D02*
X163370Y200830D01*
X167810Y200830D02*
X174140Y207160D01*
X184556Y199946D02*
X191770Y207160D01*
X184556Y199946D02*
X174893Y199946D01*
X172277Y197330D02*
X163370Y197330D01*
X172277Y197330D02*
X174893Y199946D01*
D21*
X191770Y207160D02*
X203887Y207160D01*
X207279Y210551D01*
D22*
X207279Y210551D03*
X224790Y135194D03*
D21*
X243869Y135194D01*
X246602Y132461D01*
X272642Y132461D01*
X281726Y123377D01*
X281726Y107333D01*
X286189Y102870D01*
X311150Y102870D02*
X313690Y105410D01*
X313690Y112220D01*
X311150Y102870D02*
X286189Y102870D01*
D25*
X307340Y186690D03*
D21*
X313690Y141638D02*
X313690Y112220D01*
X312420Y186690D02*
X307340Y186690D01*
X312420Y186690D02*
X320040Y179070D01*
X320040Y147988D01*
X313690Y141638D01*
X275590Y120650D02*
X275590Y112220D01*
X269090Y127150D02*
X224790Y127150D01*
X269090Y127150D02*
X275590Y120650D01*
D26*
X224790Y127150D02*
X216746Y135194D01*
X212090Y135194D01*
D22*
X212090Y135194D03*
D23*
X139700Y194160D02*
X128270Y194160D01*
X139700Y180490D02*
X138280Y179070D01*
D24*
X124620Y147980D02*
X124620Y136500D01*
D23*
X138280Y179070D02*
X138280Y192740D01*
X139700Y194160D01*
D24*
X107332Y142858D02*
X82550Y142858D01*
X113690Y136500D02*
X124620Y136500D01*
X113690Y136500D02*
X107332Y142858D01*
X124620Y147980D02*
X124620Y152560D01*
X137160Y165100D01*
X170180Y165100D01*
X176140Y159140D02*
X176140Y152400D01*
X176140Y149860D01*
X176140Y159140D02*
X170180Y165100D01*
X177140Y148860D02*
X177140Y134150D01*
X177140Y148860D02*
X176140Y149860D01*
D23*
X140360Y136500D02*
X124620Y136500D01*
X142710Y134150D02*
X158140Y134150D01*
X142710Y134150D02*
X140360Y136500D01*
D24*
X137160Y165100D02*
X138280Y166220D01*
X138280Y179070D01*
D21*
X78236Y204072D02*
X72136Y197972D01*
X87935Y204072D02*
X94579Y210716D01*
X82550Y153531D02*
X82550Y142858D01*
X78236Y204072D02*
X87935Y204072D01*
X72136Y163945D02*
X82550Y153531D01*
X107996Y210716D02*
X125730Y228450D01*
X107996Y210716D02*
X94579Y210716D01*
X72136Y197972D02*
X72136Y163945D01*
D25*
X196850Y151130D03*
D24*
X189300Y151130D01*
X188054Y149884D01*
X178656Y149884D01*
X176140Y152400D01*
D23*
X196850Y151130D02*
X196850Y145240D01*
X196240Y144630D01*
D21*
X191770Y194160D02*
X180340Y194160D01*
D20*
X180010Y193830D02*
X163370Y193830D01*
X180010Y193830D02*
X180340Y194160D01*
D24*
X195580Y112150D02*
X190580Y107150D01*
X177140Y107150D01*
X195580Y112150D02*
X197580Y114150D01*
X212090Y114150D01*
X224790Y114150D01*
X235560Y114150D01*
X237490Y112220D01*
D23*
X170120Y265430D02*
X161290Y265430D01*
X158750Y262890D01*
D22*
X158750Y262890D03*
X159126Y234724D03*
D24*
X168440Y107150D02*
X177140Y107150D01*
X168440Y107150D02*
X167640Y107950D01*
D22*
X167640Y107950D03*
D25*
X187960Y168378D03*
D21*
X191770Y172188D01*
X191770Y194160D01*
D20*
X159126Y234724D02*
X154300Y239550D01*
X150670Y239550D01*
D27*
X263160Y206400D02*
X298290Y206400D01*
X263160Y206400D02*
X262500Y205740D01*
X298290Y206400D02*
X309420Y206400D01*
X312420Y209400D01*
X320808Y209400D01*
X361950Y168258D01*
X298290Y225400D02*
X297630Y226060D01*
X262500Y226060D01*
X298290Y225400D02*
X309420Y225400D01*
X312420Y222400D01*
X333208Y222400D01*
X361950Y193658D01*
X298290Y247040D02*
X297630Y246380D01*
X262500Y246380D01*
X298290Y247040D02*
X309420Y247040D01*
X312420Y250040D01*
X330968Y250040D01*
X361950Y219058D01*
X298290Y266040D02*
X297630Y266700D01*
X262500Y266700D01*
X298290Y266040D02*
X309420Y266040D01*
X312420Y263040D01*
X343368Y263040D01*
X361950Y244458D01*
D21*
X313690Y169720D02*
X313690Y149860D01*
X308610Y144780D01*
D22*
X308610Y144780D03*
D21*
X124620Y166980D02*
X124620Y174150D01*
X127000Y176530D01*
D25*
X127000Y176530D03*
X185434Y156210D03*
D21*
X186854Y157630D01*
X196240Y157630D01*
X288290Y127000D02*
X288290Y112220D01*
X288290Y127000D02*
X277495Y137795D01*
X248285Y137795D01*
X241450Y144630D02*
X215240Y144630D01*
X241450Y144630D02*
X248285Y137795D01*
D28*
X146050Y146050D03*
D24*
X145620Y146480D01*
D27*
X145620Y157480D01*
D20*
X139700Y200660D02*
X139700Y207160D01*
X139700Y200660D02*
X147320Y200660D01*
X150650Y197330D02*
X156670Y197330D01*
X150650Y197330D02*
X147320Y200660D01*
X139700Y200660D02*
X114952Y200660D01*
X82550Y168258D01*
X96052Y207160D02*
X128270Y207160D01*
X96052Y207160D02*
X82550Y193658D01*
X128270Y207160D02*
X128270Y212090D01*
X145147Y212946D02*
X146486Y211607D01*
X146486Y205805D01*
X145147Y212946D02*
X129126Y212946D01*
X128270Y212090D01*
X151461Y200830D02*
X156670Y200830D01*
X151461Y200830D02*
X146486Y205805D01*
X72644Y240355D02*
X72644Y248562D01*
X78447Y254364D01*
X86653Y254364D01*
X93368Y247650D01*
X82550Y230449D02*
X82550Y219058D01*
X82550Y230449D02*
X72644Y240355D01*
X116387Y247650D02*
X119021Y250284D01*
X116387Y247650D02*
X93368Y247650D01*
X136990Y246550D02*
X143970Y246550D01*
X133256Y250284D02*
X119021Y250284D01*
X133256Y250284D02*
X136990Y246550D01*
X117505Y244458D02*
X82550Y244458D01*
X117505Y244458D02*
X120283Y247236D01*
X131224Y247236D01*
X135410Y243050D02*
X143970Y243050D01*
X135410Y243050D02*
X131224Y247236D01*
X143970Y239550D02*
X143970Y236050D01*
X143970Y239550D02*
X133830Y239550D01*
X131930Y241450D02*
X125730Y241450D01*
X131930Y241450D02*
X133830Y239550D01*
X143970Y236050D02*
X143970Y232870D01*
X140820Y229720D02*
X140820Y224790D01*
X140820Y229720D02*
X143970Y232870D01*
X156670Y193830D02*
X156670Y190330D01*
X160020Y179070D02*
X151280Y179070D01*
X160020Y179070D02*
X168760Y179070D01*
X160020Y179070D02*
X160020Y184440D01*
X156670Y187790D01*
X156670Y190330D01*
D24*
X102218Y117458D02*
X82550Y117458D01*
X102218Y117458D02*
X111760Y127000D01*
X145620Y127000D01*
X244230Y265430D02*
X245500Y266700D01*
X244230Y265430D02*
X226120Y265430D01*
X239150Y252730D02*
X245500Y246380D01*
X239150Y252730D02*
X226120Y252730D01*
X245500Y207950D02*
X245500Y205740D01*
X245500Y207950D02*
X226120Y227330D01*
X231530Y240030D02*
X245500Y226060D01*
X231530Y240030D02*
X226120Y240030D01*
M02*
