<?xml version="1.0" encoding="UTF-8"?>
<svg xmlns="http://www.w3.org/2000/svg" xmlns:xlink="http://www.w3.org/1999/xlink" width="61pt" height="52pt" viewBox="0 0 61 52" version="1.1">
<g id="surface32539">
<path style=" stroke:none;fill-rule:evenodd;fill:rgb(45.882353%,94.901961%,40.392157%);fill-opacity:1;" d="M 12.433594 37.488281 L 15.269531 37.488281 L 15.269531 34.652344 L 12.433594 34.652344 Z "/>
<path style=" stroke:none;fill-rule:evenodd;fill:rgb(45.882353%,94.901961%,40.392157%);fill-opacity:1;" d="M 17.25 37.488281 L 20.085938 37.488281 L 20.085938 34.652344 L 17.25 34.652344 Z "/>
<path style=" stroke:none;fill-rule:evenodd;fill:rgb(45.882353%,94.901961%,40.392157%);fill-opacity:1;" d="M 22.761719 48.179688 L 25.597656 48.179688 L 25.597656 45.34375 L 22.761719 45.34375 Z "/>
<path style=" stroke:none;fill-rule:evenodd;fill:rgb(45.882353%,94.901961%,40.392157%);fill-opacity:1;" d="M 22.761719 43.359375 L 25.597656 43.359375 L 25.597656 40.523438 L 22.761719 40.523438 Z "/>
<path style=" stroke:none;fill-rule:evenodd;fill:rgb(45.882353%,94.901961%,40.392157%);fill-opacity:1;" d="M 27.582031 47.1875 L 30.132813 47.1875 L 30.132813 45.203125 L 27.582031 45.203125 Z "/>
<path style=" stroke:none;fill-rule:evenodd;fill:rgb(45.882353%,94.901961%,40.392157%);fill-opacity:1;" d="M 27.582031 43.503906 L 30.132813 43.503906 L 30.132813 41.519531 L 27.582031 41.519531 Z "/>
<path style=" stroke:none;fill-rule:evenodd;fill:rgb(45.882353%,94.901961%,40.392157%);fill-opacity:1;" d="M 56.023438 16.503906 L 58.574219 16.503906 L 58.574219 14.519531 L 56.023438 14.519531 Z "/>
<path style=" stroke:none;fill-rule:evenodd;fill:rgb(45.882353%,94.901961%,40.392157%);fill-opacity:1;" d="M 56.023438 20.1875 L 58.574219 20.1875 L 58.574219 18.203125 L 56.023438 18.203125 Z "/>
<path style=" stroke:none;fill-rule:evenodd;fill:rgb(45.882353%,94.901961%,40.392157%);fill-opacity:1;" d="M 56.023438 8.667969 L 58.574219 8.667969 L 58.574219 6.683594 L 56.023438 6.683594 Z "/>
<path style=" stroke:none;fill-rule:evenodd;fill:rgb(45.882353%,94.901961%,40.392157%);fill-opacity:1;" d="M 56.023438 4.984375 L 58.574219 4.984375 L 58.574219 3 L 56.023438 3 Z "/>
<path style=" stroke:none;fill-rule:evenodd;fill:rgb(45.882353%,94.901961%,40.392157%);fill-opacity:1;" d="M 31.183594 43.503906 L 33.734375 43.503906 L 33.734375 41.519531 L 31.183594 41.519531 Z "/>
<path style=" stroke:none;fill-rule:evenodd;fill:rgb(45.882353%,94.901961%,40.392157%);fill-opacity:1;" d="M 31.183594 47.1875 L 33.734375 47.1875 L 33.734375 45.203125 L 31.183594 45.203125 Z "/>
<path style=" stroke:none;fill-rule:evenodd;fill:rgb(45.882353%,94.901961%,40.392157%);fill-opacity:1;" d="M 15.261719 4.164063 L 18.664063 4.164063 L 18.664063 2.464844 L 15.261719 2.464844 Z "/>
<path style=" stroke:none;fill-rule:evenodd;fill:rgb(45.882353%,94.901961%,40.392157%);fill-opacity:1;" d="M 15.261719 7.761719 L 18.664063 7.761719 L 18.664063 6.0625 L 15.261719 6.0625 Z "/>
<path style=" stroke:none;fill-rule:evenodd;fill:rgb(45.882353%,94.901961%,40.392157%);fill-opacity:1;" d="M 15.261719 11.363281 L 18.664063 11.363281 L 18.664063 9.664063 L 15.261719 9.664063 Z "/>
<path style=" stroke:none;fill-rule:evenodd;fill:rgb(45.882353%,94.901961%,40.392157%);fill-opacity:1;" d="M 15.261719 14.964844 L 18.664063 14.964844 L 18.664063 13.265625 L 15.261719 13.265625 Z "/>
<path style=" stroke:none;fill-rule:evenodd;fill:rgb(45.882353%,94.901961%,40.392157%);fill-opacity:1;" d="M 31.136719 14.964844 L 34.539063 14.964844 L 34.539063 13.265625 L 31.136719 13.265625 Z "/>
<path style=" stroke:none;fill-rule:evenodd;fill:rgb(45.882353%,94.901961%,40.392157%);fill-opacity:1;" d="M 31.136719 11.363281 L 34.539063 11.363281 L 34.539063 9.664063 L 31.136719 9.664063 Z "/>
<path style=" stroke:none;fill-rule:evenodd;fill:rgb(45.882353%,94.901961%,40.392157%);fill-opacity:1;" d="M 31.136719 7.761719 L 34.539063 7.761719 L 34.539063 6.0625 L 31.136719 6.0625 Z "/>
<path style=" stroke:none;fill-rule:evenodd;fill:rgb(45.882353%,94.901961%,40.392157%);fill-opacity:1;" d="M 31.136719 4.164063 L 34.539063 4.164063 L 34.539063 2.464844 L 31.136719 2.464844 Z "/>
<path style=" stroke:none;fill-rule:evenodd;fill:rgb(45.882353%,94.901961%,40.392157%);fill-opacity:1;" d="M 46.152344 31.859375 L 47.570313 31.859375 L 47.570313 29.023438 L 46.152344 29.023438 Z "/>
<path style=" stroke:none;fill-rule:evenodd;fill:rgb(45.882353%,94.901961%,40.392157%);fill-opacity:1;" d="M 49.75 31.859375 L 51.167969 31.859375 L 51.167969 29.023438 L 49.75 29.023438 Z "/>
<path style=" stroke:none;fill-rule:evenodd;fill:rgb(45.882353%,94.901961%,40.392157%);fill-opacity:1;" d="M 53.351563 31.859375 L 54.769531 31.859375 L 54.769531 29.023438 L 53.351563 29.023438 Z "/>
<path style=" stroke:none;fill-rule:evenodd;fill:rgb(45.882353%,94.901961%,40.392157%);fill-opacity:1;" d="M 56.949219 31.859375 L 58.367188 31.859375 L 58.367188 29.023438 L 56.949219 29.023438 Z "/>
<path style=" stroke:none;fill-rule:evenodd;fill:rgb(45.882353%,94.901961%,40.392157%);fill-opacity:1;" d="M 42.550781 31.859375 L 43.96875 31.859375 L 43.96875 29.023438 L 42.550781 29.023438 Z "/>
<path style=" stroke:none;fill-rule:evenodd;fill:rgb(45.882353%,94.901961%,40.392157%);fill-opacity:1;" d="M 38.949219 31.859375 L 40.367188 31.859375 L 40.367188 29.023438 L 38.949219 29.023438 Z "/>
<path style=" stroke:none;fill-rule:evenodd;fill:rgb(45.882353%,94.901961%,40.392157%);fill-opacity:1;" d="M 35.351563 31.859375 L 36.769531 31.859375 L 36.769531 29.023438 L 35.351563 29.023438 Z "/>
<path style=" stroke:none;fill-rule:evenodd;fill:rgb(45.882353%,94.901961%,40.392157%);fill-opacity:1;" d="M 35.351563 48.160156 L 36.769531 48.160156 L 36.769531 45.324219 L 35.351563 45.324219 Z "/>
<path style=" stroke:none;fill-rule:evenodd;fill:rgb(45.882353%,94.901961%,40.392157%);fill-opacity:1;" d="M 38.949219 48.160156 L 40.367188 48.160156 L 40.367188 45.324219 L 38.949219 45.324219 Z "/>
<path style=" stroke:none;fill-rule:evenodd;fill:rgb(45.882353%,94.901961%,40.392157%);fill-opacity:1;" d="M 42.550781 48.160156 L 43.96875 48.160156 L 43.96875 45.324219 L 42.550781 45.324219 Z "/>
<path style=" stroke:none;fill-rule:evenodd;fill:rgb(45.882353%,94.901961%,40.392157%);fill-opacity:1;" d="M 46.152344 48.160156 L 47.570313 48.160156 L 47.570313 45.324219 L 46.152344 45.324219 Z "/>
<path style=" stroke:none;fill-rule:evenodd;fill:rgb(45.882353%,94.901961%,40.392157%);fill-opacity:1;" d="M 49.75 48.160156 L 51.167969 48.160156 L 51.167969 45.324219 L 49.75 45.324219 Z "/>
<path style=" stroke:none;fill-rule:evenodd;fill:rgb(45.882353%,94.901961%,40.392157%);fill-opacity:1;" d="M 53.351563 48.160156 L 54.769531 48.160156 L 54.769531 45.324219 L 53.351563 45.324219 Z "/>
<path style=" stroke:none;fill-rule:evenodd;fill:rgb(45.882353%,94.901961%,40.392157%);fill-opacity:1;" d="M 56.949219 48.160156 L 58.367188 48.160156 L 58.367188 45.324219 L 56.949219 45.324219 Z "/>
<path style=" stroke:none;fill-rule:evenodd;fill:rgb(45.882353%,94.901961%,40.392157%);fill-opacity:1;" d="M 18.582031 20.824219 L 21.132813 20.824219 L 21.132813 18.839844 L 18.582031 18.839844 Z "/>
<path style=" stroke:none;fill-rule:evenodd;fill:rgb(45.882353%,94.901961%,40.392157%);fill-opacity:1;" d="M 18.582031 24.507813 L 21.132813 24.507813 L 21.132813 22.523438 L 18.582031 22.523438 Z "/>
<path style=" stroke:none;fill-rule:evenodd;fill:rgb(45.882353%,94.901961%,40.392157%);fill-opacity:1;" d="M 21.824219 20.824219 L 24.375 20.824219 L 24.375 18.839844 L 21.824219 18.839844 Z "/>
<path style=" stroke:none;fill-rule:evenodd;fill:rgb(45.882353%,94.901961%,40.392157%);fill-opacity:1;" d="M 21.824219 24.507813 L 24.375 24.507813 L 24.375 22.523438 L 21.824219 22.523438 Z "/>
<path style=" stroke:none;fill-rule:evenodd;fill:rgb(45.882353%,94.901961%,40.392157%);fill-opacity:1;" d="M 2.789063 32.355469 L 5.339844 32.355469 L 5.339844 30.085938 L 2.789063 30.085938 Z "/>
<path style=" stroke:none;fill-rule:evenodd;fill:rgb(45.882353%,94.901961%,40.392157%);fill-opacity:1;" d="M 2.789063 37.738281 L 5.339844 37.738281 L 5.339844 35.46875 L 2.789063 35.46875 Z "/>
<path style=" stroke:none;fill-rule:evenodd;fill:rgb(45.882353%,94.901961%,40.392157%);fill-opacity:1;" d="M 8.742188 35.046875 L 11.292969 35.046875 L 11.292969 32.777344 L 8.742188 32.777344 Z "/>
<path style=" stroke:none;fill-rule:evenodd;fill:rgb(45.882353%,94.901961%,40.392157%);fill-opacity:1;" d="M 23.234375 34.367188 L 25.503906 34.367188 L 25.503906 33.375 L 23.234375 33.375 Z "/>
<path style=" stroke:none;fill-rule:evenodd;fill:rgb(45.882353%,94.901961%,40.392157%);fill-opacity:1;" d="M 23.234375 38.050781 L 25.503906 38.050781 L 25.503906 37.058594 L 23.234375 37.058594 Z "/>
<path style=" stroke:none;fill-rule:evenodd;fill:rgb(45.882353%,94.901961%,40.392157%);fill-opacity:1;" d="M 28.617188 38.050781 L 30.886719 38.050781 L 30.886719 37.058594 L 28.617188 37.058594 Z "/>
<path style=" stroke:none;fill-rule:evenodd;fill:rgb(45.882353%,94.901961%,40.392157%);fill-opacity:1;" d="M 28.617188 36.207031 L 30.886719 36.207031 L 30.886719 35.214844 L 28.617188 35.214844 Z "/>
<path style=" stroke:none;fill-rule:evenodd;fill:rgb(45.882353%,94.901961%,40.392157%);fill-opacity:1;" d="M 28.617188 34.367188 L 30.886719 34.367188 L 30.886719 33.375 L 28.617188 33.375 Z "/>
<path style=" stroke:none;fill-rule:evenodd;fill:rgb(45.882353%,94.901961%,40.392157%);fill-opacity:1;" d="M 18.171875 49.597656 L 19.730469 49.597656 L 19.730469 46.761719 L 18.171875 46.761719 Z "/>
<path style=" stroke:none;fill-rule:evenodd;fill:rgb(45.882353%,94.901961%,40.392157%);fill-opacity:1;" d="M 12.785156 49.597656 L 14.34375 49.597656 L 14.34375 46.761719 L 12.785156 46.761719 Z "/>
<path style=" stroke:none;fill-rule:evenodd;fill:rgb(45.882353%,94.901961%,40.392157%);fill-opacity:1;" d="M 12.785156 41.945313 L 14.34375 41.945313 L 14.34375 39.109375 L 12.785156 39.109375 Z "/>
<path style=" stroke:none;fill-rule:evenodd;fill:rgb(45.882353%,94.901961%,40.392157%);fill-opacity:1;" d="M 15.480469 41.945313 L 17.039063 41.945313 L 17.039063 39.109375 L 15.480469 39.109375 Z "/>
<path style=" stroke:none;fill-rule:evenodd;fill:rgb(45.882353%,94.901961%,40.392157%);fill-opacity:1;" d="M 18.171875 41.945313 L 19.730469 41.945313 L 19.730469 39.109375 L 18.171875 39.109375 Z "/>
<path style=" stroke:none;fill-rule:evenodd;fill:rgb(45.882353%,94.901961%,40.392157%);fill-opacity:1;" d="M 12.425781 24.871094 L 13.871094 24.871094 L 13.871094 24.332031 L 12.425781 24.332031 Z "/>
<path style=" stroke:none;fill-rule:evenodd;fill:rgb(45.882353%,94.901961%,40.392157%);fill-opacity:1;" d="M 12.425781 23.878906 L 13.871094 23.878906 L 13.871094 23.339844 L 12.425781 23.339844 Z "/>
<path style=" stroke:none;fill-rule:evenodd;fill:rgb(45.882353%,94.901961%,40.392157%);fill-opacity:1;" d="M 12.425781 22.886719 L 13.871094 22.886719 L 13.871094 22.347656 L 12.425781 22.347656 Z "/>
<path style=" stroke:none;fill-rule:evenodd;fill:rgb(45.882353%,94.901961%,40.392157%);fill-opacity:1;" d="M 12.425781 21.894531 L 13.871094 21.894531 L 13.871094 21.355469 L 12.425781 21.355469 Z "/>
<path style=" stroke:none;fill-rule:evenodd;fill:rgb(45.882353%,94.901961%,40.392157%);fill-opacity:1;" d="M 14.328125 21.894531 L 15.773438 21.894531 L 15.773438 21.355469 L 14.328125 21.355469 Z "/>
<path style=" stroke:none;fill-rule:evenodd;fill:rgb(45.882353%,94.901961%,40.392157%);fill-opacity:1;" d="M 14.328125 22.886719 L 15.773438 22.886719 L 15.773438 22.347656 L 14.328125 22.347656 Z "/>
<path style=" stroke:none;fill-rule:evenodd;fill:rgb(45.882353%,94.901961%,40.392157%);fill-opacity:1;" d="M 14.328125 23.878906 L 15.773438 23.878906 L 15.773438 23.339844 L 14.328125 23.339844 Z "/>
<path style=" stroke:none;fill-rule:evenodd;fill:rgb(45.882353%,94.901961%,40.392157%);fill-opacity:1;" d="M 14.328125 24.871094 L 15.773438 24.871094 L 15.773438 24.332031 L 14.328125 24.332031 Z "/>
<path style=" stroke:none;fill-rule:evenodd;fill:rgb(45.882353%,94.901961%,40.392157%);fill-opacity:1;" d="M 8.828125 11.910156 L 10.273438 11.910156 L 10.273438 11.371094 L 8.828125 11.371094 Z "/>
<path style=" stroke:none;fill-rule:evenodd;fill:rgb(45.882353%,94.901961%,40.392157%);fill-opacity:1;" d="M 8.828125 10.917969 L 10.273438 10.917969 L 10.273438 10.378906 L 8.828125 10.378906 Z "/>
<path style=" stroke:none;fill-rule:evenodd;fill:rgb(45.882353%,94.901961%,40.392157%);fill-opacity:1;" d="M 8.828125 9.925781 L 10.273438 9.925781 L 10.273438 9.386719 L 8.828125 9.386719 Z "/>
<path style=" stroke:none;fill-rule:evenodd;fill:rgb(45.882353%,94.901961%,40.392157%);fill-opacity:1;" d="M 8.828125 8.933594 L 10.273438 8.933594 L 10.273438 8.394531 L 8.828125 8.394531 Z "/>
<path style=" stroke:none;fill-rule:evenodd;fill:rgb(45.882353%,94.901961%,40.392157%);fill-opacity:1;" d="M 10.726563 8.933594 L 12.171875 8.933594 L 12.171875 8.394531 L 10.726563 8.394531 Z "/>
<path style=" stroke:none;fill-rule:evenodd;fill:rgb(45.882353%,94.901961%,40.392157%);fill-opacity:1;" d="M 10.726563 9.925781 L 12.171875 9.925781 L 12.171875 9.386719 L 10.726563 9.386719 Z "/>
<path style=" stroke:none;fill-rule:evenodd;fill:rgb(45.882353%,94.901961%,40.392157%);fill-opacity:1;" d="M 10.726563 10.917969 L 12.171875 10.917969 L 12.171875 10.378906 L 10.726563 10.378906 Z "/>
<path style=" stroke:none;fill-rule:evenodd;fill:rgb(45.882353%,94.901961%,40.392157%);fill-opacity:1;" d="M 10.726563 11.910156 L 12.171875 11.910156 L 12.171875 11.371094 L 10.726563 11.371094 Z "/>
<path style=" stroke:none;fill-rule:evenodd;fill:rgb(45.882353%,94.901961%,40.392157%);fill-opacity:1;" d="M 3.105469 11.101563 L 5.65625 11.101563 L 5.65625 9.117188 L 3.105469 9.117188 Z "/>
<path style=" stroke:none;fill-rule:evenodd;fill:rgb(45.882353%,94.901961%,40.392157%);fill-opacity:1;" d="M 3.105469 14.789063 L 5.65625 14.789063 L 5.65625 12.804688 L 3.105469 12.804688 Z "/>
<path style=" stroke:none;fill-rule:evenodd;fill:rgb(45.882353%,94.901961%,40.392157%);fill-opacity:1;" d="M 10.628906 29.070313 L 12.613281 29.070313 L 12.613281 26.519531 L 10.628906 26.519531 Z "/>
<path style=" stroke:none;fill-rule:evenodd;fill:rgb(45.882353%,94.901961%,40.392157%);fill-opacity:1;" d="M 6.945313 29.070313 L 8.929688 29.070313 L 8.929688 26.519531 L 6.945313 26.519531 Z "/>
<path style=" stroke:none;fill-rule:evenodd;fill:rgb(45.882353%,94.901961%,40.392157%);fill-opacity:1;" d="M 3.824219 20.824219 L 6.375 20.824219 L 6.375 18.839844 L 3.824219 18.839844 Z "/>
<path style=" stroke:none;fill-rule:evenodd;fill:rgb(45.882353%,94.901961%,40.392157%);fill-opacity:1;" d="M 3.824219 24.507813 L 6.375 24.507813 L 6.375 22.523438 L 3.824219 22.523438 Z "/>
<path style=" stroke:none;fill-rule:evenodd;fill:rgb(45.882353%,94.901961%,40.392157%);fill-opacity:1;" d="M 7.0625 20.824219 L 9.613281 20.824219 L 9.613281 18.839844 L 7.0625 18.839844 Z "/>
<path style=" stroke:none;fill-rule:evenodd;fill:rgb(45.882353%,94.901961%,40.392157%);fill-opacity:1;" d="M 7.0625 24.507813 L 9.613281 24.507813 L 9.613281 22.523438 L 7.0625 22.523438 Z "/>
<path style=" stroke:none;fill-rule:evenodd;fill:rgb(45.882353%,94.901961%,40.392157%);fill-opacity:1;" d="M 7.664063 16.109375 L 9.648438 16.109375 L 9.648438 13.558594 L 7.664063 13.558594 Z "/>
<path style=" stroke:none;fill-rule:evenodd;fill:rgb(45.882353%,94.901961%,40.392157%);fill-opacity:1;" d="M 11.351563 16.109375 L 13.335938 16.109375 L 13.335938 13.558594 L 11.351563 13.558594 Z "/>
<path style=" stroke:none;fill-rule:evenodd;fill:rgb(45.882353%,94.901961%,40.392157%);fill-opacity:1;" d="M 15.585938 29.070313 L 17.570313 29.070313 L 17.570313 26.519531 L 15.585938 26.519531 Z "/>
<path style=" stroke:none;fill-rule:evenodd;fill:rgb(45.882353%,94.901961%,40.392157%);fill-opacity:1;" d="M 19.269531 29.070313 L 21.253906 29.070313 L 21.253906 26.519531 L 19.269531 26.519531 Z "/>
<path style=" stroke:none;fill-rule:evenodd;fill:rgb(45.882353%,94.901961%,40.392157%);fill-opacity:1;" d="M 2.789063 40.992188 L 5.339844 40.992188 L 5.339844 38.722656 L 2.789063 38.722656 Z "/>
<path style=" stroke:none;fill-rule:evenodd;fill:rgb(45.882353%,94.901961%,40.392157%);fill-opacity:1;" d="M 2.789063 46.378906 L 5.339844 46.378906 L 5.339844 44.109375 L 2.789063 44.109375 Z "/>
<path style=" stroke:none;fill-rule:evenodd;fill:rgb(45.882353%,94.901961%,40.392157%);fill-opacity:1;" d="M 8.742188 43.6875 L 11.292969 43.6875 L 11.292969 41.417969 L 8.742188 41.417969 Z "/>
<path style=" stroke:none;fill-rule:evenodd;fill:rgb(45.882353%,94.901961%,40.392157%);fill-opacity:1;" d="M 52.019531 9.660156 L 54.570313 9.660156 L 54.570313 7.390625 L 52.019531 7.390625 Z "/>
<path style=" stroke:none;fill-rule:evenodd;fill:rgb(45.882353%,94.901961%,40.392157%);fill-opacity:1;" d="M 52.019531 4.273438 L 54.570313 4.273438 L 54.570313 2.003906 L 52.019531 2.003906 Z "/>
<path style=" stroke:none;fill-rule:evenodd;fill:rgb(45.882353%,94.901961%,40.392157%);fill-opacity:1;" d="M 46.066406 6.964844 L 48.617188 6.964844 L 48.617188 4.695313 L 46.066406 4.695313 Z "/>
<path style=" stroke:none;fill-rule:evenodd;fill:rgb(45.882353%,94.901961%,40.392157%);fill-opacity:1;" d="M 52.019531 21.179688 L 54.570313 21.179688 L 54.570313 18.910156 L 52.019531 18.910156 Z "/>
<path style=" stroke:none;fill-rule:evenodd;fill:rgb(45.882353%,94.901961%,40.392157%);fill-opacity:1;" d="M 52.019531 15.792969 L 54.570313 15.792969 L 54.570313 13.523438 L 52.019531 13.523438 Z "/>
<path style=" stroke:none;fill-rule:evenodd;fill:rgb(45.882353%,94.901961%,40.392157%);fill-opacity:1;" d="M 46.066406 18.488281 L 48.617188 18.488281 L 48.617188 16.21875 L 46.066406 16.21875 Z "/>
<path style=" stroke:none;fill-rule:evenodd;fill:rgb(45.882353%,94.901961%,40.392157%);fill-opacity:1;" d="M 36.914063 4.371094 L 39.75 4.371094 L 39.75 1.535156 L 36.914063 1.535156 Z "/>
<path style=" stroke:none;fill-rule:evenodd;fill:rgb(45.882353%,94.901961%,40.392157%);fill-opacity:1;" d="M 41.730469 4.371094 L 44.566406 4.371094 L 44.566406 1.535156 L 41.730469 1.535156 Z "/>
<path style=" stroke:none;fill-rule:evenodd;fill:rgb(45.882353%,94.901961%,40.392157%);fill-opacity:1;" d="M 36.914063 10.128906 L 39.75 10.128906 L 39.75 7.292969 L 36.914063 7.292969 Z "/>
<path style=" stroke:none;fill-rule:evenodd;fill:rgb(45.882353%,94.901961%,40.392157%);fill-opacity:1;" d="M 41.730469 10.128906 L 44.566406 10.128906 L 44.566406 7.292969 L 41.730469 7.292969 Z "/>
<path style=" stroke:none;fill-rule:evenodd;fill:rgb(45.882353%,94.901961%,40.392157%);fill-opacity:1;" d="M 36.914063 21.648438 L 39.75 21.648438 L 39.75 18.8125 L 36.914063 18.8125 Z "/>
<path style=" stroke:none;fill-rule:evenodd;fill:rgb(45.882353%,94.901961%,40.392157%);fill-opacity:1;" d="M 41.730469 21.648438 L 44.566406 21.648438 L 44.566406 18.8125 L 41.730469 18.8125 Z "/>
<path style=" stroke:none;fill-rule:evenodd;fill:rgb(45.882353%,94.901961%,40.392157%);fill-opacity:1;" d="M 36.914063 15.890625 L 39.75 15.890625 L 39.75 13.054688 L 36.914063 13.054688 Z "/>
<path style=" stroke:none;fill-rule:evenodd;fill:rgb(45.882353%,94.901961%,40.392157%);fill-opacity:1;" d="M 41.730469 15.890625 L 44.566406 15.890625 L 44.566406 13.054688 L 41.730469 13.054688 Z "/>
</g>
</svg>
