G75*
%MOIN*%
%OFA0B0*%
%FSLAX25Y25*%
%IPPOS*%
%LPD*%
%AMOC8*
5,1,8,0,0,1.08239X$1,22.5*
%
%ADD10R,0.03937X0.04331*%
%ADD11R,0.03543X0.02756*%
%ADD12R,0.04724X0.02362*%
%ADD13R,0.01969X0.03937*%
%ADD14R,0.01378X0.03150*%
%ADD15C,0.07400*%
%ADD16C,0.01000*%
%ADD17C,0.02378*%
%ADD18C,0.01200*%
%ADD19C,0.01600*%
D10*
X0045154Y0042770D03*
X0051846Y0042770D03*
X0059000Y0041423D03*
X0059000Y0048116D03*
X0077000Y0047616D03*
X0077000Y0040923D03*
X0069500Y0021116D03*
X0069500Y0014423D03*
D11*
X0063000Y0054711D03*
X0063000Y0059829D03*
X0063000Y0066711D03*
X0063000Y0071829D03*
D12*
X0055024Y0070770D03*
X0055024Y0065770D03*
X0055024Y0060770D03*
X0055024Y0055770D03*
X0032976Y0055770D03*
X0032976Y0060770D03*
X0032976Y0065770D03*
X0032976Y0070770D03*
D13*
X0032500Y0036089D03*
X0037500Y0036089D03*
X0042500Y0036089D03*
X0047500Y0036089D03*
X0052500Y0036089D03*
X0057500Y0036089D03*
X0062500Y0036089D03*
X0062500Y0013451D03*
X0057500Y0013451D03*
X0052500Y0013451D03*
X0047500Y0013451D03*
X0042500Y0013451D03*
X0037500Y0013451D03*
X0032500Y0013451D03*
D14*
X0065441Y0041030D03*
X0070559Y0041030D03*
X0070559Y0048510D03*
X0068000Y0048510D03*
X0065441Y0048510D03*
D15*
X0015000Y0015013D03*
X0015000Y0025013D03*
X0015000Y0035013D03*
X0015000Y0045013D03*
X0015000Y0055013D03*
X0015000Y0065013D03*
X0095000Y0065013D03*
X0095000Y0055013D03*
X0095000Y0045013D03*
X0095000Y0035013D03*
X0095000Y0025013D03*
X0095000Y0015013D03*
D16*
X0052500Y0013451D02*
X0039584Y0026367D01*
X0034584Y0031367D01*
X0034584Y0038513D01*
X0033940Y0039157D01*
X0020856Y0039157D01*
X0015000Y0045013D01*
X0015000Y0048225D01*
X0008600Y0054625D01*
X0008600Y0067664D01*
X0012349Y0071413D01*
X0021895Y0071413D01*
X0027539Y0065770D01*
X0032976Y0065770D01*
X0032976Y0060770D02*
X0026032Y0060770D01*
X0016988Y0069813D01*
X0013012Y0069813D01*
X0010200Y0067002D01*
X0010200Y0063025D01*
X0015000Y0058225D01*
X0015000Y0055013D01*
X0032976Y0060770D02*
X0033075Y0060770D01*
X0035060Y0042923D02*
X0045001Y0042923D01*
X0045154Y0042770D01*
X0032500Y0036089D02*
X0021424Y0025013D01*
X0015000Y0025013D01*
X0013012Y0020213D02*
X0010200Y0023025D01*
X0010200Y0027002D01*
X0015000Y0031802D01*
X0015000Y0035013D01*
X0013012Y0020213D02*
X0030738Y0020213D01*
X0037500Y0013451D01*
X0037089Y0013862D01*
X0037008Y0013451D02*
X0037500Y0013451D01*
X0032500Y0013451D02*
X0029000Y0016770D01*
X0034584Y0026367D02*
X0047500Y0013451D01*
D17*
X0039584Y0026367D03*
X0034584Y0026367D03*
X0029000Y0016770D03*
X0035060Y0042923D03*
X0077500Y0023770D03*
X0082460Y0040007D03*
X0082500Y0043770D03*
D18*
X0080846Y0043770D01*
X0077000Y0047616D01*
X0073626Y0047616D01*
X0071745Y0045735D01*
X0068000Y0045735D01*
X0068000Y0048510D01*
X0066426Y0051285D02*
X0079253Y0051285D01*
X0090100Y0040438D01*
X0090100Y0032984D01*
X0095000Y0028084D01*
X0095000Y0025013D01*
X0095000Y0035013D02*
X0095000Y0038084D01*
X0083700Y0049384D01*
X0083700Y0058270D01*
X0082141Y0059829D01*
X0063000Y0059829D01*
X0062059Y0060770D01*
X0055024Y0060770D01*
X0055024Y0065770D02*
X0062059Y0065770D01*
X0063000Y0066711D01*
X0083059Y0066711D01*
X0085500Y0064270D01*
X0085500Y0054513D01*
X0095000Y0045013D01*
X0082460Y0040007D02*
X0081544Y0040923D01*
X0077000Y0040923D01*
X0074414Y0040923D01*
X0071745Y0038255D01*
X0068216Y0038255D01*
X0065441Y0041030D01*
X0062500Y0041270D02*
X0062346Y0041423D01*
X0059000Y0041423D01*
X0057654Y0042770D01*
X0051846Y0042770D01*
X0051846Y0053707D01*
X0051461Y0054092D01*
X0051461Y0066809D01*
X0047500Y0070770D01*
X0032976Y0070770D01*
X0024243Y0055770D02*
X0015000Y0065013D01*
X0024243Y0055770D02*
X0032976Y0055770D01*
X0045154Y0042770D02*
X0047500Y0040423D01*
X0047500Y0036089D01*
X0062500Y0036089D02*
X0062500Y0028116D01*
X0069500Y0021116D01*
X0073154Y0014423D02*
X0077500Y0018770D01*
X0077500Y0023770D01*
X0073154Y0014423D02*
X0069500Y0014423D01*
X0068528Y0013451D01*
X0062500Y0013451D01*
X0062500Y0036089D02*
X0062500Y0041270D01*
X0062500Y0042050D01*
X0064255Y0043805D01*
X0066627Y0043805D01*
X0069402Y0041030D01*
X0070559Y0041030D01*
X0068000Y0045735D02*
X0064255Y0045735D01*
X0061874Y0048116D01*
X0059000Y0048116D01*
X0063000Y0054711D02*
X0066426Y0051285D01*
X0063000Y0054711D02*
X0061941Y0055770D01*
X0055024Y0055770D01*
X0055024Y0070770D02*
X0061941Y0070770D01*
X0063000Y0071829D01*
X0084441Y0071829D01*
X0087500Y0068770D01*
X0087500Y0057770D01*
X0090257Y0055013D01*
X0095000Y0055013D01*
D19*
X0077000Y0040923D02*
X0077000Y0033135D01*
X0077834Y0032301D01*
X0077834Y0032179D01*
X0095000Y0015013D01*
M02*
