G75*
%MOIN*%
%OFA0B0*%
%FSLAX25Y25*%
%IPPOS*%
%LPD*%
%AMOC8*
5,1,8,0,0,1.08239X$1,22.5*
%
%ADD10C,0.00000*%
D10*
X0006000Y0007270D02*
X0103921Y0007270D01*
X0104061Y0007272D01*
X0104201Y0007278D01*
X0104341Y0007288D01*
X0104481Y0007301D01*
X0104620Y0007319D01*
X0104759Y0007341D01*
X0104896Y0007366D01*
X0105034Y0007395D01*
X0105170Y0007428D01*
X0105305Y0007465D01*
X0105439Y0007506D01*
X0105572Y0007551D01*
X0105704Y0007599D01*
X0105834Y0007651D01*
X0105963Y0007706D01*
X0106090Y0007765D01*
X0106216Y0007828D01*
X0106340Y0007894D01*
X0106461Y0007963D01*
X0106581Y0008036D01*
X0106699Y0008113D01*
X0106814Y0008192D01*
X0106928Y0008275D01*
X0107038Y0008361D01*
X0107147Y0008450D01*
X0107253Y0008542D01*
X0107356Y0008637D01*
X0107457Y0008734D01*
X0107554Y0008835D01*
X0107649Y0008938D01*
X0107741Y0009044D01*
X0107830Y0009153D01*
X0107916Y0009263D01*
X0107999Y0009377D01*
X0108078Y0009492D01*
X0108155Y0009610D01*
X0108228Y0009730D01*
X0108297Y0009851D01*
X0108363Y0009975D01*
X0108426Y0010101D01*
X0108485Y0010228D01*
X0108540Y0010357D01*
X0108592Y0010487D01*
X0108640Y0010619D01*
X0108685Y0010752D01*
X0108726Y0010886D01*
X0108763Y0011021D01*
X0108796Y0011157D01*
X0108825Y0011295D01*
X0108850Y0011432D01*
X0108872Y0011571D01*
X0108890Y0011710D01*
X0108903Y0011850D01*
X0108913Y0011990D01*
X0108919Y0012130D01*
X0108921Y0012270D01*
X0108921Y0072971D01*
X0108919Y0073111D01*
X0108913Y0073251D01*
X0108903Y0073391D01*
X0108890Y0073531D01*
X0108872Y0073670D01*
X0108850Y0073809D01*
X0108825Y0073946D01*
X0108796Y0074084D01*
X0108763Y0074220D01*
X0108726Y0074355D01*
X0108685Y0074489D01*
X0108640Y0074622D01*
X0108592Y0074754D01*
X0108540Y0074884D01*
X0108485Y0075013D01*
X0108426Y0075140D01*
X0108363Y0075266D01*
X0108297Y0075390D01*
X0108228Y0075511D01*
X0108155Y0075631D01*
X0108078Y0075749D01*
X0107999Y0075864D01*
X0107916Y0075978D01*
X0107830Y0076088D01*
X0107741Y0076197D01*
X0107649Y0076303D01*
X0107554Y0076406D01*
X0107457Y0076507D01*
X0107356Y0076604D01*
X0107253Y0076699D01*
X0107147Y0076791D01*
X0107038Y0076880D01*
X0106928Y0076966D01*
X0106814Y0077049D01*
X0106699Y0077128D01*
X0106581Y0077205D01*
X0106461Y0077278D01*
X0106340Y0077347D01*
X0106216Y0077413D01*
X0106090Y0077476D01*
X0105963Y0077535D01*
X0105834Y0077590D01*
X0105704Y0077642D01*
X0105572Y0077690D01*
X0105439Y0077735D01*
X0105305Y0077776D01*
X0105170Y0077813D01*
X0105034Y0077846D01*
X0104896Y0077875D01*
X0104759Y0077900D01*
X0104620Y0077922D01*
X0104481Y0077940D01*
X0104341Y0077953D01*
X0104201Y0077963D01*
X0104061Y0077969D01*
X0103921Y0077971D01*
X0006000Y0077971D01*
X0005860Y0077969D01*
X0005720Y0077963D01*
X0005580Y0077953D01*
X0005440Y0077940D01*
X0005301Y0077922D01*
X0005162Y0077900D01*
X0005025Y0077875D01*
X0004887Y0077846D01*
X0004751Y0077813D01*
X0004616Y0077776D01*
X0004482Y0077735D01*
X0004349Y0077690D01*
X0004217Y0077642D01*
X0004087Y0077590D01*
X0003958Y0077535D01*
X0003831Y0077476D01*
X0003705Y0077413D01*
X0003581Y0077347D01*
X0003460Y0077278D01*
X0003340Y0077205D01*
X0003222Y0077128D01*
X0003107Y0077049D01*
X0002993Y0076966D01*
X0002883Y0076880D01*
X0002774Y0076791D01*
X0002668Y0076699D01*
X0002565Y0076604D01*
X0002464Y0076507D01*
X0002367Y0076406D01*
X0002272Y0076303D01*
X0002180Y0076197D01*
X0002091Y0076088D01*
X0002005Y0075978D01*
X0001922Y0075864D01*
X0001843Y0075749D01*
X0001766Y0075631D01*
X0001693Y0075511D01*
X0001624Y0075390D01*
X0001558Y0075266D01*
X0001495Y0075140D01*
X0001436Y0075013D01*
X0001381Y0074884D01*
X0001329Y0074754D01*
X0001281Y0074622D01*
X0001236Y0074489D01*
X0001195Y0074355D01*
X0001158Y0074220D01*
X0001125Y0074084D01*
X0001096Y0073946D01*
X0001071Y0073809D01*
X0001049Y0073670D01*
X0001031Y0073531D01*
X0001018Y0073391D01*
X0001008Y0073251D01*
X0001002Y0073111D01*
X0001000Y0072971D01*
X0001000Y0012270D01*
X0001002Y0012130D01*
X0001008Y0011990D01*
X0001018Y0011850D01*
X0001031Y0011710D01*
X0001049Y0011571D01*
X0001071Y0011432D01*
X0001096Y0011295D01*
X0001125Y0011157D01*
X0001158Y0011021D01*
X0001195Y0010886D01*
X0001236Y0010752D01*
X0001281Y0010619D01*
X0001329Y0010487D01*
X0001381Y0010357D01*
X0001436Y0010228D01*
X0001495Y0010101D01*
X0001558Y0009975D01*
X0001624Y0009851D01*
X0001693Y0009730D01*
X0001766Y0009610D01*
X0001843Y0009492D01*
X0001922Y0009377D01*
X0002005Y0009263D01*
X0002091Y0009153D01*
X0002180Y0009044D01*
X0002272Y0008938D01*
X0002367Y0008835D01*
X0002464Y0008734D01*
X0002565Y0008637D01*
X0002668Y0008542D01*
X0002774Y0008450D01*
X0002883Y0008361D01*
X0002993Y0008275D01*
X0003107Y0008192D01*
X0003222Y0008113D01*
X0003340Y0008036D01*
X0003460Y0007963D01*
X0003581Y0007894D01*
X0003705Y0007828D01*
X0003831Y0007765D01*
X0003958Y0007706D01*
X0004087Y0007651D01*
X0004217Y0007599D01*
X0004349Y0007551D01*
X0004482Y0007506D01*
X0004616Y0007465D01*
X0004751Y0007428D01*
X0004887Y0007395D01*
X0005025Y0007366D01*
X0005162Y0007341D01*
X0005301Y0007319D01*
X0005440Y0007301D01*
X0005580Y0007288D01*
X0005720Y0007278D01*
X0005860Y0007272D01*
X0006000Y0007270D01*
X0069097Y0029497D02*
X0069099Y0029585D01*
X0069105Y0029673D01*
X0069115Y0029761D01*
X0069129Y0029849D01*
X0069146Y0029935D01*
X0069168Y0030021D01*
X0069193Y0030105D01*
X0069223Y0030189D01*
X0069255Y0030271D01*
X0069292Y0030351D01*
X0069332Y0030430D01*
X0069376Y0030507D01*
X0069423Y0030582D01*
X0069473Y0030654D01*
X0069527Y0030725D01*
X0069583Y0030792D01*
X0069643Y0030858D01*
X0069705Y0030920D01*
X0069771Y0030980D01*
X0069838Y0031036D01*
X0069909Y0031090D01*
X0069981Y0031140D01*
X0070056Y0031187D01*
X0070133Y0031231D01*
X0070212Y0031271D01*
X0070292Y0031308D01*
X0070374Y0031340D01*
X0070458Y0031370D01*
X0070542Y0031395D01*
X0070628Y0031417D01*
X0070714Y0031434D01*
X0070802Y0031448D01*
X0070890Y0031458D01*
X0070978Y0031464D01*
X0071066Y0031466D01*
X0071154Y0031464D01*
X0071242Y0031458D01*
X0071330Y0031448D01*
X0071418Y0031434D01*
X0071504Y0031417D01*
X0071590Y0031395D01*
X0071674Y0031370D01*
X0071758Y0031340D01*
X0071840Y0031308D01*
X0071920Y0031271D01*
X0071999Y0031231D01*
X0072076Y0031187D01*
X0072151Y0031140D01*
X0072223Y0031090D01*
X0072294Y0031036D01*
X0072361Y0030980D01*
X0072427Y0030920D01*
X0072489Y0030858D01*
X0072549Y0030792D01*
X0072605Y0030725D01*
X0072659Y0030654D01*
X0072709Y0030582D01*
X0072756Y0030507D01*
X0072800Y0030430D01*
X0072840Y0030351D01*
X0072877Y0030271D01*
X0072909Y0030189D01*
X0072939Y0030105D01*
X0072964Y0030021D01*
X0072986Y0029935D01*
X0073003Y0029849D01*
X0073017Y0029761D01*
X0073027Y0029673D01*
X0073033Y0029585D01*
X0073035Y0029497D01*
X0073033Y0029409D01*
X0073027Y0029321D01*
X0073017Y0029233D01*
X0073003Y0029145D01*
X0072986Y0029059D01*
X0072964Y0028973D01*
X0072939Y0028889D01*
X0072909Y0028805D01*
X0072877Y0028723D01*
X0072840Y0028643D01*
X0072800Y0028564D01*
X0072756Y0028487D01*
X0072709Y0028412D01*
X0072659Y0028340D01*
X0072605Y0028269D01*
X0072549Y0028202D01*
X0072489Y0028136D01*
X0072427Y0028074D01*
X0072361Y0028014D01*
X0072294Y0027958D01*
X0072223Y0027904D01*
X0072151Y0027854D01*
X0072076Y0027807D01*
X0071999Y0027763D01*
X0071920Y0027723D01*
X0071840Y0027686D01*
X0071758Y0027654D01*
X0071674Y0027624D01*
X0071590Y0027599D01*
X0071504Y0027577D01*
X0071418Y0027560D01*
X0071330Y0027546D01*
X0071242Y0027536D01*
X0071154Y0027530D01*
X0071066Y0027528D01*
X0070978Y0027530D01*
X0070890Y0027536D01*
X0070802Y0027546D01*
X0070714Y0027560D01*
X0070628Y0027577D01*
X0070542Y0027599D01*
X0070458Y0027624D01*
X0070374Y0027654D01*
X0070292Y0027686D01*
X0070212Y0027723D01*
X0070133Y0027763D01*
X0070056Y0027807D01*
X0069981Y0027854D01*
X0069909Y0027904D01*
X0069838Y0027958D01*
X0069771Y0028014D01*
X0069705Y0028074D01*
X0069643Y0028136D01*
X0069583Y0028202D01*
X0069527Y0028269D01*
X0069473Y0028340D01*
X0069423Y0028412D01*
X0069376Y0028487D01*
X0069332Y0028564D01*
X0069292Y0028643D01*
X0069255Y0028723D01*
X0069223Y0028805D01*
X0069193Y0028889D01*
X0069168Y0028973D01*
X0069146Y0029059D01*
X0069129Y0029145D01*
X0069115Y0029233D01*
X0069105Y0029321D01*
X0069099Y0029409D01*
X0069097Y0029497D01*
X0041258Y0057336D02*
X0041260Y0057424D01*
X0041266Y0057512D01*
X0041276Y0057600D01*
X0041290Y0057688D01*
X0041307Y0057774D01*
X0041329Y0057860D01*
X0041354Y0057944D01*
X0041384Y0058028D01*
X0041416Y0058110D01*
X0041453Y0058190D01*
X0041493Y0058269D01*
X0041537Y0058346D01*
X0041584Y0058421D01*
X0041634Y0058493D01*
X0041688Y0058564D01*
X0041744Y0058631D01*
X0041804Y0058697D01*
X0041866Y0058759D01*
X0041932Y0058819D01*
X0041999Y0058875D01*
X0042070Y0058929D01*
X0042142Y0058979D01*
X0042217Y0059026D01*
X0042294Y0059070D01*
X0042373Y0059110D01*
X0042453Y0059147D01*
X0042535Y0059179D01*
X0042619Y0059209D01*
X0042703Y0059234D01*
X0042789Y0059256D01*
X0042875Y0059273D01*
X0042963Y0059287D01*
X0043051Y0059297D01*
X0043139Y0059303D01*
X0043227Y0059305D01*
X0043315Y0059303D01*
X0043403Y0059297D01*
X0043491Y0059287D01*
X0043579Y0059273D01*
X0043665Y0059256D01*
X0043751Y0059234D01*
X0043835Y0059209D01*
X0043919Y0059179D01*
X0044001Y0059147D01*
X0044081Y0059110D01*
X0044160Y0059070D01*
X0044237Y0059026D01*
X0044312Y0058979D01*
X0044384Y0058929D01*
X0044455Y0058875D01*
X0044522Y0058819D01*
X0044588Y0058759D01*
X0044650Y0058697D01*
X0044710Y0058631D01*
X0044766Y0058564D01*
X0044820Y0058493D01*
X0044870Y0058421D01*
X0044917Y0058346D01*
X0044961Y0058269D01*
X0045001Y0058190D01*
X0045038Y0058110D01*
X0045070Y0058028D01*
X0045100Y0057944D01*
X0045125Y0057860D01*
X0045147Y0057774D01*
X0045164Y0057688D01*
X0045178Y0057600D01*
X0045188Y0057512D01*
X0045194Y0057424D01*
X0045196Y0057336D01*
X0045194Y0057248D01*
X0045188Y0057160D01*
X0045178Y0057072D01*
X0045164Y0056984D01*
X0045147Y0056898D01*
X0045125Y0056812D01*
X0045100Y0056728D01*
X0045070Y0056644D01*
X0045038Y0056562D01*
X0045001Y0056482D01*
X0044961Y0056403D01*
X0044917Y0056326D01*
X0044870Y0056251D01*
X0044820Y0056179D01*
X0044766Y0056108D01*
X0044710Y0056041D01*
X0044650Y0055975D01*
X0044588Y0055913D01*
X0044522Y0055853D01*
X0044455Y0055797D01*
X0044384Y0055743D01*
X0044312Y0055693D01*
X0044237Y0055646D01*
X0044160Y0055602D01*
X0044081Y0055562D01*
X0044001Y0055525D01*
X0043919Y0055493D01*
X0043835Y0055463D01*
X0043751Y0055438D01*
X0043665Y0055416D01*
X0043579Y0055399D01*
X0043491Y0055385D01*
X0043403Y0055375D01*
X0043315Y0055369D01*
X0043227Y0055367D01*
X0043139Y0055369D01*
X0043051Y0055375D01*
X0042963Y0055385D01*
X0042875Y0055399D01*
X0042789Y0055416D01*
X0042703Y0055438D01*
X0042619Y0055463D01*
X0042535Y0055493D01*
X0042453Y0055525D01*
X0042373Y0055562D01*
X0042294Y0055602D01*
X0042217Y0055646D01*
X0042142Y0055693D01*
X0042070Y0055743D01*
X0041999Y0055797D01*
X0041932Y0055853D01*
X0041866Y0055913D01*
X0041804Y0055975D01*
X0041744Y0056041D01*
X0041688Y0056108D01*
X0041634Y0056179D01*
X0041584Y0056251D01*
X0041537Y0056326D01*
X0041493Y0056403D01*
X0041453Y0056482D01*
X0041416Y0056562D01*
X0041384Y0056644D01*
X0041354Y0056728D01*
X0041329Y0056812D01*
X0041307Y0056898D01*
X0041290Y0056984D01*
X0041276Y0057072D01*
X0041266Y0057160D01*
X0041260Y0057248D01*
X0041258Y0057336D01*
M02*
