%
M48
M72
T01C0.01378
T02C0.03937
T03C0.04000
%
T01
X35060Y42923
X82500Y43770
X82460Y40007
X77500Y23770
X39584Y26367
X34584Y26367
X29000Y16770
T02
X43227Y57336
X71066Y29497
T03
X15000Y15013
X15000Y25013
X15000Y35013
X15000Y45013
X15000Y55013
X15000Y65013
X95000Y65013
X95000Y55013
X95000Y45013
X95000Y35013
X95000Y25013
X95000Y15013
M30
