G75*
%MOIN*%
%OFA0B0*%
%FSLAX25Y25*%
%IPPOS*%
%LPD*%
%AMOC8*
5,1,8,0,0,1.08239X$1,22.5*
%
%ADD10R,0.04437X0.04831*%
%ADD11R,0.04043X0.03256*%
%ADD12R,0.05224X0.02862*%
%ADD13R,0.02469X0.04437*%
%ADD14R,0.01878X0.03650*%
%ADD15C,0.07900*%
%ADD16C,0.04437*%
%ADD17C,0.02878*%
D10*
X0045154Y0042770D03*
X0051846Y0042770D03*
X0059000Y0041423D03*
X0059000Y0048116D03*
X0077000Y0047616D03*
X0077000Y0040923D03*
X0069500Y0021116D03*
X0069500Y0014423D03*
D11*
X0063000Y0054711D03*
X0063000Y0059829D03*
X0063000Y0066711D03*
X0063000Y0071829D03*
D12*
X0055024Y0070770D03*
X0055024Y0065770D03*
X0055024Y0060770D03*
X0055024Y0055770D03*
X0032976Y0055770D03*
X0032976Y0060770D03*
X0032976Y0065770D03*
X0032976Y0070770D03*
D13*
X0032500Y0036089D03*
X0037500Y0036089D03*
X0042500Y0036089D03*
X0047500Y0036089D03*
X0052500Y0036089D03*
X0057500Y0036089D03*
X0062500Y0036089D03*
X0062500Y0013451D03*
X0057500Y0013451D03*
X0052500Y0013451D03*
X0047500Y0013451D03*
X0042500Y0013451D03*
X0037500Y0013451D03*
X0032500Y0013451D03*
D14*
X0065441Y0041030D03*
X0070559Y0041030D03*
X0070559Y0048510D03*
X0068000Y0048510D03*
X0065441Y0048510D03*
D15*
X0015000Y0015013D03*
X0015000Y0025013D03*
X0015000Y0035013D03*
X0015000Y0045013D03*
X0015000Y0055013D03*
X0015000Y0065013D03*
X0095000Y0065013D03*
X0095000Y0055013D03*
X0095000Y0045013D03*
X0095000Y0035013D03*
X0095000Y0025013D03*
X0095000Y0015013D03*
D16*
X0071066Y0029497D03*
X0043227Y0057336D03*
D17*
X0035060Y0042923D03*
X0034584Y0026367D03*
X0039584Y0026367D03*
X0029000Y0016770D03*
X0077500Y0023770D03*
X0082460Y0040007D03*
X0082500Y0043770D03*
M02*
