G75*
%MOIN*%
%OFA0B0*%
%FSLAX25Y25*%
%IPPOS*%
%LPD*%
%AMOC8*
5,1,8,0,0,1.08239X$1,22.5*
%
%ADD10C,0.07900*%
%ADD11R,0.04437X0.11327*%
%ADD12C,0.04437*%
%ADD13C,0.02878*%
D10*
X0015000Y0015013D03*
X0015000Y0025013D03*
X0015000Y0035013D03*
X0015000Y0045013D03*
X0015000Y0055013D03*
X0015000Y0065013D03*
X0095000Y0065013D03*
X0095000Y0055013D03*
X0095000Y0045013D03*
X0095000Y0035013D03*
X0095000Y0025013D03*
X0095000Y0015013D03*
D11*
G36*
X0082270Y0038270D02*
X0085407Y0035133D01*
X0077400Y0027126D01*
X0074263Y0030263D01*
X0082270Y0038270D01*
G37*
G36*
X0076702Y0043838D02*
X0079839Y0040701D01*
X0071832Y0032694D01*
X0068695Y0035831D01*
X0076702Y0043838D01*
G37*
G36*
X0071135Y0049406D02*
X0074272Y0046269D01*
X0066265Y0038262D01*
X0063128Y0041399D01*
X0071135Y0049406D01*
G37*
G36*
X0065567Y0054974D02*
X0068704Y0051837D01*
X0060697Y0043830D01*
X0057560Y0046967D01*
X0065567Y0054974D01*
G37*
G36*
X0055129Y0049398D02*
X0051992Y0052535D01*
X0059999Y0060542D01*
X0063136Y0057405D01*
X0055129Y0049398D01*
G37*
G36*
X0043158Y0037427D02*
X0040021Y0040564D01*
X0048028Y0048571D01*
X0051165Y0045434D01*
X0043158Y0037427D01*
G37*
G36*
X0053596Y0043003D02*
X0056733Y0039866D01*
X0048726Y0031859D01*
X0045589Y0034996D01*
X0053596Y0043003D01*
G37*
G36*
X0042461Y0054139D02*
X0045598Y0051002D01*
X0037591Y0042995D01*
X0034454Y0046132D01*
X0042461Y0054139D01*
G37*
G36*
X0036893Y0059706D02*
X0040030Y0056569D01*
X0032023Y0048562D01*
X0028886Y0051699D01*
X0036893Y0059706D01*
G37*
G36*
X0048863Y0071677D02*
X0052000Y0068540D01*
X0043993Y0060533D01*
X0040856Y0063670D01*
X0048863Y0071677D01*
G37*
G36*
X0054431Y0066109D02*
X0057568Y0062972D01*
X0049561Y0054965D01*
X0046424Y0058102D01*
X0054431Y0066109D01*
G37*
G36*
X0059164Y0037435D02*
X0062301Y0034298D01*
X0054294Y0026291D01*
X0051157Y0029428D01*
X0059164Y0037435D01*
G37*
G36*
X0064732Y0031867D02*
X0067869Y0028730D01*
X0059862Y0020723D01*
X0056725Y0023860D01*
X0064732Y0031867D01*
G37*
G36*
X0070299Y0026300D02*
X0073436Y0023163D01*
X0065429Y0015156D01*
X0062292Y0018293D01*
X0070299Y0026300D01*
G37*
D12*
X0071066Y0029497D03*
X0043227Y0057336D03*
D13*
X0035060Y0042923D03*
X0034584Y0026367D03*
X0039584Y0026367D03*
X0029000Y0016770D03*
X0077500Y0023770D03*
X0082460Y0040007D03*
X0082500Y0043770D03*
M02*
