G75*
%MOIN*%
%OFA0B0*%
%FSLAX25Y25*%
%IPPOS*%
%LPD*%
%AMOC8*
5,1,8,0,0,1.08239X$1,22.5*
%
%ADD10C,0.00500*%
%ADD11C,0.00800*%
%ADD12C,0.00600*%
%ADD13R,0.03937X0.03937*%
%ADD14C,0.00787*%
%ADD15C,0.01000*%
D10*
X0006620Y0013520D02*
X0005720Y0016220D01*
X0007520Y0016220D02*
X0006620Y0013520D01*
X0008750Y0014120D02*
X0008750Y0014420D01*
X0008752Y0014467D01*
X0008757Y0014514D01*
X0008767Y0014560D01*
X0008779Y0014605D01*
X0008796Y0014650D01*
X0008815Y0014692D01*
X0008838Y0014733D01*
X0008865Y0014773D01*
X0008894Y0014810D01*
X0008926Y0014844D01*
X0008960Y0014876D01*
X0008997Y0014905D01*
X0009037Y0014932D01*
X0009078Y0014955D01*
X0009120Y0014974D01*
X0009165Y0014991D01*
X0009210Y0015003D01*
X0009256Y0015013D01*
X0009303Y0015018D01*
X0009350Y0015020D01*
X0010250Y0015020D01*
X0010250Y0016220D01*
X0008750Y0016220D01*
X0008750Y0014120D02*
X0008752Y0014073D01*
X0008757Y0014026D01*
X0008767Y0013980D01*
X0008779Y0013935D01*
X0008796Y0013890D01*
X0008815Y0013848D01*
X0008838Y0013807D01*
X0008865Y0013767D01*
X0008894Y0013730D01*
X0008926Y0013696D01*
X0008960Y0013664D01*
X0008997Y0013635D01*
X0009037Y0013608D01*
X0009078Y0013585D01*
X0009120Y0013566D01*
X0009165Y0013549D01*
X0009210Y0013537D01*
X0009256Y0013527D01*
X0009303Y0013522D01*
X0009350Y0013520D01*
X0010250Y0013520D01*
X0007370Y0023520D02*
X0006620Y0023520D01*
X0006566Y0023522D01*
X0006513Y0023528D01*
X0006461Y0023537D01*
X0006409Y0023550D01*
X0006358Y0023567D01*
X0006308Y0023588D01*
X0006261Y0023612D01*
X0006215Y0023639D01*
X0006171Y0023670D01*
X0006129Y0023703D01*
X0006090Y0023740D01*
X0006053Y0023779D01*
X0006020Y0023821D01*
X0005989Y0023865D01*
X0005962Y0023911D01*
X0005938Y0023958D01*
X0005917Y0024008D01*
X0005900Y0024059D01*
X0005887Y0024111D01*
X0005878Y0024163D01*
X0005872Y0024216D01*
X0005870Y0024270D01*
X0005870Y0025470D01*
X0005872Y0025524D01*
X0005878Y0025577D01*
X0005887Y0025629D01*
X0005900Y0025681D01*
X0005917Y0025732D01*
X0005938Y0025782D01*
X0005962Y0025829D01*
X0005989Y0025875D01*
X0006020Y0025919D01*
X0006053Y0025961D01*
X0006090Y0026000D01*
X0006129Y0026037D01*
X0006171Y0026070D01*
X0006215Y0026101D01*
X0006261Y0026128D01*
X0006308Y0026152D01*
X0006358Y0026173D01*
X0006409Y0026190D01*
X0006461Y0026203D01*
X0006513Y0026212D01*
X0006566Y0026218D01*
X0006620Y0026220D01*
X0007370Y0026220D01*
X0007370Y0023520D01*
X0009050Y0024645D02*
X0009875Y0025095D01*
X0009575Y0026220D02*
X0009509Y0026218D01*
X0009444Y0026212D01*
X0009379Y0026203D01*
X0009314Y0026189D01*
X0009251Y0026172D01*
X0009188Y0026151D01*
X0009127Y0026127D01*
X0009068Y0026099D01*
X0009010Y0026068D01*
X0008954Y0026033D01*
X0008900Y0025995D01*
X0009875Y0025095D02*
X0009916Y0025122D01*
X0009955Y0025151D01*
X0009991Y0025184D01*
X0010024Y0025219D01*
X0010055Y0025257D01*
X0010082Y0025297D01*
X0010106Y0025339D01*
X0010127Y0025383D01*
X0010144Y0025429D01*
X0010158Y0025475D01*
X0010167Y0025523D01*
X0010173Y0025571D01*
X0010175Y0025620D01*
X0010173Y0025667D01*
X0010168Y0025714D01*
X0010158Y0025760D01*
X0010146Y0025805D01*
X0010129Y0025850D01*
X0010110Y0025892D01*
X0010087Y0025933D01*
X0010060Y0025973D01*
X0010031Y0026010D01*
X0009999Y0026044D01*
X0009965Y0026076D01*
X0009928Y0026105D01*
X0009888Y0026132D01*
X0009847Y0026155D01*
X0009805Y0026174D01*
X0009760Y0026191D01*
X0009715Y0026203D01*
X0009669Y0026213D01*
X0009622Y0026218D01*
X0009575Y0026220D01*
X0010250Y0023895D02*
X0010201Y0023849D01*
X0010151Y0023805D01*
X0010098Y0023764D01*
X0010043Y0023727D01*
X0009987Y0023692D01*
X0009928Y0023660D01*
X0009868Y0023631D01*
X0009806Y0023605D01*
X0009744Y0023583D01*
X0009680Y0023564D01*
X0009615Y0023548D01*
X0009549Y0023536D01*
X0009483Y0023527D01*
X0009417Y0023522D01*
X0009350Y0023520D01*
X0009303Y0023522D01*
X0009256Y0023527D01*
X0009210Y0023537D01*
X0009165Y0023549D01*
X0009120Y0023566D01*
X0009078Y0023585D01*
X0009037Y0023608D01*
X0008997Y0023635D01*
X0008960Y0023664D01*
X0008926Y0023696D01*
X0008894Y0023730D01*
X0008865Y0023767D01*
X0008838Y0023807D01*
X0008815Y0023848D01*
X0008796Y0023890D01*
X0008779Y0023935D01*
X0008767Y0023980D01*
X0008757Y0024026D01*
X0008752Y0024073D01*
X0008750Y0024120D01*
X0008752Y0024169D01*
X0008758Y0024217D01*
X0008767Y0024265D01*
X0008781Y0024311D01*
X0008798Y0024357D01*
X0008819Y0024401D01*
X0008843Y0024443D01*
X0008870Y0024483D01*
X0008901Y0024521D01*
X0008934Y0024556D01*
X0008970Y0024589D01*
X0009009Y0024618D01*
X0009050Y0024645D01*
X0004544Y0023520D02*
X0003644Y0026220D01*
X0002744Y0023520D01*
X0002969Y0024195D02*
X0004319Y0024195D01*
X0003762Y0033520D02*
X0004962Y0033520D01*
X0004962Y0036220D01*
X0006278Y0036220D02*
X0006878Y0036220D01*
X0006925Y0036218D01*
X0006972Y0036213D01*
X0007018Y0036203D01*
X0007063Y0036191D01*
X0007108Y0036174D01*
X0007150Y0036155D01*
X0007191Y0036132D01*
X0007231Y0036105D01*
X0007268Y0036076D01*
X0007302Y0036044D01*
X0007334Y0036010D01*
X0007363Y0035973D01*
X0007390Y0035933D01*
X0007413Y0035892D01*
X0007432Y0035850D01*
X0007449Y0035805D01*
X0007461Y0035760D01*
X0007471Y0035714D01*
X0007476Y0035667D01*
X0007478Y0035620D01*
X0007478Y0034120D01*
X0007476Y0034073D01*
X0007471Y0034026D01*
X0007461Y0033980D01*
X0007449Y0033935D01*
X0007432Y0033890D01*
X0007413Y0033848D01*
X0007390Y0033807D01*
X0007363Y0033767D01*
X0007334Y0033730D01*
X0007302Y0033696D01*
X0007268Y0033664D01*
X0007231Y0033635D01*
X0007191Y0033608D01*
X0007150Y0033585D01*
X0007108Y0033566D01*
X0007063Y0033549D01*
X0007018Y0033537D01*
X0006972Y0033527D01*
X0006925Y0033522D01*
X0006878Y0033520D01*
X0006278Y0033520D01*
X0009050Y0034645D02*
X0009875Y0035095D01*
X0009575Y0036220D02*
X0009509Y0036218D01*
X0009444Y0036212D01*
X0009379Y0036203D01*
X0009314Y0036189D01*
X0009251Y0036172D01*
X0009188Y0036151D01*
X0009127Y0036127D01*
X0009068Y0036099D01*
X0009010Y0036068D01*
X0008954Y0036033D01*
X0008900Y0035995D01*
X0009875Y0035095D02*
X0009916Y0035122D01*
X0009955Y0035151D01*
X0009991Y0035184D01*
X0010024Y0035219D01*
X0010055Y0035257D01*
X0010082Y0035297D01*
X0010106Y0035339D01*
X0010127Y0035383D01*
X0010144Y0035429D01*
X0010158Y0035475D01*
X0010167Y0035523D01*
X0010173Y0035571D01*
X0010175Y0035620D01*
X0010173Y0035667D01*
X0010168Y0035714D01*
X0010158Y0035760D01*
X0010146Y0035805D01*
X0010129Y0035850D01*
X0010110Y0035892D01*
X0010087Y0035933D01*
X0010060Y0035973D01*
X0010031Y0036010D01*
X0009999Y0036044D01*
X0009965Y0036076D01*
X0009928Y0036105D01*
X0009888Y0036132D01*
X0009847Y0036155D01*
X0009805Y0036174D01*
X0009760Y0036191D01*
X0009715Y0036203D01*
X0009669Y0036213D01*
X0009622Y0036218D01*
X0009575Y0036220D01*
X0010250Y0033895D02*
X0010201Y0033849D01*
X0010151Y0033805D01*
X0010098Y0033764D01*
X0010043Y0033727D01*
X0009987Y0033692D01*
X0009928Y0033660D01*
X0009868Y0033631D01*
X0009806Y0033605D01*
X0009744Y0033583D01*
X0009680Y0033564D01*
X0009615Y0033548D01*
X0009549Y0033536D01*
X0009483Y0033527D01*
X0009417Y0033522D01*
X0009350Y0033520D01*
X0009303Y0033522D01*
X0009256Y0033527D01*
X0009210Y0033537D01*
X0009165Y0033549D01*
X0009120Y0033566D01*
X0009078Y0033585D01*
X0009037Y0033608D01*
X0008997Y0033635D01*
X0008960Y0033664D01*
X0008926Y0033696D01*
X0008894Y0033730D01*
X0008865Y0033767D01*
X0008838Y0033807D01*
X0008815Y0033848D01*
X0008796Y0033890D01*
X0008779Y0033935D01*
X0008767Y0033980D01*
X0008757Y0034026D01*
X0008752Y0034073D01*
X0008750Y0034120D01*
X0008752Y0034169D01*
X0008758Y0034217D01*
X0008767Y0034265D01*
X0008781Y0034311D01*
X0008798Y0034357D01*
X0008819Y0034401D01*
X0008843Y0034443D01*
X0008870Y0034483D01*
X0008901Y0034521D01*
X0008934Y0034556D01*
X0008970Y0034589D01*
X0009009Y0034618D01*
X0009050Y0034645D01*
X0009500Y0043520D02*
X0009500Y0046220D01*
X0010250Y0046220D02*
X0008750Y0046220D01*
X0007712Y0046220D02*
X0005912Y0043520D01*
X0007712Y0043520D02*
X0005912Y0046220D01*
X0005747Y0053520D02*
X0007547Y0056220D01*
X0005747Y0056220D02*
X0007547Y0053520D01*
X0008750Y0053520D02*
X0009350Y0054720D01*
X0009500Y0054720D02*
X0010250Y0054720D01*
X0009500Y0054720D02*
X0009446Y0054722D01*
X0009393Y0054728D01*
X0009341Y0054737D01*
X0009289Y0054750D01*
X0009238Y0054767D01*
X0009188Y0054788D01*
X0009141Y0054812D01*
X0009095Y0054839D01*
X0009051Y0054870D01*
X0009009Y0054903D01*
X0008970Y0054940D01*
X0008933Y0054979D01*
X0008900Y0055021D01*
X0008869Y0055065D01*
X0008842Y0055111D01*
X0008818Y0055158D01*
X0008797Y0055208D01*
X0008780Y0055259D01*
X0008767Y0055311D01*
X0008758Y0055363D01*
X0008752Y0055416D01*
X0008750Y0055470D01*
X0008752Y0055524D01*
X0008758Y0055577D01*
X0008767Y0055629D01*
X0008780Y0055681D01*
X0008797Y0055732D01*
X0008818Y0055782D01*
X0008842Y0055829D01*
X0008869Y0055875D01*
X0008900Y0055919D01*
X0008933Y0055961D01*
X0008970Y0056000D01*
X0009009Y0056037D01*
X0009051Y0056070D01*
X0009095Y0056101D01*
X0009141Y0056128D01*
X0009188Y0056152D01*
X0009238Y0056173D01*
X0009289Y0056190D01*
X0009341Y0056203D01*
X0009393Y0056212D01*
X0009446Y0056218D01*
X0009500Y0056220D01*
X0010250Y0056220D01*
X0010250Y0053520D01*
X0009650Y0064020D02*
X0008750Y0064020D01*
X0008750Y0065520D01*
X0009200Y0065520D01*
X0010250Y0066120D02*
X0010248Y0066167D01*
X0010243Y0066214D01*
X0010233Y0066260D01*
X0010221Y0066305D01*
X0010204Y0066350D01*
X0010185Y0066392D01*
X0010162Y0066433D01*
X0010135Y0066473D01*
X0010106Y0066510D01*
X0010074Y0066544D01*
X0010040Y0066576D01*
X0010003Y0066605D01*
X0009963Y0066632D01*
X0009922Y0066655D01*
X0009880Y0066674D01*
X0009835Y0066691D01*
X0009790Y0066703D01*
X0009744Y0066713D01*
X0009697Y0066718D01*
X0009650Y0066720D01*
X0008750Y0066720D01*
X0007178Y0066720D02*
X0005678Y0064020D01*
X0005678Y0066720D01*
X0007178Y0066720D02*
X0007178Y0064020D01*
X0009650Y0064020D02*
X0009697Y0064022D01*
X0009744Y0064027D01*
X0009790Y0064037D01*
X0009835Y0064049D01*
X0009880Y0064066D01*
X0009922Y0064085D01*
X0009963Y0064108D01*
X0010003Y0064135D01*
X0010040Y0064164D01*
X0010074Y0064196D01*
X0010106Y0064230D01*
X0010135Y0064267D01*
X0010162Y0064307D01*
X0010185Y0064348D01*
X0010204Y0064390D01*
X0010221Y0064435D01*
X0010233Y0064480D01*
X0010243Y0064526D01*
X0010248Y0064573D01*
X0010250Y0064620D01*
X0010250Y0066120D01*
X0004106Y0066720D02*
X0004106Y0064020D01*
X0003356Y0064020D01*
X0003302Y0064022D01*
X0003249Y0064028D01*
X0003197Y0064037D01*
X0003145Y0064050D01*
X0003094Y0064067D01*
X0003044Y0064088D01*
X0002997Y0064112D01*
X0002951Y0064139D01*
X0002907Y0064170D01*
X0002865Y0064203D01*
X0002826Y0064240D01*
X0002789Y0064279D01*
X0002756Y0064321D01*
X0002725Y0064365D01*
X0002698Y0064411D01*
X0002674Y0064458D01*
X0002653Y0064508D01*
X0002636Y0064559D01*
X0002623Y0064611D01*
X0002614Y0064663D01*
X0002608Y0064716D01*
X0002606Y0064770D01*
X0002606Y0065970D01*
X0002608Y0066024D01*
X0002614Y0066077D01*
X0002623Y0066129D01*
X0002636Y0066181D01*
X0002653Y0066232D01*
X0002674Y0066282D01*
X0002698Y0066329D01*
X0002725Y0066375D01*
X0002756Y0066419D01*
X0002789Y0066461D01*
X0002826Y0066500D01*
X0002865Y0066537D01*
X0002907Y0066570D01*
X0002951Y0066601D01*
X0002997Y0066628D01*
X0003044Y0066652D01*
X0003094Y0066673D01*
X0003145Y0066690D01*
X0003197Y0066703D01*
X0003249Y0066712D01*
X0003302Y0066718D01*
X0003356Y0066720D01*
X0004106Y0066720D01*
X0059990Y0073422D02*
X0060096Y0073315D01*
X0060096Y0073316D02*
X0060127Y0073288D01*
X0060160Y0073263D01*
X0060195Y0073241D01*
X0060232Y0073222D01*
X0060271Y0073207D01*
X0060311Y0073196D01*
X0060352Y0073188D01*
X0060393Y0073184D01*
X0060435Y0073184D01*
X0060476Y0073188D01*
X0060517Y0073196D01*
X0060557Y0073207D01*
X0060596Y0073222D01*
X0060633Y0073241D01*
X0060668Y0073263D01*
X0060701Y0073288D01*
X0060732Y0073316D01*
X0060733Y0073315D02*
X0062324Y0074906D01*
X0061899Y0074058D02*
X0061263Y0074694D01*
X0062202Y0072907D02*
X0061990Y0072695D01*
X0062838Y0071846D01*
X0063050Y0072058D02*
X0062520Y0071528D01*
X0062489Y0071500D01*
X0062456Y0071475D01*
X0062421Y0071453D01*
X0062384Y0071434D01*
X0062345Y0071419D01*
X0062305Y0071408D01*
X0062264Y0071400D01*
X0062223Y0071396D01*
X0062181Y0071396D01*
X0062140Y0071400D01*
X0062099Y0071408D01*
X0062059Y0071419D01*
X0062020Y0071434D01*
X0061983Y0071453D01*
X0061948Y0071475D01*
X0061915Y0071500D01*
X0061884Y0071528D01*
X0061353Y0072058D01*
X0062202Y0072907D02*
X0062237Y0072940D01*
X0062275Y0072970D01*
X0062316Y0072996D01*
X0062358Y0073020D01*
X0062402Y0073040D01*
X0062447Y0073056D01*
X0062494Y0073068D01*
X0062542Y0073077D01*
X0062590Y0073082D01*
X0062638Y0073083D01*
X0062686Y0073080D01*
X0062734Y0073073D01*
X0062781Y0073063D01*
X0062827Y0073048D01*
X0062872Y0073030D01*
X0062915Y0073009D01*
X0062957Y0072984D01*
X0062996Y0072955D01*
X0063033Y0072924D01*
X0063067Y0072890D01*
X0063098Y0072853D01*
X0063127Y0072814D01*
X0063152Y0072772D01*
X0063173Y0072729D01*
X0063191Y0072684D01*
X0063206Y0072638D01*
X0063216Y0072591D01*
X0063223Y0072543D01*
X0063226Y0072495D01*
X0063225Y0072447D01*
X0063220Y0072399D01*
X0063211Y0072351D01*
X0063199Y0072304D01*
X0063183Y0072259D01*
X0063163Y0072215D01*
X0063139Y0072173D01*
X0063113Y0072132D01*
X0063083Y0072094D01*
X0063050Y0072059D01*
X0064474Y0071483D02*
X0062883Y0069892D01*
X0063202Y0070210D02*
X0063732Y0069680D01*
X0063763Y0069652D01*
X0063796Y0069627D01*
X0063831Y0069605D01*
X0063868Y0069586D01*
X0063907Y0069571D01*
X0063947Y0069560D01*
X0063988Y0069552D01*
X0064029Y0069548D01*
X0064071Y0069548D01*
X0064112Y0069552D01*
X0064153Y0069560D01*
X0064193Y0069571D01*
X0064232Y0069586D01*
X0064269Y0069605D01*
X0064304Y0069627D01*
X0064337Y0069652D01*
X0064368Y0069680D01*
X0065005Y0070316D01*
X0065004Y0070316D02*
X0065032Y0070347D01*
X0065057Y0070380D01*
X0065079Y0070415D01*
X0065098Y0070452D01*
X0065113Y0070491D01*
X0065124Y0070531D01*
X0065132Y0070572D01*
X0065136Y0070613D01*
X0065136Y0070655D01*
X0065132Y0070696D01*
X0065124Y0070737D01*
X0065113Y0070777D01*
X0065098Y0070816D01*
X0065079Y0070853D01*
X0065057Y0070888D01*
X0065032Y0070921D01*
X0065004Y0070952D01*
X0065005Y0070953D02*
X0064474Y0071483D01*
X0062884Y0069892D02*
X0062856Y0069861D01*
X0062831Y0069828D01*
X0062809Y0069793D01*
X0062790Y0069756D01*
X0062775Y0069717D01*
X0062764Y0069677D01*
X0062756Y0069636D01*
X0062752Y0069595D01*
X0062752Y0069553D01*
X0062756Y0069512D01*
X0062764Y0069471D01*
X0062775Y0069431D01*
X0062790Y0069392D01*
X0062809Y0069355D01*
X0062831Y0069320D01*
X0062856Y0069287D01*
X0062884Y0069256D01*
X0062883Y0069256D02*
X0063308Y0068831D01*
X0065034Y0068377D02*
X0065565Y0067847D01*
X0065596Y0067819D01*
X0065629Y0067794D01*
X0065664Y0067772D01*
X0065701Y0067753D01*
X0065740Y0067738D01*
X0065780Y0067727D01*
X0065821Y0067719D01*
X0065862Y0067715D01*
X0065904Y0067715D01*
X0065945Y0067719D01*
X0065986Y0067727D01*
X0066026Y0067738D01*
X0066065Y0067753D01*
X0066102Y0067772D01*
X0066137Y0067794D01*
X0066170Y0067819D01*
X0066201Y0067847D01*
X0066837Y0068483D01*
X0066837Y0068484D02*
X0066865Y0068515D01*
X0066890Y0068548D01*
X0066912Y0068583D01*
X0066931Y0068620D01*
X0066946Y0068659D01*
X0066957Y0068699D01*
X0066965Y0068740D01*
X0066969Y0068781D01*
X0066969Y0068823D01*
X0066965Y0068864D01*
X0066957Y0068905D01*
X0066946Y0068945D01*
X0066931Y0068984D01*
X0066912Y0069021D01*
X0066890Y0069056D01*
X0066865Y0069089D01*
X0066837Y0069120D01*
X0066307Y0069650D01*
X0066944Y0070287D02*
X0065034Y0068377D01*
X0066733Y0066679D02*
X0068006Y0067952D01*
X0068483Y0068535D02*
X0068589Y0068429D01*
X0068695Y0068535D01*
X0068589Y0068641D01*
X0068483Y0068535D01*
X0069491Y0067740D02*
X0068006Y0065406D01*
X0069703Y0066255D01*
X0068854Y0064558D01*
X0071188Y0066042D01*
X0072286Y0063034D02*
X0071332Y0062080D01*
X0072180Y0061231D02*
X0073453Y0062504D01*
X0072923Y0063034D01*
X0072892Y0063062D01*
X0072859Y0063087D01*
X0072824Y0063109D01*
X0072787Y0063128D01*
X0072748Y0063143D01*
X0072708Y0063154D01*
X0072667Y0063162D01*
X0072626Y0063166D01*
X0072584Y0063166D01*
X0072543Y0063162D01*
X0072502Y0063154D01*
X0072462Y0063143D01*
X0072423Y0063128D01*
X0072386Y0063109D01*
X0072351Y0063087D01*
X0072318Y0063062D01*
X0072287Y0063034D01*
X0074013Y0061520D02*
X0074225Y0061733D01*
X0074861Y0061096D01*
X0073588Y0059823D01*
X0074590Y0058822D02*
X0075120Y0058291D01*
X0075121Y0058291D02*
X0075152Y0058263D01*
X0075185Y0058238D01*
X0075220Y0058216D01*
X0075257Y0058197D01*
X0075296Y0058182D01*
X0075336Y0058171D01*
X0075377Y0058163D01*
X0075418Y0058159D01*
X0075460Y0058159D01*
X0075501Y0058163D01*
X0075542Y0058171D01*
X0075582Y0058182D01*
X0075621Y0058197D01*
X0075658Y0058216D01*
X0075693Y0058238D01*
X0075726Y0058263D01*
X0075757Y0058291D01*
X0076287Y0058822D01*
X0076075Y0058609D02*
X0075227Y0059458D01*
X0075439Y0059670D01*
X0075474Y0059703D01*
X0075512Y0059733D01*
X0075553Y0059759D01*
X0075595Y0059783D01*
X0075639Y0059803D01*
X0075684Y0059819D01*
X0075731Y0059831D01*
X0075779Y0059840D01*
X0075827Y0059845D01*
X0075875Y0059846D01*
X0075923Y0059843D01*
X0075971Y0059836D01*
X0076018Y0059826D01*
X0076064Y0059811D01*
X0076109Y0059793D01*
X0076152Y0059772D01*
X0076194Y0059747D01*
X0076233Y0059718D01*
X0076270Y0059687D01*
X0076304Y0059653D01*
X0076335Y0059616D01*
X0076364Y0059577D01*
X0076389Y0059535D01*
X0076410Y0059492D01*
X0076428Y0059447D01*
X0076443Y0059401D01*
X0076453Y0059354D01*
X0076460Y0059306D01*
X0076463Y0059258D01*
X0076462Y0059210D01*
X0076457Y0059162D01*
X0076448Y0059114D01*
X0076436Y0059067D01*
X0076420Y0059022D01*
X0076400Y0058978D01*
X0076376Y0058936D01*
X0076350Y0058895D01*
X0076320Y0058857D01*
X0076287Y0058822D01*
X0077378Y0057943D02*
X0076423Y0056989D01*
X0077271Y0056140D02*
X0079181Y0058049D01*
X0078544Y0057413D02*
X0078014Y0057943D01*
X0077983Y0057971D01*
X0077950Y0057996D01*
X0077915Y0058018D01*
X0077878Y0058037D01*
X0077839Y0058052D01*
X0077799Y0058063D01*
X0077758Y0058071D01*
X0077717Y0058075D01*
X0077675Y0058075D01*
X0077634Y0058071D01*
X0077593Y0058063D01*
X0077553Y0058052D01*
X0077514Y0058037D01*
X0077477Y0058018D01*
X0077442Y0057996D01*
X0077409Y0057971D01*
X0077378Y0057943D01*
X0079455Y0056502D02*
X0080092Y0055866D01*
X0080606Y0055352D02*
X0080394Y0055140D01*
X0080606Y0055352D02*
X0081242Y0054715D01*
X0079969Y0053443D01*
X0081395Y0052865D02*
X0081820Y0053289D01*
X0081855Y0053322D01*
X0081893Y0053352D01*
X0081934Y0053378D01*
X0081976Y0053402D01*
X0082020Y0053422D01*
X0082065Y0053438D01*
X0082112Y0053450D01*
X0082160Y0053459D01*
X0082208Y0053464D01*
X0082256Y0053465D01*
X0082304Y0053462D01*
X0082352Y0053455D01*
X0082399Y0053445D01*
X0082445Y0053430D01*
X0082490Y0053412D01*
X0082533Y0053391D01*
X0082575Y0053366D01*
X0082614Y0053337D01*
X0082651Y0053306D01*
X0082685Y0053272D01*
X0082716Y0053235D01*
X0082745Y0053196D01*
X0082770Y0053154D01*
X0082791Y0053111D01*
X0082809Y0053066D01*
X0082824Y0053020D01*
X0082834Y0052973D01*
X0082841Y0052925D01*
X0082844Y0052877D01*
X0082843Y0052829D01*
X0082838Y0052781D01*
X0082829Y0052733D01*
X0082817Y0052686D01*
X0082801Y0052641D01*
X0082781Y0052597D01*
X0082757Y0052555D01*
X0082731Y0052514D01*
X0082701Y0052476D01*
X0082668Y0052441D01*
X0082244Y0052016D01*
X0082244Y0052017D02*
X0082209Y0051984D01*
X0082171Y0051954D01*
X0082130Y0051928D01*
X0082088Y0051904D01*
X0082044Y0051884D01*
X0081999Y0051868D01*
X0081952Y0051856D01*
X0081904Y0051847D01*
X0081856Y0051842D01*
X0081808Y0051841D01*
X0081760Y0051844D01*
X0081712Y0051851D01*
X0081665Y0051861D01*
X0081619Y0051876D01*
X0081574Y0051894D01*
X0081531Y0051915D01*
X0081489Y0051940D01*
X0081450Y0051969D01*
X0081413Y0052000D01*
X0081379Y0052034D01*
X0081348Y0052071D01*
X0081319Y0052110D01*
X0081294Y0052152D01*
X0081273Y0052195D01*
X0081255Y0052240D01*
X0081240Y0052286D01*
X0081230Y0052333D01*
X0081223Y0052381D01*
X0081220Y0052429D01*
X0081221Y0052477D01*
X0081226Y0052525D01*
X0081235Y0052573D01*
X0081247Y0052620D01*
X0081263Y0052665D01*
X0081283Y0052709D01*
X0081307Y0052751D01*
X0081333Y0052792D01*
X0081363Y0052830D01*
X0081396Y0052865D01*
X0078667Y0051775D02*
X0076757Y0049866D01*
X0076227Y0050396D01*
X0076227Y0050397D02*
X0076199Y0050428D01*
X0076174Y0050461D01*
X0076152Y0050496D01*
X0076133Y0050533D01*
X0076118Y0050572D01*
X0076107Y0050612D01*
X0076099Y0050653D01*
X0076095Y0050694D01*
X0076095Y0050736D01*
X0076099Y0050777D01*
X0076107Y0050818D01*
X0076118Y0050858D01*
X0076133Y0050897D01*
X0076152Y0050934D01*
X0076174Y0050969D01*
X0076199Y0051002D01*
X0076227Y0051033D01*
X0076863Y0051669D01*
X0076864Y0051669D02*
X0076895Y0051697D01*
X0076928Y0051722D01*
X0076963Y0051744D01*
X0077000Y0051763D01*
X0077039Y0051778D01*
X0077079Y0051789D01*
X0077120Y0051797D01*
X0077161Y0051801D01*
X0077203Y0051801D01*
X0077244Y0051797D01*
X0077285Y0051789D01*
X0077325Y0051778D01*
X0077364Y0051763D01*
X0077401Y0051744D01*
X0077436Y0051722D01*
X0077469Y0051697D01*
X0077500Y0051669D01*
X0078030Y0051139D01*
X0078606Y0049715D02*
X0078181Y0049291D01*
X0078182Y0049290D02*
X0078149Y0049255D01*
X0078119Y0049217D01*
X0078093Y0049176D01*
X0078069Y0049134D01*
X0078049Y0049090D01*
X0078033Y0049045D01*
X0078021Y0048998D01*
X0078012Y0048950D01*
X0078007Y0048902D01*
X0078006Y0048854D01*
X0078009Y0048806D01*
X0078016Y0048758D01*
X0078026Y0048711D01*
X0078041Y0048665D01*
X0078059Y0048620D01*
X0078080Y0048577D01*
X0078105Y0048535D01*
X0078134Y0048496D01*
X0078165Y0048459D01*
X0078199Y0048425D01*
X0078236Y0048394D01*
X0078275Y0048365D01*
X0078317Y0048340D01*
X0078360Y0048319D01*
X0078405Y0048301D01*
X0078451Y0048286D01*
X0078498Y0048276D01*
X0078546Y0048269D01*
X0078594Y0048266D01*
X0078642Y0048267D01*
X0078690Y0048272D01*
X0078738Y0048281D01*
X0078785Y0048293D01*
X0078830Y0048309D01*
X0078874Y0048329D01*
X0078916Y0048353D01*
X0078957Y0048379D01*
X0078995Y0048409D01*
X0079030Y0048442D01*
X0079454Y0048866D01*
X0079454Y0048867D02*
X0079487Y0048902D01*
X0079517Y0048940D01*
X0079543Y0048981D01*
X0079567Y0049023D01*
X0079587Y0049067D01*
X0079603Y0049112D01*
X0079615Y0049159D01*
X0079624Y0049207D01*
X0079629Y0049255D01*
X0079630Y0049303D01*
X0079627Y0049351D01*
X0079620Y0049399D01*
X0079610Y0049446D01*
X0079595Y0049492D01*
X0079577Y0049537D01*
X0079556Y0049580D01*
X0079531Y0049622D01*
X0079502Y0049661D01*
X0079471Y0049698D01*
X0079437Y0049732D01*
X0079400Y0049763D01*
X0079361Y0049792D01*
X0079319Y0049817D01*
X0079276Y0049838D01*
X0079231Y0049856D01*
X0079185Y0049871D01*
X0079138Y0049881D01*
X0079090Y0049888D01*
X0079042Y0049891D01*
X0078994Y0049890D01*
X0078946Y0049885D01*
X0078898Y0049876D01*
X0078851Y0049864D01*
X0078806Y0049848D01*
X0078762Y0049828D01*
X0078720Y0049804D01*
X0078679Y0049778D01*
X0078641Y0049748D01*
X0078606Y0049715D01*
X0081030Y0047714D02*
X0081561Y0047184D01*
X0081031Y0047715D02*
X0080998Y0047750D01*
X0080968Y0047788D01*
X0080942Y0047829D01*
X0080918Y0047871D01*
X0080898Y0047915D01*
X0080882Y0047960D01*
X0080870Y0048007D01*
X0080861Y0048055D01*
X0080856Y0048103D01*
X0080855Y0048151D01*
X0080858Y0048199D01*
X0080865Y0048247D01*
X0080875Y0048294D01*
X0080890Y0048340D01*
X0080908Y0048385D01*
X0080929Y0048428D01*
X0080954Y0048470D01*
X0080983Y0048509D01*
X0081014Y0048546D01*
X0081048Y0048580D01*
X0081085Y0048611D01*
X0081124Y0048640D01*
X0081166Y0048665D01*
X0081209Y0048686D01*
X0081254Y0048704D01*
X0081300Y0048719D01*
X0081347Y0048729D01*
X0081395Y0048736D01*
X0081443Y0048739D01*
X0081491Y0048738D01*
X0081539Y0048733D01*
X0081587Y0048724D01*
X0081634Y0048712D01*
X0081679Y0048696D01*
X0081723Y0048676D01*
X0081765Y0048652D01*
X0081806Y0048626D01*
X0081844Y0048596D01*
X0081879Y0048563D01*
X0082409Y0048033D01*
X0080500Y0046123D01*
X0079970Y0046654D01*
X0079933Y0046693D01*
X0079900Y0046735D01*
X0079869Y0046779D01*
X0079842Y0046825D01*
X0079818Y0046872D01*
X0079797Y0046922D01*
X0079780Y0046973D01*
X0079767Y0047025D01*
X0079758Y0047077D01*
X0079752Y0047131D01*
X0079750Y0047184D01*
X0079752Y0047238D01*
X0079758Y0047291D01*
X0079767Y0047343D01*
X0079780Y0047395D01*
X0079797Y0047446D01*
X0079818Y0047496D01*
X0079842Y0047543D01*
X0079869Y0047589D01*
X0079900Y0047633D01*
X0079933Y0047675D01*
X0079970Y0047714D01*
X0080009Y0047751D01*
X0080051Y0047784D01*
X0080095Y0047815D01*
X0080141Y0047842D01*
X0080188Y0047866D01*
X0080238Y0047887D01*
X0080289Y0047904D01*
X0080341Y0047917D01*
X0080393Y0047926D01*
X0080446Y0047932D01*
X0080500Y0047934D01*
X0080554Y0047932D01*
X0080607Y0047926D01*
X0080659Y0047917D01*
X0080711Y0047904D01*
X0080762Y0047887D01*
X0080812Y0047866D01*
X0080859Y0047842D01*
X0080905Y0047815D01*
X0080949Y0047784D01*
X0080991Y0047751D01*
X0081030Y0047714D01*
X0083894Y0049518D02*
X0085803Y0051427D01*
X0082833Y0050578D01*
X0084743Y0052487D01*
X0080516Y0056714D02*
X0078925Y0055123D01*
X0078894Y0055095D01*
X0078861Y0055070D01*
X0078826Y0055048D01*
X0078789Y0055029D01*
X0078750Y0055014D01*
X0078710Y0055003D01*
X0078669Y0054995D01*
X0078628Y0054991D01*
X0078586Y0054991D01*
X0078545Y0054995D01*
X0078504Y0055003D01*
X0078464Y0055014D01*
X0078425Y0055029D01*
X0078388Y0055048D01*
X0078353Y0055070D01*
X0078320Y0055095D01*
X0078289Y0055123D01*
X0078182Y0055229D01*
X0076834Y0053608D02*
X0074925Y0051699D01*
X0074394Y0052229D01*
X0074366Y0052260D01*
X0074341Y0052293D01*
X0074319Y0052328D01*
X0074300Y0052365D01*
X0074285Y0052404D01*
X0074274Y0052444D01*
X0074266Y0052485D01*
X0074262Y0052526D01*
X0074262Y0052568D01*
X0074266Y0052609D01*
X0074274Y0052650D01*
X0074285Y0052690D01*
X0074300Y0052729D01*
X0074319Y0052766D01*
X0074341Y0052801D01*
X0074366Y0052834D01*
X0074394Y0052865D01*
X0074394Y0052866D02*
X0075031Y0053502D01*
X0075062Y0053530D01*
X0075095Y0053555D01*
X0075130Y0053577D01*
X0075167Y0053596D01*
X0075206Y0053611D01*
X0075246Y0053622D01*
X0075287Y0053630D01*
X0075328Y0053634D01*
X0075370Y0053634D01*
X0075411Y0053630D01*
X0075452Y0053622D01*
X0075492Y0053611D01*
X0075531Y0053596D01*
X0075568Y0053577D01*
X0075603Y0053555D01*
X0075636Y0053530D01*
X0075667Y0053502D01*
X0076197Y0052972D01*
X0074516Y0054653D02*
X0072819Y0053805D01*
X0072395Y0052956D02*
X0073667Y0055502D01*
X0071347Y0057504D02*
X0070445Y0057769D01*
X0069861Y0056761D02*
X0069910Y0056715D01*
X0069961Y0056672D01*
X0070014Y0056632D01*
X0070069Y0056594D01*
X0070126Y0056559D01*
X0070184Y0056527D01*
X0070245Y0056499D01*
X0070306Y0056473D01*
X0070369Y0056451D01*
X0070433Y0056432D01*
X0070498Y0056417D01*
X0070564Y0056405D01*
X0070630Y0056396D01*
X0070697Y0056391D01*
X0070763Y0056390D01*
X0070445Y0057769D02*
X0070398Y0057779D01*
X0070350Y0057785D01*
X0070301Y0057788D01*
X0070252Y0057787D01*
X0070204Y0057781D01*
X0070156Y0057772D01*
X0070109Y0057760D01*
X0070064Y0057743D01*
X0070019Y0057723D01*
X0069977Y0057700D01*
X0069936Y0057673D01*
X0069898Y0057643D01*
X0069862Y0057610D01*
X0069830Y0057576D01*
X0069801Y0057539D01*
X0069774Y0057499D01*
X0069751Y0057458D01*
X0069732Y0057416D01*
X0069715Y0057371D01*
X0069703Y0057326D01*
X0069693Y0057280D01*
X0069688Y0057233D01*
X0069686Y0057186D01*
X0069688Y0057139D01*
X0069693Y0057092D01*
X0069703Y0057046D01*
X0069715Y0057001D01*
X0069732Y0056956D01*
X0069751Y0056914D01*
X0069774Y0056873D01*
X0069801Y0056833D01*
X0069830Y0056796D01*
X0069862Y0056762D01*
X0071294Y0058830D02*
X0071359Y0058818D01*
X0071423Y0058804D01*
X0071486Y0058785D01*
X0071548Y0058762D01*
X0071608Y0058737D01*
X0071667Y0058707D01*
X0071724Y0058674D01*
X0071779Y0058638D01*
X0071832Y0058599D01*
X0071883Y0058557D01*
X0071930Y0058511D01*
X0071930Y0058512D02*
X0071962Y0058478D01*
X0071991Y0058441D01*
X0072018Y0058401D01*
X0072041Y0058360D01*
X0072060Y0058318D01*
X0072077Y0058273D01*
X0072089Y0058228D01*
X0072099Y0058182D01*
X0072104Y0058135D01*
X0072106Y0058088D01*
X0072104Y0058041D01*
X0072099Y0057994D01*
X0072089Y0057948D01*
X0072077Y0057903D01*
X0072060Y0057858D01*
X0072041Y0057816D01*
X0072018Y0057775D01*
X0071991Y0057735D01*
X0071962Y0057698D01*
X0071930Y0057664D01*
X0071930Y0057663D02*
X0071894Y0057630D01*
X0071856Y0057600D01*
X0071815Y0057573D01*
X0071773Y0057550D01*
X0071728Y0057530D01*
X0071683Y0057513D01*
X0071636Y0057501D01*
X0071588Y0057492D01*
X0071540Y0057486D01*
X0071491Y0057485D01*
X0071442Y0057488D01*
X0071394Y0057494D01*
X0071347Y0057504D01*
X0069510Y0059022D02*
X0068874Y0058386D01*
X0068843Y0058358D01*
X0068810Y0058333D01*
X0068775Y0058311D01*
X0068738Y0058292D01*
X0068699Y0058277D01*
X0068659Y0058266D01*
X0068618Y0058258D01*
X0068577Y0058254D01*
X0068535Y0058254D01*
X0068494Y0058258D01*
X0068453Y0058266D01*
X0068413Y0058277D01*
X0068374Y0058292D01*
X0068337Y0058311D01*
X0068302Y0058333D01*
X0068269Y0058358D01*
X0068238Y0058386D01*
X0067813Y0058810D01*
X0066930Y0059693D02*
X0068839Y0061603D01*
X0068203Y0060966D02*
X0067673Y0061497D01*
X0067672Y0061496D02*
X0067641Y0061524D01*
X0067608Y0061549D01*
X0067573Y0061571D01*
X0067536Y0061590D01*
X0067497Y0061605D01*
X0067457Y0061616D01*
X0067416Y0061624D01*
X0067375Y0061628D01*
X0067333Y0061628D01*
X0067292Y0061624D01*
X0067251Y0061616D01*
X0067211Y0061605D01*
X0067172Y0061590D01*
X0067135Y0061571D01*
X0067100Y0061549D01*
X0067067Y0061524D01*
X0067036Y0061496D01*
X0067036Y0061497D02*
X0066082Y0060542D01*
X0065348Y0061912D02*
X0066302Y0062867D01*
X0065454Y0063715D02*
X0064181Y0062443D01*
X0064711Y0061912D01*
X0064711Y0061913D02*
X0064742Y0061885D01*
X0064775Y0061860D01*
X0064810Y0061838D01*
X0064847Y0061819D01*
X0064886Y0061804D01*
X0064926Y0061793D01*
X0064967Y0061785D01*
X0065008Y0061781D01*
X0065050Y0061781D01*
X0065091Y0061785D01*
X0065132Y0061793D01*
X0065172Y0061804D01*
X0065211Y0061819D01*
X0065248Y0061838D01*
X0065283Y0061860D01*
X0065316Y0061885D01*
X0065347Y0061913D01*
X0063508Y0063752D02*
X0065099Y0065343D01*
X0063451Y0065718D02*
X0062603Y0066566D01*
X0062178Y0064445D01*
X0061330Y0065294D01*
X0062872Y0063752D02*
X0062903Y0063724D01*
X0062936Y0063699D01*
X0062971Y0063677D01*
X0063008Y0063658D01*
X0063047Y0063643D01*
X0063087Y0063632D01*
X0063128Y0063624D01*
X0063169Y0063620D01*
X0063211Y0063620D01*
X0063252Y0063624D01*
X0063293Y0063632D01*
X0063333Y0063643D01*
X0063372Y0063658D01*
X0063409Y0063677D01*
X0063444Y0063699D01*
X0063477Y0063724D01*
X0063508Y0063752D01*
X0069086Y0060083D02*
X0069510Y0059659D01*
X0069538Y0059628D01*
X0069563Y0059595D01*
X0069585Y0059560D01*
X0069604Y0059523D01*
X0069619Y0059484D01*
X0069630Y0059444D01*
X0069638Y0059403D01*
X0069642Y0059362D01*
X0069642Y0059320D01*
X0069638Y0059279D01*
X0069630Y0059238D01*
X0069619Y0059198D01*
X0069604Y0059159D01*
X0069585Y0059122D01*
X0069563Y0059087D01*
X0069538Y0059054D01*
X0069510Y0059023D01*
X0072395Y0052956D02*
X0072607Y0052744D01*
X0099675Y0055070D02*
X0101475Y0055070D01*
X0100575Y0054170D02*
X0100575Y0055970D01*
X0102747Y0056720D02*
X0104547Y0054020D01*
X0105750Y0054020D02*
X0106350Y0055220D01*
X0106500Y0055220D02*
X0107250Y0055220D01*
X0106500Y0055220D02*
X0106446Y0055222D01*
X0106393Y0055228D01*
X0106341Y0055237D01*
X0106289Y0055250D01*
X0106238Y0055267D01*
X0106188Y0055288D01*
X0106141Y0055312D01*
X0106095Y0055339D01*
X0106051Y0055370D01*
X0106009Y0055403D01*
X0105970Y0055440D01*
X0105933Y0055479D01*
X0105900Y0055521D01*
X0105869Y0055565D01*
X0105842Y0055611D01*
X0105818Y0055658D01*
X0105797Y0055708D01*
X0105780Y0055759D01*
X0105767Y0055811D01*
X0105758Y0055863D01*
X0105752Y0055916D01*
X0105750Y0055970D01*
X0105752Y0056024D01*
X0105758Y0056077D01*
X0105767Y0056129D01*
X0105780Y0056181D01*
X0105797Y0056232D01*
X0105818Y0056282D01*
X0105842Y0056329D01*
X0105869Y0056375D01*
X0105900Y0056419D01*
X0105933Y0056461D01*
X0105970Y0056500D01*
X0106009Y0056537D01*
X0106051Y0056570D01*
X0106095Y0056601D01*
X0106141Y0056628D01*
X0106188Y0056652D01*
X0106238Y0056673D01*
X0106289Y0056690D01*
X0106341Y0056703D01*
X0106393Y0056712D01*
X0106446Y0056718D01*
X0106500Y0056720D01*
X0107250Y0056720D01*
X0107250Y0054020D01*
X0104547Y0056720D02*
X0102747Y0054020D01*
X0102747Y0046720D02*
X0104547Y0044020D01*
X0105750Y0044020D02*
X0106350Y0045220D01*
X0106500Y0045220D02*
X0107250Y0045220D01*
X0106500Y0045220D02*
X0106446Y0045222D01*
X0106393Y0045228D01*
X0106341Y0045237D01*
X0106289Y0045250D01*
X0106238Y0045267D01*
X0106188Y0045288D01*
X0106141Y0045312D01*
X0106095Y0045339D01*
X0106051Y0045370D01*
X0106009Y0045403D01*
X0105970Y0045440D01*
X0105933Y0045479D01*
X0105900Y0045521D01*
X0105869Y0045565D01*
X0105842Y0045611D01*
X0105818Y0045658D01*
X0105797Y0045708D01*
X0105780Y0045759D01*
X0105767Y0045811D01*
X0105758Y0045863D01*
X0105752Y0045916D01*
X0105750Y0045970D01*
X0105752Y0046024D01*
X0105758Y0046077D01*
X0105767Y0046129D01*
X0105780Y0046181D01*
X0105797Y0046232D01*
X0105818Y0046282D01*
X0105842Y0046329D01*
X0105869Y0046375D01*
X0105900Y0046419D01*
X0105933Y0046461D01*
X0105970Y0046500D01*
X0106009Y0046537D01*
X0106051Y0046570D01*
X0106095Y0046601D01*
X0106141Y0046628D01*
X0106188Y0046652D01*
X0106238Y0046673D01*
X0106289Y0046690D01*
X0106341Y0046703D01*
X0106393Y0046712D01*
X0106446Y0046718D01*
X0106500Y0046720D01*
X0107250Y0046720D01*
X0107250Y0044020D01*
X0104547Y0046720D02*
X0102747Y0044020D01*
X0101475Y0045070D02*
X0099675Y0045070D01*
X0102912Y0036720D02*
X0104712Y0034020D01*
X0102912Y0034020D02*
X0104712Y0036720D01*
X0105750Y0036720D02*
X0107250Y0036720D01*
X0106500Y0036720D02*
X0106500Y0034020D01*
X0101640Y0035070D02*
X0099840Y0035070D01*
X0102912Y0026720D02*
X0104712Y0024020D01*
X0102912Y0024020D02*
X0104712Y0026720D01*
X0105750Y0026720D02*
X0107250Y0026720D01*
X0106500Y0026720D02*
X0106500Y0024020D01*
X0101640Y0025070D02*
X0099840Y0025070D01*
X0100740Y0024170D02*
X0100740Y0025970D01*
X0102720Y0016720D02*
X0103620Y0014020D01*
X0104520Y0016720D01*
X0105750Y0016720D02*
X0107250Y0016720D01*
X0107250Y0015520D01*
X0106350Y0015520D01*
X0106303Y0015518D01*
X0106256Y0015513D01*
X0106210Y0015503D01*
X0106165Y0015491D01*
X0106120Y0015474D01*
X0106078Y0015455D01*
X0106037Y0015432D01*
X0105997Y0015405D01*
X0105960Y0015376D01*
X0105926Y0015344D01*
X0105894Y0015310D01*
X0105865Y0015273D01*
X0105838Y0015233D01*
X0105815Y0015192D01*
X0105796Y0015150D01*
X0105779Y0015105D01*
X0105767Y0015060D01*
X0105757Y0015014D01*
X0105752Y0014967D01*
X0105750Y0014920D01*
X0105750Y0014620D01*
X0105752Y0014573D01*
X0105757Y0014526D01*
X0105767Y0014480D01*
X0105779Y0014435D01*
X0105796Y0014390D01*
X0105815Y0014348D01*
X0105838Y0014307D01*
X0105865Y0014267D01*
X0105894Y0014230D01*
X0105926Y0014196D01*
X0105960Y0014164D01*
X0105997Y0014135D01*
X0106037Y0014108D01*
X0106078Y0014085D01*
X0106120Y0014066D01*
X0106165Y0014049D01*
X0106210Y0014037D01*
X0106256Y0014027D01*
X0106303Y0014022D01*
X0106350Y0014020D01*
X0107250Y0014020D01*
X0106650Y0064020D02*
X0105750Y0064020D01*
X0105750Y0065520D01*
X0106200Y0065520D01*
X0107250Y0066120D02*
X0107248Y0066167D01*
X0107243Y0066214D01*
X0107233Y0066260D01*
X0107221Y0066305D01*
X0107204Y0066350D01*
X0107185Y0066392D01*
X0107162Y0066433D01*
X0107135Y0066473D01*
X0107106Y0066510D01*
X0107074Y0066544D01*
X0107040Y0066576D01*
X0107003Y0066605D01*
X0106963Y0066632D01*
X0106922Y0066655D01*
X0106880Y0066674D01*
X0106835Y0066691D01*
X0106790Y0066703D01*
X0106744Y0066713D01*
X0106697Y0066718D01*
X0106650Y0066720D01*
X0105750Y0066720D01*
X0104178Y0066720D02*
X0102678Y0064020D01*
X0102678Y0066720D01*
X0101106Y0066720D02*
X0100356Y0066720D01*
X0101106Y0066720D02*
X0101106Y0064020D01*
X0100356Y0064020D01*
X0100302Y0064022D01*
X0100249Y0064028D01*
X0100197Y0064037D01*
X0100145Y0064050D01*
X0100094Y0064067D01*
X0100044Y0064088D01*
X0099997Y0064112D01*
X0099951Y0064139D01*
X0099907Y0064170D01*
X0099865Y0064203D01*
X0099826Y0064240D01*
X0099789Y0064279D01*
X0099756Y0064321D01*
X0099725Y0064365D01*
X0099698Y0064411D01*
X0099674Y0064458D01*
X0099653Y0064508D01*
X0099636Y0064559D01*
X0099623Y0064611D01*
X0099614Y0064663D01*
X0099608Y0064716D01*
X0099606Y0064770D01*
X0099606Y0065970D01*
X0099608Y0066024D01*
X0099614Y0066077D01*
X0099623Y0066129D01*
X0099636Y0066181D01*
X0099653Y0066232D01*
X0099674Y0066282D01*
X0099698Y0066329D01*
X0099725Y0066375D01*
X0099756Y0066419D01*
X0099789Y0066461D01*
X0099826Y0066500D01*
X0099865Y0066537D01*
X0099907Y0066570D01*
X0099951Y0066601D01*
X0099997Y0066628D01*
X0100044Y0066652D01*
X0100094Y0066673D01*
X0100145Y0066690D01*
X0100197Y0066703D01*
X0100249Y0066712D01*
X0100302Y0066718D01*
X0100356Y0066720D01*
X0104178Y0066720D02*
X0104178Y0064020D01*
X0106650Y0064020D02*
X0106697Y0064022D01*
X0106744Y0064027D01*
X0106790Y0064037D01*
X0106835Y0064049D01*
X0106880Y0064066D01*
X0106922Y0064085D01*
X0106963Y0064108D01*
X0107003Y0064135D01*
X0107040Y0064164D01*
X0107074Y0064196D01*
X0107106Y0064230D01*
X0107135Y0064267D01*
X0107162Y0064307D01*
X0107185Y0064348D01*
X0107204Y0064390D01*
X0107221Y0064435D01*
X0107233Y0064480D01*
X0107243Y0064526D01*
X0107248Y0064573D01*
X0107250Y0064620D01*
X0107250Y0066120D01*
D11*
X0090971Y0030471D02*
X0044201Y0077241D01*
X0023322Y0056361D01*
X0070092Y0009592D01*
X0090971Y0030471D01*
D12*
X0088465Y0030193D02*
X0043923Y0074735D01*
X0039747Y0070559D01*
X0039051Y0071255D01*
X0039747Y0070559D02*
X0041139Y0069167D01*
X0044619Y0072647D01*
X0048099Y0069167D01*
X0047403Y0068471D01*
X0048795Y0067079D01*
X0049491Y0067775D01*
X0053667Y0063600D01*
X0052971Y0062904D01*
X0054363Y0061512D01*
X0055059Y0062208D01*
X0059234Y0058032D01*
X0058538Y0057336D01*
X0059930Y0055944D01*
X0060626Y0056640D01*
X0064802Y0052464D01*
X0064106Y0051768D01*
X0065498Y0050376D01*
X0066194Y0051072D01*
X0070370Y0046896D01*
X0069674Y0046200D01*
X0071066Y0044808D01*
X0071762Y0045504D01*
X0075938Y0041328D01*
X0075242Y0040633D01*
X0076634Y0039241D01*
X0077330Y0039937D01*
X0081505Y0035761D01*
X0080809Y0035065D01*
X0082201Y0033673D01*
X0082897Y0034369D01*
X0086377Y0030889D01*
X0075938Y0020449D01*
X0077330Y0019057D01*
X0088465Y0030193D01*
X0075938Y0020449D02*
X0073154Y0017665D01*
X0074546Y0016274D01*
X0070370Y0012098D01*
X0050883Y0031585D01*
X0049491Y0030193D01*
X0050883Y0031585D02*
X0051579Y0032281D01*
X0056450Y0027409D01*
X0057146Y0028105D01*
X0058538Y0026713D01*
X0057842Y0026017D01*
X0069674Y0014186D01*
X0073154Y0017665D01*
X0074546Y0016274D02*
X0075242Y0015578D01*
X0078026Y0018361D02*
X0077330Y0019057D01*
X0046011Y0037849D02*
X0045315Y0037153D01*
X0025828Y0056640D01*
X0037659Y0068471D01*
X0036963Y0069167D01*
X0037659Y0068471D02*
X0039051Y0067079D01*
X0041139Y0069167D01*
X0039051Y0067079D02*
X0027916Y0055944D01*
X0039747Y0044112D01*
X0040443Y0044808D01*
X0041835Y0043416D01*
X0041139Y0042720D01*
X0046011Y0037849D01*
X0045315Y0037153D02*
X0043923Y0035761D01*
D13*
G36*
X0054363Y0043416D02*
X0057146Y0040633D01*
X0054363Y0037850D01*
X0051580Y0040633D01*
X0054363Y0043416D01*
G37*
G36*
X0059930Y0048983D02*
X0062713Y0046200D01*
X0059930Y0043417D01*
X0057147Y0046200D01*
X0059930Y0048983D01*
G37*
G36*
X0054363Y0054551D02*
X0057146Y0051768D01*
X0054363Y0048985D01*
X0051580Y0051768D01*
X0054363Y0054551D01*
G37*
G36*
X0048795Y0060119D02*
X0051578Y0057336D01*
X0048795Y0054553D01*
X0046012Y0057336D01*
X0048795Y0060119D01*
G37*
G36*
X0043227Y0065687D02*
X0046010Y0062904D01*
X0043227Y0060121D01*
X0040444Y0062904D01*
X0043227Y0065687D01*
G37*
G36*
X0037659Y0060119D02*
X0040442Y0057336D01*
X0037659Y0054553D01*
X0034876Y0057336D01*
X0037659Y0060119D01*
G37*
G36*
X0043227Y0054551D02*
X0046010Y0051768D01*
X0043227Y0048985D01*
X0040444Y0051768D01*
X0043227Y0054551D01*
G37*
G36*
X0048795Y0048983D02*
X0051578Y0046200D01*
X0048795Y0043417D01*
X0046012Y0046200D01*
X0048795Y0048983D01*
G37*
G36*
X0065498Y0043416D02*
X0068281Y0040633D01*
X0065498Y0037850D01*
X0062715Y0040633D01*
X0065498Y0043416D01*
G37*
G36*
X0059930Y0037848D02*
X0062713Y0035065D01*
X0059930Y0032282D01*
X0057147Y0035065D01*
X0059930Y0037848D01*
G37*
G36*
X0071066Y0037848D02*
X0073849Y0035065D01*
X0071066Y0032282D01*
X0068283Y0035065D01*
X0071066Y0037848D01*
G37*
G36*
X0076634Y0032280D02*
X0079417Y0029497D01*
X0076634Y0026714D01*
X0073851Y0029497D01*
X0076634Y0032280D01*
G37*
G36*
X0065498Y0032280D02*
X0068281Y0029497D01*
X0065498Y0026714D01*
X0062715Y0029497D01*
X0065498Y0032280D01*
G37*
G36*
X0071066Y0026712D02*
X0073849Y0023929D01*
X0071066Y0021146D01*
X0068283Y0023929D01*
X0071066Y0026712D01*
G37*
D14*
X0071642Y0008415D02*
X0071644Y0008490D01*
X0071650Y0008564D01*
X0071660Y0008638D01*
X0071673Y0008711D01*
X0071691Y0008784D01*
X0071712Y0008855D01*
X0071737Y0008926D01*
X0071766Y0008995D01*
X0071799Y0009062D01*
X0071835Y0009127D01*
X0071874Y0009191D01*
X0071916Y0009252D01*
X0071962Y0009311D01*
X0072011Y0009368D01*
X0072063Y0009421D01*
X0072117Y0009472D01*
X0072174Y0009521D01*
X0072234Y0009565D01*
X0072296Y0009607D01*
X0072360Y0009646D01*
X0072426Y0009681D01*
X0072493Y0009712D01*
X0072563Y0009740D01*
X0072633Y0009764D01*
X0072705Y0009785D01*
X0072778Y0009801D01*
X0072851Y0009814D01*
X0072926Y0009823D01*
X0073000Y0009828D01*
X0073075Y0009829D01*
X0073149Y0009826D01*
X0073224Y0009819D01*
X0073297Y0009808D01*
X0073371Y0009794D01*
X0073443Y0009775D01*
X0073514Y0009753D01*
X0073584Y0009727D01*
X0073653Y0009697D01*
X0073719Y0009664D01*
X0073784Y0009627D01*
X0073847Y0009587D01*
X0073908Y0009543D01*
X0073966Y0009497D01*
X0074022Y0009447D01*
X0074075Y0009395D01*
X0074126Y0009340D01*
X0074173Y0009282D01*
X0074217Y0009222D01*
X0074258Y0009159D01*
X0074296Y0009095D01*
X0074330Y0009029D01*
X0074361Y0008960D01*
X0074388Y0008891D01*
X0074411Y0008820D01*
X0074430Y0008748D01*
X0074446Y0008675D01*
X0074458Y0008601D01*
X0074466Y0008527D01*
X0074470Y0008452D01*
X0074470Y0008378D01*
X0074466Y0008303D01*
X0074458Y0008229D01*
X0074446Y0008155D01*
X0074430Y0008082D01*
X0074411Y0008010D01*
X0074388Y0007939D01*
X0074361Y0007870D01*
X0074330Y0007801D01*
X0074296Y0007735D01*
X0074258Y0007671D01*
X0074217Y0007608D01*
X0074173Y0007548D01*
X0074126Y0007490D01*
X0074075Y0007435D01*
X0074022Y0007383D01*
X0073966Y0007333D01*
X0073908Y0007287D01*
X0073847Y0007243D01*
X0073784Y0007203D01*
X0073719Y0007166D01*
X0073653Y0007133D01*
X0073584Y0007103D01*
X0073514Y0007077D01*
X0073443Y0007055D01*
X0073371Y0007036D01*
X0073297Y0007022D01*
X0073224Y0007011D01*
X0073149Y0007004D01*
X0073075Y0007001D01*
X0073000Y0007002D01*
X0072926Y0007007D01*
X0072851Y0007016D01*
X0072778Y0007029D01*
X0072705Y0007045D01*
X0072633Y0007066D01*
X0072563Y0007090D01*
X0072493Y0007118D01*
X0072426Y0007149D01*
X0072360Y0007184D01*
X0072296Y0007223D01*
X0072234Y0007265D01*
X0072174Y0007309D01*
X0072117Y0007358D01*
X0072063Y0007409D01*
X0072011Y0007462D01*
X0071962Y0007519D01*
X0071916Y0007578D01*
X0071874Y0007639D01*
X0071835Y0007703D01*
X0071799Y0007768D01*
X0071766Y0007835D01*
X0071737Y0007904D01*
X0071712Y0007975D01*
X0071691Y0008046D01*
X0071673Y0008119D01*
X0071660Y0008192D01*
X0071650Y0008266D01*
X0071644Y0008340D01*
X0071642Y0008415D01*
D15*
X0070228Y0015486D02*
X0068657Y0017057D01*
X0069442Y0016271D02*
X0072271Y0019100D01*
X0072428Y0017686D01*
M02*
